#VRML V2.0 utf8

Shape {
  appearance Appearance {
    material Material {
      diffuseColor 0.1804 0.1804 0.1804
      specularColor 0.0902 0.0902 0.0902
      ambientIntensity 0.2
      transparency 0.0000
      shininess 0.5
    }
  }
  geometry IndexedFaceSet {
    ccw TRUE
    solid FALSE
    coord DEF co Coordinate {
      point [
        -0.019840 -0.376669 0.000000,
        -0.223660 -0.376669 0.000000,
        -0.223660 -0.003121 0.000000,
        -0.014540 0.050634 0.000000,
        0.013474 0.050634 0.000000,
        0.013474 0.032463 0.000000,
        -0.014540 0.032463 0.000000,
        -0.014540 0.026406 0.000000,
        -0.019840 -0.003121 0.000000,
        -0.014540 0.056691 0.000000,
        -0.019840 0.376669 0.000000,
        0.018773 0.056691 0.000000,
        0.123256 0.056691 0.000000,
        0.223660 -0.003121 0.000000,
        0.123256 -0.002364 0.000000,
        0.060799 -0.003121 0.000000,
        0.095242 -0.002364 0.000000,
        0.069958 -0.001477 0.000000,
        0.075705 0.001663 0.000000,
        0.117956 0.056691 0.000000,
        0.223660 0.376669 0.000000,
        0.048933 -0.003094 0.000000,
        0.049126 -0.003121 0.000000,
        0.018773 -0.002364 0.000000,
        0.079068 0.004456 0.000000,
        0.080940 0.006449 0.000000,
        0.095242 0.003693 0.000000,
        0.086629 0.016278 0.000000,
        0.088428 0.027506 0.000000,
        0.117956 0.003693 0.000000,
        0.013474 0.026406 0.000000,
        0.013474 0.003693 0.000000,
        -0.014540 0.003693 0.000000,
        -0.014540 -0.002364 0.000000,
        0.070076 0.048910 0.000000,
        0.079223 0.040663 0.000000,
        0.056984 0.052148 0.000000,
        0.083033 0.029484 0.000000,
        0.083128 0.027104 0.000000,
        0.080069 0.014934 0.000000,
        0.071927 0.006402 0.000000,
        0.060337 0.002372 0.000000,
        0.084625 0.042595 0.000000,
        0.074525 0.053242 0.000000,
        0.059264 0.058112 0.000000,
        0.030887 0.008507 0.000000,
        0.030887 0.045855 0.000000,
        0.035524 0.012021 0.000000,
        0.035524 0.042306 0.000000,
        0.044947 0.004680 0.000000,
        0.045097 0.049716 0.000000,
        0.056617 0.002178 0.000000,
        0.050670 0.051517 0.000000,
        0.054541 0.052055 0.000000,
        0.056653 0.058205 0.000000,
        0.042241 0.055171 0.000000,
        0.036193 0.051431 0.000000,
        0.032746 0.048169 0.000000,
        0.042213 -0.000812 0.000000,
        0.053622 -0.003770 0.000000,
        0.223660 -0.376669 0.000000,
        0.056582 -0.003879 0.000000,
        -0.131431 -0.002364 0.000000,
        -0.081166 -0.002364 0.000000,
        -0.061708 0.001768 0.000000,
        -0.049819 -0.002038 0.000000,
        -0.055803 0.054561 0.000000,
        -0.066445 0.047401 0.000000,
        -0.109180 0.056691 0.000000,
        -0.043441 -0.002364 0.000000,
        -0.086951 -0.002364 0.000000,
        -0.095930 0.016564 0.000000,
        -0.122701 0.016564 0.000000,
        -0.046524 0.056330 0.000000,
        -0.223660 0.376669 0.000000,
        -0.109937 0.056691 0.000000,
        -0.137193 -0.002364 0.000000,
        -0.072486 0.035709 0.000000,
        -0.073595 0.026418 0.000000,
        -0.070264 0.011563 0.000000,
        -0.025139 -0.002364 0.000000,
        -0.025139 0.056691 0.000000,
        -0.037064 0.056691 0.000000,
        0.246063 -0.305118 0.196850,
        0.246063 -0.305118 0.236220,
        0.246063 -0.393701 0.196850,
        0.246063 -0.393701 0.236220,
        0.246063 0.206693 0.196850,
        0.246063 0.206693 0.236220,
        0.246063 -0.206693 0.196850,
        0.246063 -0.206693 0.236220,
        -0.246063 -0.049213 0.236220,
        -0.246063 -0.049213 0.196850,
        -0.246063 -0.393701 0.236220,
        -0.246063 -0.393701 0.196850,
        0.246063 0.393701 0.196850,
        0.246063 0.393701 0.236220,
        0.246063 0.305118 0.196850,
        0.246063 0.305118 0.236220,
        -0.246063 0.393701 0.236220,
        -0.246063 0.393701 0.196850,
        -0.246063 0.049213 0.236220,
        -0.246063 0.049213 0.196850,
        0.223660 0.376669 0.393701,
        -0.223660 0.376669 0.393701,
        0.223660 -0.376669 0.393701,
        -0.223660 -0.376669 0.393701,
      ]
    }
    coordIndex [
      0, 1, 2, -1,
      3, 4, 5, -1,
      6, 7, 8, -1,
      5, 6, 3, -1,
      3, 6, 8, -1,
      3, 8, 9, -1,
      9, 8, 10, -1,
      9, 10, 11, -1,
      12, 13, 14, -1,
      14, 13, 15, -1,
      14, 15, 16, -1,
      16, 15, 17, -1,
      16, 17, 18, -1,
      19, 10, 12, -1,
      12, 10, 20, -1,
      12, 20, 13, -1,
      21, 22, 23, -1,
      23, 22, 8, -1,
      18, 24, 16, -1,
      16, 24, 25, -1,
      16, 25, 26, -1,
      25, 27, 26, -1,
      26, 27, 28, -1,
      26, 28, 29, -1,
      30, 31, 7, -1,
      7, 31, 32, -1,
      7, 32, 8, -1,
      8, 32, 33, -1,
      8, 33, 23, -1,
      34, 35, 36, -1,
      36, 35, 37, -1,
      36, 37, 38, -1,
      38, 39, 36, -1,
      36, 39, 40, -1,
      36, 40, 41, -1,
      29, 28, 19, -1,
      19, 28, 42, -1,
      19, 42, 10, -1,
      10, 42, 43, -1,
      10, 43, 44, -1,
      45, 46, 47, -1,
      47, 46, 48, -1,
      47, 48, 49, -1,
      49, 48, 50, -1,
      49, 50, 51, -1,
      51, 50, 52, -1,
      51, 52, 41, -1,
      41, 52, 53, -1,
      41, 53, 36, -1,
      44, 54, 10, -1,
      10, 54, 55, -1,
      10, 55, 56, -1,
      56, 57, 10, -1,
      10, 57, 46, -1,
      10, 46, 11, -1,
      11, 46, 45, -1,
      11, 45, 23, -1,
      23, 45, 58, -1,
      23, 58, 21, -1,
      22, 59, 0, -1,
      13, 60, 15, -1,
      15, 60, 0, -1,
      15, 0, 61, -1,
      61, 0, 59, -1,
      22, 0, 8, -1,
      8, 0, 2, -1,
      8, 2, 62, -1,
      63, 64, 65, -1,
      66, 67, 68, -1,
      65, 69, 63, -1,
      63, 69, 8, -1,
      63, 8, 70, -1,
      70, 8, 62, -1,
      70, 62, 71, -1,
      71, 62, 72, -1,
      73, 66, 10, -1,
      10, 66, 68, -1,
      10, 68, 74, -1,
      74, 68, 75, -1,
      74, 75, 2, -1,
      2, 75, 76, -1,
      2, 76, 62, -1,
      67, 77, 68, -1,
      68, 77, 78, -1,
      68, 78, 63, -1,
      63, 78, 79, -1,
      63, 79, 64, -1,
      69, 80, 8, -1,
      8, 80, 81, -1,
      8, 81, 10, -1,
      10, 81, 82, -1,
      10, 82, 73, -1,
      83, 84, 85, -1,
      85, 84, 86, -1,
      87, 88, 89, -1,
      89, 88, 90, -1,
      91, 92, 93, -1,
      93, 92, 94, -1,
      95, 96, 97, -1,
      97, 96, 98, -1,
      99, 100, 101, -1,
      101, 100, 102, -1,
      100, 99, 95, -1,
      95, 99, 96, -1,
      93, 94, 86, -1,
      86, 94, 85, -1,
      103, 104, 105, -1,
      105, 104, 106, -1,
    ]
  }
}

Shape {
  appearance Appearance {
    material Material {
      diffuseColor 0.7529 0.7529 0.7529
      specularColor 0.3765 0.3765 0.3765
      ambientIntensity 0.2
      transparency 0.0000
      shininess 0.5
    }
  }
  geometry IndexedFaceSet {
    ccw TRUE
    solid FALSE
    coord DEF co Coordinate {
      point [
        0.246063 -0.305118 0.196850,
        0.246063 -0.305118 0.236220,
        0.246063 0.206693 0.196850,
        0.246063 0.206693 0.236220,
        0.246063 -0.206693 0.196850,
        0.246063 -0.206693 0.236220,
        -0.246063 -0.049213 0.236220,
        -0.246063 -0.049213 0.196850,
        0.246063 0.305118 0.196850,
        0.246063 0.305118 0.236220,
        -0.246063 0.049213 0.236220,
        -0.246063 0.049213 0.196850,
        -0.270415 0.049213 0.196850,
        -0.270415 -0.049213 0.196850,
        -0.289015 0.049213 0.192180,
        -0.289015 -0.049213 0.192180,
        -0.303202 0.049213 0.179275,
        -0.303202 -0.049213 0.179275,
        -0.309609 0.049213 0.161199,
        -0.309609 -0.049213 0.161199,
        -0.323389 0.049213 0.015966,
        -0.323389 -0.049213 0.015966,
        -0.329796 -0.049213 -0.002110,
        -0.329796 0.049213 -0.002110,
        -0.343983 -0.049213 -0.015014,
        -0.343983 0.049213 -0.015014,
        -0.362583 -0.049213 -0.019685,
        -0.362583 0.049213 -0.019685,
        -0.452756 0.049213 -0.019685,
        -0.452756 -0.049213 -0.019685,
        -0.452756 0.049213 0.019685,
        -0.452756 -0.049213 0.019685,
        -0.398394 0.049213 0.019685,
        -0.398394 -0.049213 0.019685,
        -0.379794 0.049213 0.024356,
        -0.379794 -0.049213 0.024356,
        -0.365607 0.049213 0.037260,
        -0.365607 -0.049213 0.037260,
        -0.359200 0.049213 0.055336,
        -0.359200 -0.049213 0.055336,
        -0.345420 0.049213 0.200569,
        -0.345420 -0.049213 0.200569,
        -0.339013 -0.049213 0.218645,
        -0.339013 0.049213 0.218645,
        -0.324826 -0.049213 0.231550,
        -0.324826 0.049213 0.231550,
        -0.306226 -0.049213 0.236220,
        -0.306226 0.049213 0.236220,
        0.306226 0.305118 0.236220,
        0.306226 0.206693 0.236220,
        0.324826 0.206693 0.231550,
        0.324826 0.305118 0.231550,
        0.339013 0.206693 0.218645,
        0.339013 0.305118 0.218645,
        0.345420 0.206693 0.200569,
        0.345420 0.305118 0.200569,
        0.359200 0.305118 0.055336,
        0.359200 0.206693 0.055336,
        0.365607 0.305118 0.037260,
        0.365607 0.206693 0.037260,
        0.379794 0.305118 0.024356,
        0.379794 0.206693 0.024356,
        0.398394 0.305118 0.019685,
        0.398394 0.206693 0.019685,
        0.452756 0.305118 0.019685,
        0.452756 0.206693 0.019685,
        0.452756 0.305118 -0.019685,
        0.452756 0.206693 -0.019685,
        0.362583 0.305118 -0.019685,
        0.362583 0.206693 -0.019685,
        0.343983 0.206693 -0.015014,
        0.343983 0.305118 -0.015014,
        0.329796 0.206693 -0.002110,
        0.329796 0.305118 -0.002110,
        0.323389 0.206693 0.015966,
        0.323389 0.305118 0.015966,
        0.309609 0.305118 0.161199,
        0.309609 0.206693 0.161199,
        0.303202 0.305118 0.179275,
        0.303202 0.206693 0.179275,
        0.289015 0.305118 0.192180,
        0.289015 0.206693 0.192180,
        0.270415 0.305118 0.196850,
        0.270415 0.206693 0.196850,
        0.345420 -0.305118 0.200569,
        0.345420 -0.206693 0.200569,
        0.339013 -0.206693 0.218645,
        0.339013 -0.305118 0.218645,
        0.324826 -0.206693 0.231550,
        0.324826 -0.305118 0.231550,
        0.306226 -0.206693 0.236220,
        0.306226 -0.305118 0.236220,
        0.270415 -0.305118 0.196850,
        0.270415 -0.206693 0.196850,
        0.289015 -0.305118 0.192180,
        0.289015 -0.206693 0.192180,
        0.303202 -0.305118 0.179275,
        0.303202 -0.206693 0.179275,
        0.309609 -0.305118 0.161199,
        0.309609 -0.206693 0.161199,
        0.323389 -0.305118 0.015966,
        0.323389 -0.206693 0.015966,
        0.329796 -0.206693 -0.002110,
        0.329796 -0.305118 -0.002110,
        0.343983 -0.206693 -0.015014,
        0.343983 -0.305118 -0.015014,
        0.362583 -0.206693 -0.019685,
        0.362583 -0.305118 -0.019685,
        0.452756 -0.305118 -0.019685,
        0.452756 -0.206693 -0.019685,
        0.452756 -0.305118 0.019685,
        0.452756 -0.206693 0.019685,
        0.398394 -0.305118 0.019685,
        0.398394 -0.206693 0.019685,
        0.379794 -0.305118 0.024356,
        0.379794 -0.206693 0.024356,
        0.365607 -0.305118 0.037260,
        0.365607 -0.206693 0.037260,
        0.359200 -0.305118 0.055336,
        0.359200 -0.206693 0.055336,
      ]
    }
    coordIndex [
      12, 11, 13, -1,
      13, 11, 7, -1,
      12, 13, 14, -1,
      14, 13, 15, -1,
      14, 15, 16, -1,
      16, 15, 17, -1,
      16, 17, 18, -1,
      18, 17, 19, -1,
      20, 18, 21, -1,
      21, 18, 19, -1,
      20, 21, 22, -1,
      20, 22, 23, -1,
      23, 22, 24, -1,
      23, 24, 25, -1,
      25, 24, 26, -1,
      25, 26, 27, -1,
      28, 27, 29, -1,
      29, 27, 26, -1,
      30, 28, 31, -1,
      31, 28, 29, -1,
      32, 30, 33, -1,
      33, 30, 31, -1,
      32, 33, 34, -1,
      34, 33, 35, -1,
      34, 35, 36, -1,
      36, 35, 37, -1,
      36, 37, 38, -1,
      38, 37, 39, -1,
      40, 38, 41, -1,
      41, 38, 39, -1,
      40, 41, 42, -1,
      40, 42, 43, -1,
      43, 42, 44, -1,
      43, 44, 45, -1,
      45, 44, 46, -1,
      45, 46, 47, -1,
      10, 47, 6, -1,
      6, 47, 46, -1,
      47, 10, 11, -1,
      27, 28, 30, -1,
      43, 45, 47, -1,
      23, 25, 27, -1,
      40, 43, 14, -1,
      14, 43, 47, -1,
      14, 47, 12, -1,
      12, 47, 11, -1,
      20, 23, 34, -1,
      34, 23, 27, -1,
      34, 27, 32, -1,
      32, 27, 30, -1,
      34, 36, 20, -1,
      20, 36, 38, -1,
      20, 38, 18, -1,
      18, 38, 40, -1,
      18, 40, 16, -1,
      16, 40, 14, -1,
      31, 29, 33, -1,
      33, 29, 26, -1,
      33, 26, 35, -1,
      21, 19, 41, -1,
      41, 19, 17, -1,
      41, 17, 42, -1,
      42, 17, 15, -1,
      7, 6, 13, -1,
      13, 6, 46, -1,
      13, 46, 15, -1,
      15, 46, 44, -1,
      15, 44, 42, -1,
      26, 24, 35, -1,
      35, 24, 22, -1,
      35, 22, 37, -1,
      37, 22, 21, -1,
      37, 21, 39, -1,
      39, 21, 41, -1,
      48, 49, 50, -1,
      48, 50, 51, -1,
      51, 50, 52, -1,
      51, 52, 53, -1,
      53, 52, 54, -1,
      53, 54, 55, -1,
      56, 55, 57, -1,
      57, 55, 54, -1,
      56, 57, 58, -1,
      58, 57, 59, -1,
      58, 59, 60, -1,
      60, 59, 61, -1,
      60, 61, 62, -1,
      62, 61, 63, -1,
      64, 62, 65, -1,
      65, 62, 63, -1,
      66, 64, 67, -1,
      67, 64, 65, -1,
      68, 66, 69, -1,
      69, 66, 67, -1,
      68, 69, 70, -1,
      68, 70, 71, -1,
      71, 70, 72, -1,
      71, 72, 73, -1,
      73, 72, 74, -1,
      73, 74, 75, -1,
      76, 75, 77, -1,
      77, 75, 74, -1,
      76, 77, 78, -1,
      78, 77, 79, -1,
      78, 79, 80, -1,
      80, 79, 81, -1,
      80, 81, 82, -1,
      82, 81, 83, -1,
      8, 82, 2, -1,
      2, 82, 83, -1,
      48, 9, 49, -1,
      49, 9, 3, -1,
      64, 66, 62, -1,
      62, 66, 68, -1,
      62, 68, 60, -1,
      68, 71, 60, -1,
      60, 71, 73, -1,
      60, 73, 58, -1,
      58, 73, 75, -1,
      58, 75, 56, -1,
      53, 55, 51, -1,
      51, 55, 78, -1,
      51, 78, 48, -1,
      8, 9, 82, -1,
      82, 9, 48, -1,
      82, 48, 80, -1,
      80, 48, 78, -1,
      56, 75, 55, -1,
      55, 75, 76, -1,
      55, 76, 78, -1,
      49, 3, 2, -1,
      69, 67, 65, -1,
      72, 70, 69, -1,
      2, 83, 49, -1,
      49, 83, 81, -1,
      49, 81, 50, -1,
      50, 81, 79, -1,
      74, 72, 61, -1,
      61, 72, 69, -1,
      61, 69, 63, -1,
      63, 69, 65, -1,
      61, 59, 74, -1,
      74, 59, 57, -1,
      74, 57, 77, -1,
      77, 57, 54, -1,
      77, 54, 79, -1,
      79, 54, 52, -1,
      79, 52, 50, -1,
      84, 85, 86, -1,
      84, 86, 87, -1,
      87, 86, 88, -1,
      87, 88, 89, -1,
      89, 88, 90, -1,
      89, 90, 91, -1,
      1, 91, 5, -1,
      5, 91, 90, -1,
      92, 0, 93, -1,
      93, 0, 4, -1,
      92, 93, 94, -1,
      94, 93, 95, -1,
      94, 95, 96, -1,
      96, 95, 97, -1,
      96, 97, 98, -1,
      98, 97, 99, -1,
      100, 98, 101, -1,
      101, 98, 99, -1,
      100, 101, 102, -1,
      100, 102, 103, -1,
      103, 102, 104, -1,
      103, 104, 105, -1,
      105, 104, 106, -1,
      105, 106, 107, -1,
      108, 107, 109, -1,
      109, 107, 106, -1,
      110, 108, 111, -1,
      111, 108, 109, -1,
      112, 110, 113, -1,
      113, 110, 111, -1,
      112, 113, 114, -1,
      114, 113, 115, -1,
      114, 115, 116, -1,
      116, 115, 117, -1,
      116, 117, 118, -1,
      118, 117, 119, -1,
      84, 118, 85, -1,
      85, 118, 119, -1,
      91, 1, 0, -1,
      107, 108, 110, -1,
      103, 105, 107, -1,
      0, 92, 91, -1,
      91, 92, 94, -1,
      91, 94, 89, -1,
      89, 94, 96, -1,
      100, 103, 114, -1,
      114, 103, 107, -1,
      114, 107, 112, -1,
      112, 107, 110, -1,
      114, 116, 100, -1,
      100, 116, 118, -1,
      100, 118, 98, -1,
      98, 118, 84, -1,
      98, 84, 96, -1,
      96, 84, 87, -1,
      96, 87, 89, -1,
      119, 117, 101, -1,
      111, 109, 113, -1,
      113, 109, 106, -1,
      102, 101, 104, -1,
      104, 101, 117, -1,
      104, 117, 106, -1,
      106, 117, 115, -1,
      106, 115, 113, -1,
      86, 85, 88, -1,
      88, 85, 97, -1,
      88, 97, 90, -1,
      4, 5, 93, -1,
      93, 5, 90, -1,
      93, 90, 95, -1,
      95, 90, 97, -1,
      119, 101, 85, -1,
      85, 101, 99, -1,
      85, 99, 97, -1,
    ]
  }
}

Shape {
  appearance Appearance {
    material Material {
      diffuseColor 0.1804 0.1804 0.1804
      specularColor 0.0902 0.0902 0.0902
      ambientIntensity 0.2
      transparency 0.0000
      shininess 0.5
    }
  }
  geometry IndexedFaceSet {
    ccw TRUE
    solid FALSE
    coord DEF co Coordinate {
      point [
        -0.019840 -0.376669 0.000000,
        -0.223660 -0.376669 0.000000,
        -0.223660 -0.003121 0.000000,
        -0.019840 0.376669 0.000000,
        0.223660 -0.003121 0.000000,
        0.223660 0.376669 0.000000,
        0.223660 -0.376669 0.000000,
        -0.223660 0.376669 0.000000,
        0.246063 -0.305118 0.196850,
        0.246063 -0.305118 0.236220,
        0.246063 -0.393701 0.196850,
        0.246063 -0.393701 0.236220,
        0.246063 0.206693 0.196850,
        0.246063 0.206693 0.236220,
        0.246063 -0.206693 0.196850,
        0.246063 -0.206693 0.236220,
        -0.246063 -0.049213 0.236220,
        -0.246063 -0.049213 0.196850,
        -0.246063 -0.393701 0.236220,
        -0.246063 -0.393701 0.196850,
        0.246063 0.393701 0.196850,
        0.246063 0.393701 0.236220,
        0.246063 0.305118 0.196850,
        0.246063 0.305118 0.236220,
        -0.246063 0.393701 0.236220,
        -0.246063 0.393701 0.196850,
        -0.246063 0.049213 0.236220,
        -0.246063 0.049213 0.196850,
        0.223660 0.376669 0.393701,
        -0.223660 0.376669 0.393701,
        0.223660 -0.376669 0.393701,
        -0.223660 -0.376669 0.393701,
      ]
    }
    coordIndex [
      20, 22, 5, -1,
      5, 22, 12, -1,
      5, 12, 4, -1,
      4, 12, 14, -1,
      4, 14, 6, -1,
      6, 14, 8, -1,
      6, 8, 10, -1,
      23, 21, 28, -1,
      11, 9, 30, -1,
      30, 9, 15, -1,
      30, 15, 28, -1,
      28, 15, 13, -1,
      28, 13, 23, -1,
      29, 24, 26, -1,
      29, 26, 31, -1,
      31, 26, 16, -1,
      31, 16, 18, -1,
      2, 1, 19, -1,
      25, 7, 27, -1,
      27, 7, 2, -1,
      27, 2, 17, -1,
      17, 2, 19, -1,
      20, 5, 25, -1,
      25, 5, 3, -1,
      25, 3, 7, -1,
      6, 10, 0, -1,
      0, 10, 19, -1,
      0, 19, 1, -1,
      29, 28, 24, -1,
      24, 28, 21, -1,
      18, 11, 31, -1,
      31, 11, 30, -1,
    ]
  }
}

Shape {
  appearance Appearance {
    material Material {
      diffuseColor 0.7529 0.7529 0.7529
      specularColor 0.3765 0.3765 0.3765
      ambientIntensity 0.2
      transparency 0.0000
      shininess 0.5
    }
  }
  geometry IndexedFaceSet {
    ccw TRUE
    solid FALSE
    coord DEF co Coordinate {
      point [
        -0.014540 0.050634 0.000000,
        0.013474 0.050634 0.000000,
        0.013474 0.032463 0.000000,
        -0.014540 0.032463 0.000000,
        -0.014540 0.026406 0.000000,
        -0.014540 0.056691 0.000000,
        0.018773 0.056691 0.000000,
        0.123256 0.056691 0.000000,
        0.123256 -0.002364 0.000000,
        0.060799 -0.003121 0.000000,
        0.095242 -0.002364 0.000000,
        0.069958 -0.001477 0.000000,
        0.075705 0.001663 0.000000,
        0.117956 0.056691 0.000000,
        0.048933 -0.003094 0.000000,
        0.049126 -0.003121 0.000000,
        0.018773 -0.002364 0.000000,
        0.079068 0.004456 0.000000,
        0.080940 0.006449 0.000000,
        0.095242 0.003693 0.000000,
        0.086629 0.016278 0.000000,
        0.088428 0.027506 0.000000,
        0.117956 0.003693 0.000000,
        0.013474 0.026406 0.000000,
        0.013474 0.003693 0.000000,
        -0.014540 0.003693 0.000000,
        -0.014540 -0.002364 0.000000,
        0.070076 0.048910 0.000000,
        0.079223 0.040663 0.000000,
        0.056984 0.052148 0.000000,
        0.083033 0.029484 0.000000,
        0.083128 0.027104 0.000000,
        0.080069 0.014934 0.000000,
        0.071927 0.006402 0.000000,
        0.060337 0.002372 0.000000,
        0.084625 0.042595 0.000000,
        0.074525 0.053242 0.000000,
        0.059264 0.058112 0.000000,
        0.030887 0.008507 0.000000,
        0.030887 0.045855 0.000000,
        0.035524 0.012021 0.000000,
        0.035524 0.042306 0.000000,
        0.044947 0.004680 0.000000,
        0.045097 0.049716 0.000000,
        0.056617 0.002178 0.000000,
        0.050670 0.051517 0.000000,
        0.054541 0.052055 0.000000,
        0.056653 0.058205 0.000000,
        0.042241 0.055171 0.000000,
        0.036193 0.051431 0.000000,
        0.032746 0.048169 0.000000,
        0.042213 -0.000812 0.000000,
        0.053622 -0.003770 0.000000,
        0.056582 -0.003879 0.000000,
        -0.131431 -0.002364 0.000000,
        -0.081166 -0.002364 0.000000,
        -0.061708 0.001768 0.000000,
        -0.049819 -0.002038 0.000000,
        -0.055803 0.054561 0.000000,
        -0.066445 0.047401 0.000000,
        -0.109180 0.056691 0.000000,
        -0.043441 -0.002364 0.000000,
        -0.086951 -0.002364 0.000000,
        -0.095930 0.016564 0.000000,
        -0.122701 0.016564 0.000000,
        -0.046524 0.056330 0.000000,
        -0.109937 0.056691 0.000000,
        -0.137193 -0.002364 0.000000,
        -0.072486 0.035709 0.000000,
        -0.073595 0.026418 0.000000,
        -0.070264 0.011563 0.000000,
        -0.025139 -0.002364 0.000000,
        -0.025139 0.056691 0.000000,
        -0.037064 0.056691 0.000000,
        -0.109180 0.056691 0.039370,
        -0.109937 0.056691 0.039370,
        -0.137193 -0.002364 0.039370,
        -0.131431 -0.002364 0.039370,
        -0.122701 0.016564 0.039370,
        -0.095930 0.016564 0.039370,
        -0.086951 -0.002364 0.039370,
        -0.081166 -0.002364 0.039370,
        -0.119909 0.022620 0.039370,
        -0.098805 0.022620 0.039370,
        -0.109499 0.045180 0.039370,
        -0.119909 0.022620 -0.000000,
        -0.109499 0.045180 -0.000000,
        -0.098805 0.022620 0.000000,
        -0.043441 -0.002364 0.039370,
        -0.025139 -0.002364 0.039370,
        -0.025139 0.056691 0.039370,
        -0.037064 0.056691 0.039370,
        -0.055803 0.054561 0.039370,
        -0.046524 0.056330 0.039370,
        -0.073595 0.026418 0.039370,
        -0.072486 0.035709 0.039370,
        -0.066445 0.047401 0.039370,
        -0.049819 -0.002038 0.039370,
        -0.061708 0.001768 0.039370,
        -0.070264 0.011563 0.039370,
        -0.067360 0.019077 0.039370,
        -0.062537 0.010432 0.039370,
        -0.054099 0.005195 0.039370,
        -0.045713 0.003931 0.039370,
        -0.037218 0.003693 0.039370,
        -0.030439 0.003693 0.039370,
        -0.030439 0.050634 0.039370,
        -0.034592 0.050634 0.039370,
        -0.043723 0.050356 0.039370,
        -0.052739 0.048978 0.039370,
        -0.059270 0.045830 0.039370,
        -0.065709 0.038223 0.039370,
        -0.068295 0.026430 0.039370,
        -0.030439 0.050634 0.000000,
        -0.030439 0.003693 0.000000,
        -0.034592 0.050634 0.000000,
        -0.043723 0.050356 0.000000,
        -0.052739 0.048978 0.000000,
        -0.059270 0.045830 -0.000000,
        -0.065709 0.038223 -0.000000,
        -0.068295 0.026430 -0.000000,
        -0.067360 0.019077 -0.000000,
        -0.062537 0.010432 -0.000000,
        -0.054099 0.005195 -0.000000,
        -0.045713 0.003931 0.000000,
        -0.037218 0.003693 0.000000,
        0.018773 -0.002364 0.039370,
        0.018773 0.056691 0.039370,
        -0.014540 0.056691 0.039370,
        -0.014540 0.050634 0.039370,
        0.013474 0.050634 0.039370,
        0.013474 0.032463 0.039370,
        -0.014540 0.032463 0.039370,
        -0.014540 0.026406 0.039370,
        0.013474 0.026406 0.039370,
        0.013474 0.003693 0.039370,
        -0.014540 0.003693 0.039370,
        -0.014540 -0.002364 0.039370,
        0.030887 0.045855 0.039370,
        0.032746 0.048169 0.039370,
        0.036193 0.051431 0.039370,
        0.042241 0.055171 0.039370,
        0.056653 0.058205 0.039370,
        0.035524 0.042306 0.039370,
        0.056984 0.052148 0.039370,
        0.054541 0.052055 0.039370,
        0.050670 0.051517 0.039370,
        0.045097 0.049716 0.039370,
        0.083128 0.027104 0.039370,
        0.083033 0.029484 0.039370,
        0.079223 0.040663 0.039370,
        0.070076 0.048910 0.039370,
        0.056617 0.002178 0.039370,
        0.060337 0.002372 0.039370,
        0.071927 0.006402 0.039370,
        0.080069 0.014934 0.039370,
        0.035524 0.012021 0.039370,
        0.044947 0.004680 0.039370,
        0.030887 0.008507 0.039370,
        0.056582 -0.003879 0.039370,
        0.053622 -0.003770 0.039370,
        0.048933 -0.003094 0.039370,
        0.042213 -0.000812 0.039370,
        0.069958 -0.001477 0.039370,
        0.075705 0.001663 0.039370,
        0.079068 0.004456 0.039370,
        0.080940 0.006449 0.039370,
        0.088428 0.027506 0.039370,
        0.086629 0.016278 0.039370,
        0.059264 0.058112 0.039370,
        0.074525 0.053242 0.039370,
        0.084625 0.042595 0.039370,
        0.123256 -0.002364 0.039370,
        0.123256 0.056691 0.039370,
        0.117956 0.056691 0.039370,
        0.117956 0.003693 0.039370,
        0.095242 0.003693 0.039370,
        0.095242 -0.002364 0.039370,
      ]
    }
    coordIndex [
      74, 75, 60, -1,
      60, 75, 66, -1,
      75, 76, 66, -1,
      66, 76, 67, -1,
      76, 77, 67, -1,
      67, 77, 54, -1,
      77, 78, 54, -1,
      54, 78, 64, -1,
      78, 79, 64, -1,
      64, 79, 63, -1,
      79, 80, 63, -1,
      63, 80, 62, -1,
      80, 81, 62, -1,
      62, 81, 55, -1,
      81, 74, 55, -1,
      55, 74, 60, -1,
      82, 76, 75, -1,
      74, 83, 75, -1,
      75, 83, 84, -1,
      75, 84, 82, -1,
      81, 80, 79, -1,
      77, 76, 78, -1,
      78, 76, 82, -1,
      78, 82, 79, -1,
      79, 82, 83, -1,
      79, 83, 81, -1,
      81, 83, 74, -1,
      82, 84, 85, -1,
      85, 84, 86, -1,
      83, 82, 87, -1,
      87, 82, 85, -1,
      84, 83, 86, -1,
      86, 83, 87, -1,
      88, 89, 61, -1,
      61, 89, 71, -1,
      89, 90, 71, -1,
      71, 90, 72, -1,
      90, 91, 72, -1,
      72, 91, 73, -1,
      92, 58, 65, -1,
      92, 65, 93, -1,
      93, 65, 73, -1,
      93, 73, 91, -1,
      94, 69, 68, -1,
      94, 68, 95, -1,
      95, 68, 59, -1,
      95, 59, 96, -1,
      96, 59, 58, -1,
      96, 58, 92, -1,
      88, 61, 57, -1,
      88, 57, 97, -1,
      97, 57, 56, -1,
      97, 56, 98, -1,
      98, 56, 70, -1,
      98, 70, 99, -1,
      99, 70, 69, -1,
      99, 69, 94, -1,
      100, 101, 98, -1,
      98, 101, 102, -1,
      98, 102, 97, -1,
      97, 102, 103, -1,
      97, 103, 88, -1,
      88, 103, 104, -1,
      88, 104, 89, -1,
      89, 104, 105, -1,
      89, 105, 90, -1,
      90, 105, 106, -1,
      90, 106, 91, -1,
      91, 106, 107, -1,
      91, 107, 93, -1,
      93, 107, 108, -1,
      93, 108, 92, -1,
      92, 108, 109, -1,
      92, 109, 96, -1,
      96, 109, 110, -1,
      96, 110, 95, -1,
      95, 110, 111, -1,
      95, 111, 94, -1,
      94, 111, 112, -1,
      94, 112, 99, -1,
      99, 112, 100, -1,
      99, 100, 98, -1,
      106, 105, 113, -1,
      113, 105, 114, -1,
      107, 106, 115, -1,
      115, 106, 113, -1,
      107, 115, 116, -1,
      107, 116, 108, -1,
      108, 116, 117, -1,
      108, 117, 109, -1,
      109, 117, 118, -1,
      109, 118, 110, -1,
      110, 118, 119, -1,
      110, 119, 111, -1,
      111, 119, 120, -1,
      111, 120, 112, -1,
      112, 120, 121, -1,
      112, 121, 100, -1,
      100, 121, 122, -1,
      100, 122, 101, -1,
      101, 122, 123, -1,
      101, 123, 102, -1,
      102, 123, 124, -1,
      102, 124, 103, -1,
      103, 124, 125, -1,
      103, 125, 104, -1,
      105, 104, 114, -1,
      114, 104, 125, -1,
      126, 127, 16, -1,
      16, 127, 6, -1,
      127, 128, 6, -1,
      6, 128, 5, -1,
      128, 129, 5, -1,
      5, 129, 0, -1,
      129, 130, 0, -1,
      0, 130, 1, -1,
      130, 131, 1, -1,
      1, 131, 2, -1,
      131, 132, 2, -1,
      2, 132, 3, -1,
      132, 133, 3, -1,
      3, 133, 4, -1,
      133, 134, 4, -1,
      4, 134, 23, -1,
      134, 135, 23, -1,
      23, 135, 24, -1,
      135, 136, 24, -1,
      24, 136, 25, -1,
      136, 137, 25, -1,
      25, 137, 26, -1,
      137, 126, 26, -1,
      26, 126, 16, -1,
      126, 137, 136, -1,
      136, 135, 126, -1,
      126, 135, 134, -1,
      126, 134, 127, -1,
      129, 128, 130, -1,
      130, 128, 127, -1,
      130, 127, 131, -1,
      131, 127, 134, -1,
      131, 134, 132, -1,
      132, 134, 133, -1,
      138, 39, 50, -1,
      138, 50, 139, -1,
      139, 50, 49, -1,
      139, 49, 140, -1,
      140, 49, 48, -1,
      140, 48, 141, -1,
      141, 48, 47, -1,
      141, 47, 142, -1,
      138, 143, 39, -1,
      39, 143, 41, -1,
      144, 29, 46, -1,
      144, 46, 145, -1,
      145, 46, 45, -1,
      145, 45, 146, -1,
      146, 45, 43, -1,
      146, 43, 147, -1,
      147, 43, 41, -1,
      147, 41, 143, -1,
      148, 31, 30, -1,
      148, 30, 149, -1,
      149, 30, 28, -1,
      149, 28, 150, -1,
      150, 28, 27, -1,
      150, 27, 151, -1,
      151, 27, 29, -1,
      151, 29, 144, -1,
      152, 44, 34, -1,
      152, 34, 153, -1,
      153, 34, 33, -1,
      153, 33, 154, -1,
      154, 33, 32, -1,
      154, 32, 155, -1,
      155, 32, 31, -1,
      155, 31, 148, -1,
      156, 40, 42, -1,
      156, 42, 157, -1,
      157, 42, 44, -1,
      157, 44, 152, -1,
      156, 158, 40, -1,
      40, 158, 38, -1,
      159, 53, 52, -1,
      159, 52, 160, -1,
      160, 52, 15, -1,
      160, 15, 161, -1,
      15, 14, 161, -1,
      161, 14, 51, -1,
      161, 51, 162, -1,
      162, 51, 38, -1,
      162, 38, 158, -1,
      53, 159, 9, -1,
      9, 159, 163, -1,
      9, 163, 11, -1,
      11, 163, 164, -1,
      11, 164, 12, -1,
      12, 164, 165, -1,
      12, 165, 17, -1,
      17, 165, 166, -1,
      17, 166, 18, -1,
      167, 21, 20, -1,
      167, 20, 168, -1,
      168, 20, 18, -1,
      168, 18, 166, -1,
      142, 47, 37, -1,
      142, 37, 169, -1,
      169, 37, 36, -1,
      169, 36, 170, -1,
      170, 36, 35, -1,
      170, 35, 171, -1,
      171, 35, 21, -1,
      171, 21, 167, -1,
      158, 156, 162, -1,
      162, 156, 157, -1,
      167, 168, 155, -1,
      155, 168, 154, -1,
      154, 168, 166, -1,
      154, 166, 165, -1,
      143, 138, 139, -1,
      143, 139, 147, -1,
      147, 139, 140, -1,
      147, 140, 141, -1,
      165, 164, 154, -1,
      154, 164, 163, -1,
      154, 163, 153, -1,
      153, 163, 159, -1,
      153, 159, 152, -1,
      152, 159, 160, -1,
      152, 160, 157, -1,
      157, 160, 161, -1,
      157, 161, 162, -1,
      155, 148, 167, -1,
      167, 148, 149, -1,
      167, 149, 171, -1,
      171, 149, 150, -1,
      171, 150, 170, -1,
      170, 150, 151, -1,
      170, 151, 169, -1,
      169, 151, 144, -1,
      169, 144, 142, -1,
      142, 144, 145, -1,
      142, 145, 141, -1,
      141, 145, 146, -1,
      141, 146, 147, -1,
      172, 173, 8, -1,
      8, 173, 7, -1,
      173, 174, 7, -1,
      7, 174, 13, -1,
      174, 175, 13, -1,
      13, 175, 22, -1,
      175, 176, 22, -1,
      22, 176, 19, -1,
      176, 177, 19, -1,
      19, 177, 10, -1,
      177, 172, 10, -1,
      10, 172, 8, -1,
      174, 173, 175, -1,
      175, 173, 172, -1,
      175, 172, 176, -1,
      176, 172, 177, -1,
    ]
  }
}

Shape {
  appearance Appearance {
    material Material {
      diffuseColor 0.1804 0.1804 0.1804
      specularColor 0.0902 0.0902 0.0902
      ambientIntensity 0.2
      transparency 0.0000
      shininess 0.5
    }
  }
  geometry IndexedFaceSet {
    ccw TRUE
    solid FALSE
    coord DEF co Coordinate {
      point [
        -0.119909 0.022620 -0.000000,
        -0.109499 0.045180 -0.000000,
        -0.098805 0.022620 0.000000,
        -0.030439 0.050634 0.000000,
        -0.030439 0.003693 0.000000,
        -0.034592 0.050634 0.000000,
        -0.043723 0.050356 0.000000,
        -0.052739 0.048978 0.000000,
        -0.059270 0.045830 -0.000000,
        -0.065709 0.038223 -0.000000,
        -0.068295 0.026430 -0.000000,
        -0.067360 0.019077 -0.000000,
        -0.062537 0.010432 -0.000000,
        -0.054099 0.005195 -0.000000,
        -0.045713 0.003931 0.000000,
        -0.037218 0.003693 0.000000,
      ]
    }
    coordIndex [
      1, 2, 0, -1,
      3, 4, 5, -1,
      5, 4, 15, -1,
      5, 15, 6, -1,
      6, 15, 14, -1,
      6, 14, 7, -1,
      13, 12, 14, -1,
      14, 12, 11, -1,
      14, 11, 10, -1,
      10, 9, 14, -1,
      14, 9, 8, -1,
      14, 8, 7, -1,
    ]
  }
}
