#VRML V2.0 utf8

Shape {
  appearance Appearance {
    material Material {
      diffuseColor 0.2078 0.2078 0.2078
      specularColor 0.0157 0.0157 0.0157
      ambientIntensity 0.2
      transparency 0.0000
      shininess 0.5
    }
  }
  geometry IndexedFaceSet {
    ccw TRUE
    solid FALSE
    coord DEF co Coordinate {
      point [
        0.067412 0.026739 -0.236220,
        0.075166 0.025868 -0.236220,
        0.050384 -0.032378 -0.236220,
        0.154600 -0.044319 -0.236220,
        0.075269 -0.044799 -0.236220,
        0.114269 -0.044319 -0.236220,
        0.080342 -0.044273 -0.236220,
        0.087974 -0.041646 -0.236220,
        0.103392 0.013682 -0.236220,
        0.098777 0.021044 -0.236220,
        0.144037 0.034421 -0.236220,
        0.057842 0.025496 -0.236220,
        0.048972 -0.031596 -0.236220,
        0.048972 0.021698 -0.236220,
        0.041291 0.284452 -0.236220,
        0.048972 0.032260 -0.236220,
        0.081059 0.023741 -0.236220,
        0.086509 0.020095 -0.236220,
        0.091264 0.014846 -0.236220,
        0.096985 -0.005789 -0.236220,
        0.096187 -0.014313 -0.236220,
        0.094048 -0.021086 -0.236220,
        0.076527 -0.035813 -0.236220,
        0.069183 -0.036637 -0.236220,
        0.082264 -0.033701 -0.236220,
        0.087097 -0.030444 -0.236220,
        0.090792 -0.026546 -0.236220,
        0.058731 -0.035477 -0.236220,
        0.094510 0.008767 -0.236220,
        0.096609 0.000337 -0.236220,
        0.094307 -0.037602 -0.236220,
        0.100222 -0.031375 -0.236220,
        0.114269 -0.035677 -0.236220,
        0.104417 -0.023888 -0.236220,
        0.144037 -0.035677 -0.236220,
        0.091668 0.027880 -0.236220,
        0.084189 0.032185 -0.236220,
        0.075411 0.034735 -0.236220,
        0.106786 -0.015554 -0.236220,
        0.107548 -0.006435 -0.236220,
        0.106415 0.004760 -0.236220,
        0.067502 0.035381 -0.236220,
        0.058076 0.034731 -0.236220,
        0.048972 -0.040238 -0.236220,
        0.057366 -0.043684 -0.236220,
        0.041291 -0.044799 -0.236220,
        0.065322 -0.044799 -0.236220,
        0.041291 -0.284452 -0.236220,
        0.068485 -0.045243 -0.236220,
        0.070638 -0.045280 -0.236220,
        0.154600 0.034421 -0.236220,
        0.510830 0.284452 -0.236220,
        0.510830 -0.044799 -0.236220,
        0.510830 -0.284452 -0.236220,
        -0.024006 -0.044319 -0.236220,
        -0.008642 -0.035677 -0.236220,
        -0.008642 -0.044319 -0.236220,
        0.033609 -0.044319 -0.236220,
        0.033609 0.034421 -0.236220,
        -0.006722 0.034421 -0.236220,
        -0.510830 0.284452 -0.236220,
        -0.093144 -0.044319 -0.236220,
        -0.083450 -0.022738 -0.236220,
        -0.078935 -0.029781 -0.236220,
        -0.122911 0.034421 -0.236220,
        -0.133474 0.034421 -0.236220,
        -0.510830 -0.044799 -0.236220,
        0.023046 0.025779 -0.236220,
        0.023046 -0.000148 -0.236220,
        -0.006722 0.025779 -0.236220,
        -0.004801 -0.000148 -0.236220,
        -0.004801 -0.008790 -0.236220,
        0.023046 -0.008790 -0.236220,
        0.023046 -0.035677 -0.236220,
        -0.072454 -0.035987 -0.236220,
        -0.064232 -0.040765 -0.236220,
        -0.055159 -0.043469 -0.236220,
        -0.024006 0.034421 -0.236220,
        -0.057603 0.033205 -0.236220,
        -0.066815 0.029970 -0.236220,
        -0.075385 0.024226 -0.236220,
        -0.046227 0.034421 -0.236220,
        -0.075468 0.024154 -0.236220,
        -0.081036 0.017980 -0.236220,
        -0.084695 0.011208 -0.236220,
        -0.086810 0.003450 -0.236220,
        -0.087382 -0.003959 -0.236220,
        -0.086278 -0.014496 -0.236220,
        -0.164202 -0.044319 -0.236220,
        -0.152679 -0.044319 -0.236220,
        -0.045417 -0.044319 -0.236220,
        -0.144712 -0.022233 -0.236220,
        -0.112184 -0.022233 -0.236220,
        -0.104667 -0.044319 -0.236220,
        -0.510830 -0.284452 -0.236220,
        -0.531496 0.305118 0.187008,
        -0.531496 -0.305118 0.187008,
        0.315493 0.305118 0.187008,
        0.315493 -0.305118 0.187008,
        0.531496 -0.305118 0.187008,
        0.531496 0.305118 0.187008,
        0.405633 -0.305118 0.187008,
        0.405633 0.305118 0.187008,
        0.527191 -0.108268 -0.049213,
        0.531496 -0.108268 0.000000,
        0.531496 -0.305118 0.000000,
        0.531496 0.305118 0.000000,
        0.531496 0.108268 0.000000,
        0.527191 0.108268 -0.049213,
        -0.531496 -0.305118 0.000000,
        -0.531496 -0.108268 0.000000,
        -0.527191 -0.108268 -0.049213,
        -0.531496 0.108268 0.000000,
        -0.531496 0.305118 0.000000,
        -0.527191 0.108268 -0.049213,
      ]
    }
    coordIndex [
      0, 1, 2, -1,
      3, 4, 5, -1,
      5, 4, 6, -1,
      5, 6, 7, -1,
      8, 9, 10, -1,
      0, 2, 11, -1,
      11, 2, 12, -1,
      11, 12, 13, -1,
      13, 12, 14, -1,
      13, 14, 15, -1,
      1, 16, 2, -1,
      2, 16, 17, -1,
      2, 17, 18, -1,
      19, 20, 2, -1,
      2, 20, 21, -1,
      22, 23, 24, -1,
      24, 23, 25, -1,
      21, 26, 2, -1,
      2, 26, 25, -1,
      2, 25, 27, -1,
      27, 25, 23, -1,
      18, 28, 2, -1,
      2, 28, 29, -1,
      2, 29, 19, -1,
      7, 30, 5, -1,
      5, 30, 31, -1,
      5, 31, 32, -1,
      32, 31, 33, -1,
      32, 33, 34, -1,
      35, 36, 14, -1,
      14, 36, 37, -1,
      33, 38, 34, -1,
      34, 38, 39, -1,
      34, 39, 10, -1,
      10, 39, 40, -1,
      10, 40, 8, -1,
      37, 41, 14, -1,
      14, 41, 42, -1,
      14, 42, 15, -1,
      43, 44, 45, -1,
      45, 44, 46, -1,
      45, 46, 47, -1,
      46, 48, 47, -1,
      47, 48, 49, -1,
      47, 49, 4, -1,
      9, 35, 10, -1,
      10, 35, 14, -1,
      10, 14, 50, -1,
      50, 14, 51, -1,
      50, 51, 3, -1,
      3, 51, 52, -1,
      3, 52, 4, -1,
      4, 52, 53, -1,
      4, 53, 47, -1,
      54, 55, 56, -1,
      45, 57, 58, -1,
      59, 60, 58, -1,
      58, 60, 14, -1,
      58, 14, 45, -1,
      45, 14, 12, -1,
      45, 12, 43, -1,
      61, 62, 63, -1,
      64, 65, 60, -1,
      60, 65, 66, -1,
      67, 68, 69, -1,
      69, 68, 70, -1,
      71, 72, 73, -1,
      63, 74, 61, -1,
      61, 74, 75, -1,
      61, 75, 76, -1,
      73, 55, 71, -1,
      71, 55, 54, -1,
      71, 54, 70, -1,
      70, 54, 77, -1,
      70, 77, 69, -1,
      78, 79, 64, -1,
      64, 79, 80, -1,
      78, 64, 81, -1,
      81, 64, 60, -1,
      81, 60, 77, -1,
      77, 60, 59, -1,
      77, 59, 69, -1,
      80, 82, 64, -1,
      64, 82, 83, -1,
      64, 83, 84, -1,
      84, 85, 64, -1,
      64, 85, 86, -1,
      64, 86, 61, -1,
      61, 86, 87, -1,
      61, 87, 62, -1,
      88, 89, 45, -1,
      90, 54, 45, -1,
      45, 54, 56, -1,
      45, 56, 57, -1,
      91, 92, 89, -1,
      89, 92, 93, -1,
      89, 93, 45, -1,
      45, 93, 61, -1,
      45, 61, 90, -1,
      90, 61, 76, -1,
      65, 88, 66, -1,
      66, 88, 45, -1,
      66, 45, 94, -1,
      94, 45, 47, -1,
      95, 96, 97, -1,
      97, 96, 98, -1,
      99, 100, 101, -1,
      101, 100, 102, -1,
      103, 104, 105, -1,
      106, 107, 51, -1,
      51, 107, 108, -1,
      51, 108, 52, -1,
      52, 108, 103, -1,
      52, 103, 53, -1,
      53, 103, 105, -1,
      109, 94, 105, -1,
      105, 94, 47, -1,
      105, 47, 53, -1,
      109, 110, 94, -1,
      94, 110, 111, -1,
      112, 113, 114, -1,
      114, 113, 60, -1,
      114, 60, 111, -1,
      111, 60, 66, -1,
      111, 66, 94, -1,
      60, 113, 14, -1,
      14, 113, 106, -1,
      14, 106, 51, -1,
      99, 105, 104, -1,
      99, 104, 100, -1,
      100, 104, 107, -1,
      100, 107, 106, -1,
      106, 113, 95, -1,
      95, 97, 106, -1,
      106, 97, 102, -1,
      106, 102, 100, -1,
      95, 113, 112, -1,
      95, 112, 96, -1,
      96, 112, 110, -1,
      96, 110, 109, -1,
      96, 109, 98, -1,
      98, 109, 105, -1,
      98, 105, 101, -1,
      101, 105, 99, -1,
    ]
  }
}

Shape {
  appearance Appearance {
    material Material {
      diffuseColor 0.3490 0.3490 0.3490
      specularColor 0.0235 0.0235 0.0235
      ambientIntensity 0.2
      transparency 0.0000
      shininess 0.5
    }
  }
  geometry IndexedFaceSet {
    ccw TRUE
    solid FALSE
    coord DEF co Coordinate {
      point [
        0.315493 0.305118 0.187008,
        0.315493 -0.305118 0.187008,
        0.405633 -0.305118 0.187008,
        0.405633 0.305118 0.187008,
      ]
    }
    coordIndex [
      1, 2, 0, -1,
      0, 2, 3, -1,
    ]
  }
}

Shape {
  appearance Appearance {
    material Material {
      diffuseColor 0.6667 0.6667 0.6667
      specularColor 0.4667 0.4667 0.4667
      ambientIntensity 0.2
      transparency 0.0000
      shininess 0.5
    }
  }
  geometry IndexedFaceSet {
    ccw TRUE
    solid FALSE
    coord DEF co Coordinate {
      point [
        0.527191 -0.108268 -0.049213,
        0.531496 -0.108268 0.000000,
        0.531496 0.108268 0.000000,
        0.527191 0.108268 -0.049213,
        -0.531496 -0.108268 0.000000,
        -0.527191 -0.108268 -0.049213,
        -0.531496 0.108268 0.000000,
        -0.527191 0.108268 -0.049213,
        -0.561024 0.108268 0.000000,
        -0.561024 -0.108268 0.000000,
        -0.728346 0.108268 -0.275591,
        -0.669291 0.108268 -0.275591,
        -0.728346 -0.108268 -0.275591,
        -0.669291 -0.108268 -0.275591,
        -0.728346 0.108268 -0.226378,
        -0.728346 -0.108268 -0.226378,
        -0.669291 0.108268 -0.226378,
        -0.669291 -0.108268 -0.226378,
        -0.662721 0.108268 -0.225638,
        -0.662721 -0.108268 -0.225638,
        -0.656480 0.108268 -0.223454,
        -0.656480 -0.108268 -0.223454,
        -0.650881 0.108268 -0.219936,
        -0.650881 -0.108268 -0.219936,
        -0.646206 0.108268 -0.215261,
        -0.646206 -0.108268 -0.215261,
        -0.642688 0.108268 -0.209662,
        -0.642688 -0.108268 -0.209662,
        -0.640504 0.108268 -0.203421,
        -0.640504 -0.108268 -0.203421,
        -0.639764 0.108268 -0.196850,
        -0.639764 -0.108268 -0.196850,
        -0.639764 0.108268 -0.078740,
        -0.639764 -0.108268 -0.078740,
        -0.637790 -0.108268 -0.061219,
        -0.637790 0.108268 -0.061219,
        -0.631966 -0.108268 -0.044576,
        -0.631966 0.108268 -0.044576,
        -0.622585 -0.108268 -0.029646,
        -0.622585 0.108268 -0.029646,
        -0.610117 -0.108268 -0.017179,
        -0.610117 0.108268 -0.017179,
        -0.595188 -0.108268 -0.007798,
        -0.595188 0.108268 -0.007798,
        -0.578545 -0.108268 -0.001974,
        -0.578545 0.108268 -0.001974,
        -0.561024 -0.108268 -0.049213,
        -0.561024 0.108268 -0.049213,
        -0.567594 0.108268 -0.049953,
        -0.567594 -0.108268 -0.049953,
        -0.573835 0.108268 -0.052137,
        -0.573835 -0.108268 -0.052137,
        -0.579434 0.108268 -0.055655,
        -0.579434 -0.108268 -0.055655,
        -0.584109 0.108268 -0.060330,
        -0.584109 -0.108268 -0.060330,
        -0.587627 0.108268 -0.065929,
        -0.587627 -0.108268 -0.065929,
        -0.589811 0.108268 -0.072170,
        -0.589811 -0.108268 -0.072170,
        -0.590551 0.108268 -0.078740,
        -0.590551 -0.108268 -0.078740,
        -0.590551 0.108268 -0.196850,
        -0.590551 -0.108268 -0.196850,
        -0.592525 -0.108268 -0.214372,
        -0.592525 0.108268 -0.214372,
        -0.598349 -0.108268 -0.231015,
        -0.598349 0.108268 -0.231015,
        -0.607730 -0.108268 -0.245944,
        -0.607730 0.108268 -0.245944,
        -0.620198 -0.108268 -0.258412,
        -0.620198 0.108268 -0.258412,
        -0.635127 -0.108268 -0.267793,
        -0.635127 0.108268 -0.267793,
        -0.651770 -0.108268 -0.273617,
        -0.651770 0.108268 -0.273617,
        0.561024 -0.108268 0.000000,
        0.561024 0.108268 0.000000,
        0.669291 0.108268 -0.275591,
        0.728346 0.108268 -0.275591,
        0.669291 -0.108268 -0.275591,
        0.728346 -0.108268 -0.275591,
        0.651770 -0.108268 -0.273617,
        0.651770 0.108268 -0.273617,
        0.635127 -0.108268 -0.267793,
        0.635127 0.108268 -0.267793,
        0.620198 -0.108268 -0.258412,
        0.620198 0.108268 -0.258412,
        0.607730 -0.108268 -0.245944,
        0.607730 0.108268 -0.245944,
        0.598349 -0.108268 -0.231015,
        0.598349 0.108268 -0.231015,
        0.592525 -0.108268 -0.214372,
        0.592525 0.108268 -0.214372,
        0.590551 -0.108268 -0.196850,
        0.590551 0.108268 -0.196850,
        0.590551 0.108268 -0.078740,
        0.590551 -0.108268 -0.078740,
        0.589811 0.108268 -0.072170,
        0.589811 -0.108268 -0.072170,
        0.587627 0.108268 -0.065929,
        0.587627 -0.108268 -0.065929,
        0.584109 0.108268 -0.060330,
        0.584109 -0.108268 -0.060330,
        0.579434 0.108268 -0.055655,
        0.579434 -0.108268 -0.055655,
        0.573835 0.108268 -0.052137,
        0.573835 -0.108268 -0.052137,
        0.567594 0.108268 -0.049953,
        0.567594 -0.108268 -0.049953,
        0.561024 0.108268 -0.049213,
        0.561024 -0.108268 -0.049213,
        0.578545 -0.108268 -0.001974,
        0.578545 0.108268 -0.001974,
        0.595188 -0.108268 -0.007798,
        0.595188 0.108268 -0.007798,
        0.610117 -0.108268 -0.017179,
        0.610117 0.108268 -0.017179,
        0.622585 -0.108268 -0.029646,
        0.622585 0.108268 -0.029646,
        0.631966 -0.108268 -0.044576,
        0.631966 0.108268 -0.044576,
        0.637790 -0.108268 -0.061219,
        0.637790 0.108268 -0.061219,
        0.639764 -0.108268 -0.078740,
        0.639764 0.108268 -0.078740,
        0.639764 0.108268 -0.196850,
        0.639764 -0.108268 -0.196850,
        0.640504 0.108268 -0.203421,
        0.640504 -0.108268 -0.203421,
        0.642688 0.108268 -0.209662,
        0.642688 -0.108268 -0.209662,
        0.646206 0.108268 -0.215261,
        0.646206 -0.108268 -0.215261,
        0.650881 0.108268 -0.219936,
        0.650881 -0.108268 -0.219936,
        0.656480 0.108268 -0.223454,
        0.656480 -0.108268 -0.223454,
        0.662721 0.108268 -0.225638,
        0.662721 -0.108268 -0.225638,
        0.669291 0.108268 -0.226378,
        0.669291 -0.108268 -0.226378,
        0.728346 0.108268 -0.226378,
        0.728346 -0.108268 -0.226378,
      ]
    }
    coordIndex [
      8, 9, 6, -1,
      6, 9, 4, -1,
      10, 11, 12, -1,
      12, 11, 13, -1,
      14, 10, 15, -1,
      15, 10, 12, -1,
      16, 14, 17, -1,
      17, 14, 15, -1,
      16, 17, 18, -1,
      18, 17, 19, -1,
      18, 19, 20, -1,
      20, 19, 21, -1,
      20, 21, 22, -1,
      22, 21, 23, -1,
      22, 23, 24, -1,
      24, 23, 25, -1,
      24, 25, 26, -1,
      26, 25, 27, -1,
      26, 27, 28, -1,
      28, 27, 29, -1,
      28, 29, 30, -1,
      30, 29, 31, -1,
      32, 30, 33, -1,
      33, 30, 31, -1,
      32, 33, 34, -1,
      32, 34, 35, -1,
      35, 34, 36, -1,
      35, 36, 37, -1,
      37, 36, 38, -1,
      37, 38, 39, -1,
      39, 38, 40, -1,
      39, 40, 41, -1,
      41, 40, 42, -1,
      41, 42, 43, -1,
      43, 42, 44, -1,
      43, 44, 45, -1,
      45, 44, 9, -1,
      45, 9, 8, -1,
      46, 47, 5, -1,
      5, 47, 7, -1,
      47, 46, 48, -1,
      48, 46, 49, -1,
      48, 49, 50, -1,
      50, 49, 51, -1,
      50, 51, 52, -1,
      52, 51, 53, -1,
      52, 53, 54, -1,
      54, 53, 55, -1,
      54, 55, 56, -1,
      56, 55, 57, -1,
      56, 57, 58, -1,
      58, 57, 59, -1,
      58, 59, 60, -1,
      60, 59, 61, -1,
      62, 60, 63, -1,
      63, 60, 61, -1,
      62, 63, 64, -1,
      62, 64, 65, -1,
      65, 64, 66, -1,
      65, 66, 67, -1,
      67, 66, 68, -1,
      67, 68, 69, -1,
      69, 68, 70, -1,
      69, 70, 71, -1,
      71, 70, 72, -1,
      71, 72, 73, -1,
      73, 72, 74, -1,
      73, 74, 75, -1,
      75, 74, 13, -1,
      75, 13, 11, -1,
      10, 14, 11, -1,
      11, 14, 16, -1,
      11, 16, 75, -1,
      75, 16, 18, -1,
      75, 18, 73, -1,
      73, 18, 20, -1,
      73, 20, 71, -1,
      71, 20, 22, -1,
      71, 22, 69, -1,
      69, 22, 24, -1,
      69, 24, 67, -1,
      67, 24, 26, -1,
      67, 26, 65, -1,
      65, 26, 28, -1,
      65, 28, 62, -1,
      62, 28, 30, -1,
      62, 30, 60, -1,
      60, 30, 32, -1,
      60, 32, 58, -1,
      58, 32, 35, -1,
      58, 35, 56, -1,
      56, 35, 37, -1,
      56, 37, 54, -1,
      54, 37, 39, -1,
      54, 39, 52, -1,
      52, 39, 41, -1,
      52, 41, 50, -1,
      50, 41, 43, -1,
      50, 43, 48, -1,
      48, 43, 45, -1,
      48, 45, 47, -1,
      47, 45, 8, -1,
      47, 8, 7, -1,
      7, 8, 6, -1,
      5, 4, 46, -1,
      46, 4, 9, -1,
      46, 9, 49, -1,
      49, 9, 44, -1,
      49, 44, 51, -1,
      51, 44, 42, -1,
      51, 42, 53, -1,
      53, 42, 40, -1,
      53, 40, 55, -1,
      55, 40, 38, -1,
      55, 38, 57, -1,
      57, 38, 36, -1,
      57, 36, 59, -1,
      59, 36, 34, -1,
      59, 34, 61, -1,
      61, 34, 33, -1,
      61, 33, 63, -1,
      63, 33, 31, -1,
      63, 31, 64, -1,
      64, 31, 29, -1,
      64, 29, 66, -1,
      66, 29, 27, -1,
      66, 27, 68, -1,
      68, 27, 25, -1,
      68, 25, 70, -1,
      70, 25, 23, -1,
      70, 23, 72, -1,
      72, 23, 21, -1,
      72, 21, 74, -1,
      74, 21, 19, -1,
      74, 19, 13, -1,
      13, 19, 17, -1,
      13, 17, 12, -1,
      12, 17, 15, -1,
      1, 76, 2, -1,
      2, 76, 77, -1,
      78, 79, 80, -1,
      80, 79, 81, -1,
      78, 80, 82, -1,
      78, 82, 83, -1,
      83, 82, 84, -1,
      83, 84, 85, -1,
      85, 84, 86, -1,
      85, 86, 87, -1,
      87, 86, 88, -1,
      87, 88, 89, -1,
      89, 88, 90, -1,
      89, 90, 91, -1,
      91, 90, 92, -1,
      91, 92, 93, -1,
      93, 92, 94, -1,
      93, 94, 95, -1,
      96, 95, 97, -1,
      97, 95, 94, -1,
      96, 97, 98, -1,
      98, 97, 99, -1,
      98, 99, 100, -1,
      100, 99, 101, -1,
      100, 101, 102, -1,
      102, 101, 103, -1,
      102, 103, 104, -1,
      104, 103, 105, -1,
      104, 105, 106, -1,
      106, 105, 107, -1,
      106, 107, 108, -1,
      108, 107, 109, -1,
      108, 109, 110, -1,
      110, 109, 111, -1,
      3, 110, 0, -1,
      0, 110, 111, -1,
      77, 76, 112, -1,
      77, 112, 113, -1,
      113, 112, 114, -1,
      113, 114, 115, -1,
      115, 114, 116, -1,
      115, 116, 117, -1,
      117, 116, 118, -1,
      117, 118, 119, -1,
      119, 118, 120, -1,
      119, 120, 121, -1,
      121, 120, 122, -1,
      121, 122, 123, -1,
      123, 122, 124, -1,
      123, 124, 125, -1,
      126, 125, 127, -1,
      127, 125, 124, -1,
      126, 127, 128, -1,
      128, 127, 129, -1,
      128, 129, 130, -1,
      130, 129, 131, -1,
      130, 131, 132, -1,
      132, 131, 133, -1,
      132, 133, 134, -1,
      134, 133, 135, -1,
      134, 135, 136, -1,
      136, 135, 137, -1,
      136, 137, 138, -1,
      138, 137, 139, -1,
      138, 139, 140, -1,
      140, 139, 141, -1,
      142, 140, 143, -1,
      143, 140, 141, -1,
      79, 142, 81, -1,
      81, 142, 143, -1,
      142, 79, 140, -1,
      140, 79, 78, -1,
      140, 78, 138, -1,
      138, 78, 83, -1,
      138, 83, 136, -1,
      136, 83, 85, -1,
      136, 85, 134, -1,
      134, 85, 87, -1,
      134, 87, 132, -1,
      132, 87, 89, -1,
      132, 89, 130, -1,
      130, 89, 91, -1,
      130, 91, 128, -1,
      128, 91, 93, -1,
      128, 93, 126, -1,
      126, 93, 95, -1,
      126, 95, 125, -1,
      125, 95, 96, -1,
      125, 96, 123, -1,
      123, 96, 98, -1,
      123, 98, 121, -1,
      121, 98, 100, -1,
      121, 100, 119, -1,
      119, 100, 102, -1,
      119, 102, 117, -1,
      117, 102, 104, -1,
      117, 104, 115, -1,
      115, 104, 106, -1,
      115, 106, 113, -1,
      113, 106, 108, -1,
      113, 108, 77, -1,
      77, 108, 110, -1,
      77, 110, 2, -1,
      2, 110, 3, -1,
      1, 0, 76, -1,
      76, 0, 111, -1,
      76, 111, 112, -1,
      112, 111, 109, -1,
      112, 109, 114, -1,
      114, 109, 107, -1,
      114, 107, 116, -1,
      116, 107, 105, -1,
      116, 105, 118, -1,
      118, 105, 103, -1,
      118, 103, 120, -1,
      120, 103, 101, -1,
      120, 101, 122, -1,
      122, 101, 99, -1,
      122, 99, 124, -1,
      124, 99, 97, -1,
      124, 97, 127, -1,
      127, 97, 94, -1,
      127, 94, 129, -1,
      129, 94, 92, -1,
      129, 92, 131, -1,
      131, 92, 90, -1,
      131, 90, 133, -1,
      133, 90, 88, -1,
      133, 88, 135, -1,
      135, 88, 86, -1,
      135, 86, 137, -1,
      137, 86, 84, -1,
      137, 84, 139, -1,
      139, 84, 82, -1,
      139, 82, 141, -1,
      141, 82, 80, -1,
      141, 80, 143, -1,
      143, 80, 81, -1,
    ]
  }
}

Shape {
  appearance Appearance {
    material Material {
      diffuseColor 1.0000 1.0000 1.0000
      specularColor 0.8784 0.8784 0.8784
      ambientIntensity 0.2
      transparency 0.0000
      shininess 0.5
    }
  }
  geometry IndexedFaceSet {
    ccw TRUE
    solid FALSE
    coord DEF co Coordinate {
      point [
        0.067412 0.026739 -0.236220,
        0.075166 0.025868 -0.236220,
        0.050384 -0.032378 -0.236220,
        0.154600 -0.044319 -0.236220,
        0.075269 -0.044799 -0.236220,
        0.114269 -0.044319 -0.236220,
        0.080342 -0.044273 -0.236220,
        0.087974 -0.041646 -0.236220,
        0.103392 0.013682 -0.236220,
        0.098777 0.021044 -0.236220,
        0.144037 0.034421 -0.236220,
        0.057842 0.025496 -0.236220,
        0.048972 -0.031596 -0.236220,
        0.048972 0.021698 -0.236220,
        0.048972 0.032260 -0.236220,
        0.081059 0.023741 -0.236220,
        0.086509 0.020095 -0.236220,
        0.091264 0.014846 -0.236220,
        0.096985 -0.005789 -0.236220,
        0.096187 -0.014313 -0.236220,
        0.094048 -0.021086 -0.236220,
        0.076527 -0.035813 -0.236220,
        0.069183 -0.036637 -0.236220,
        0.082264 -0.033701 -0.236220,
        0.087097 -0.030444 -0.236220,
        0.090792 -0.026546 -0.236220,
        0.058731 -0.035477 -0.236220,
        0.094510 0.008767 -0.236220,
        0.096609 0.000337 -0.236220,
        0.094307 -0.037602 -0.236220,
        0.100222 -0.031375 -0.236220,
        0.114269 -0.035677 -0.236220,
        0.104417 -0.023888 -0.236220,
        0.144037 -0.035677 -0.236220,
        0.091668 0.027880 -0.236220,
        0.084189 0.032185 -0.236220,
        0.075411 0.034735 -0.236220,
        0.106786 -0.015554 -0.236220,
        0.107548 -0.006435 -0.236220,
        0.106415 0.004760 -0.236220,
        0.067502 0.035381 -0.236220,
        0.058076 0.034731 -0.236220,
        0.048972 -0.040238 -0.236220,
        0.057366 -0.043684 -0.236220,
        0.065322 -0.044799 -0.236220,
        0.068485 -0.045243 -0.236220,
        0.070638 -0.045280 -0.236220,
        0.154600 0.034421 -0.236220,
        -0.024006 -0.044319 -0.236220,
        -0.008642 -0.035677 -0.236220,
        -0.008642 -0.044319 -0.236220,
        0.033609 -0.044319 -0.236220,
        0.033609 0.034421 -0.236220,
        -0.006722 0.034421 -0.236220,
        -0.093144 -0.044319 -0.236220,
        -0.083450 -0.022738 -0.236220,
        -0.078935 -0.029781 -0.236220,
        -0.122911 0.034421 -0.236220,
        -0.133474 0.034421 -0.236220,
        0.023046 0.025779 -0.236220,
        0.023046 -0.000148 -0.236220,
        -0.006722 0.025779 -0.236220,
        -0.004801 -0.000148 -0.236220,
        -0.004801 -0.008790 -0.236220,
        0.023046 -0.008790 -0.236220,
        0.023046 -0.035677 -0.236220,
        -0.072454 -0.035987 -0.236220,
        -0.064232 -0.040765 -0.236220,
        -0.055159 -0.043469 -0.236220,
        -0.024006 0.034421 -0.236220,
        -0.057603 0.033205 -0.236220,
        -0.066815 0.029970 -0.236220,
        -0.075385 0.024226 -0.236220,
        -0.046227 0.034421 -0.236220,
        -0.075468 0.024154 -0.236220,
        -0.081036 0.017980 -0.236220,
        -0.084695 0.011208 -0.236220,
        -0.086810 0.003450 -0.236220,
        -0.087382 -0.003959 -0.236220,
        -0.086278 -0.014496 -0.236220,
        -0.164202 -0.044319 -0.236220,
        -0.152679 -0.044319 -0.236220,
        -0.045417 -0.044319 -0.236220,
        -0.144712 -0.022233 -0.236220,
        -0.112184 -0.022233 -0.236220,
        -0.104667 -0.044319 -0.236220,
        -0.133474 0.034421 -0.228346,
        -0.164202 -0.044319 -0.228346,
        -0.152679 -0.044319 -0.228346,
        -0.144712 -0.022233 -0.228346,
        -0.112184 -0.022233 -0.228346,
        -0.104667 -0.044319 -0.228346,
        -0.093144 -0.044319 -0.228346,
        -0.122911 0.034421 -0.228346,
        -0.114839 -0.013591 -0.228346,
        -0.141171 -0.013591 -0.228346,
        -0.126587 0.019297 -0.228346,
        -0.127345 0.022028 -0.228346,
        -0.127848 0.024819 -0.228346,
        -0.128103 0.024819 -0.228346,
        -0.128617 0.022036 -0.228346,
        -0.129318 0.019297 -0.228346,
        -0.114839 -0.013591 -0.236220,
        -0.141171 -0.013591 -0.236220,
        -0.126587 0.019297 -0.236220,
        -0.127345 0.022028 -0.236220,
        -0.127848 0.024819 -0.236220,
        -0.128103 0.024819 -0.236220,
        -0.128617 0.022036 -0.236220,
        -0.129318 0.019297 -0.236220,
        -0.045417 -0.044319 -0.228346,
        -0.024006 -0.044319 -0.228346,
        -0.024006 0.034421 -0.228346,
        -0.046227 0.034421 -0.228346,
        -0.087382 -0.003959 -0.228346,
        -0.086810 0.003450 -0.228346,
        -0.084695 0.011208 -0.228346,
        -0.081036 0.017980 -0.228346,
        -0.075468 0.024154 -0.228346,
        -0.075385 0.024226 -0.228346,
        -0.066815 0.029970 -0.228346,
        -0.057603 0.033205 -0.228346,
        -0.055159 -0.043469 -0.228346,
        -0.064232 -0.040765 -0.228346,
        -0.072454 -0.035987 -0.228346,
        -0.078935 -0.029781 -0.228346,
        -0.083450 -0.022738 -0.228346,
        -0.086278 -0.014496 -0.228346,
        -0.071577 0.014737 -0.228346,
        -0.067752 0.018798 -0.228346,
        -0.062001 0.022514 -0.228346,
        -0.055502 0.024788 -0.228346,
        -0.046182 0.025779 -0.228346,
        -0.034569 0.025779 -0.228346,
        -0.034569 -0.035677 -0.228346,
        -0.045747 -0.035677 -0.228346,
        -0.054054 -0.034904 -0.228346,
        -0.060680 -0.032835 -0.228346,
        -0.066050 -0.029647 -0.228346,
        -0.070466 -0.025285 -0.228346,
        -0.073787 -0.019856 -0.228346,
        -0.076097 -0.012454 -0.228346,
        -0.076820 -0.004184 -0.228346,
        -0.076151 0.003653 -0.228346,
        -0.074313 0.009881 -0.228346,
        -0.046182 0.025779 -0.236220,
        -0.034569 0.025779 -0.236220,
        -0.055502 0.024788 -0.236220,
        -0.062001 0.022514 -0.236220,
        -0.067752 0.018798 -0.236220,
        -0.071577 0.014737 -0.236220,
        -0.074313 0.009881 -0.236220,
        -0.076151 0.003653 -0.236220,
        -0.076820 -0.004184 -0.236220,
        -0.076097 -0.012454 -0.236220,
        -0.073787 -0.019856 -0.236220,
        -0.070466 -0.025285 -0.236220,
        -0.066050 -0.029647 -0.236220,
        -0.060680 -0.032835 -0.236220,
        -0.054054 -0.034904 -0.236220,
        -0.045747 -0.035677 -0.236220,
        -0.034569 -0.035677 -0.236220,
        -0.008642 -0.035677 -0.228346,
        -0.008642 -0.044319 -0.228346,
        0.033609 -0.044319 -0.228346,
        0.033609 0.034421 -0.228346,
        -0.006722 0.034421 -0.228346,
        -0.006722 0.025779 -0.228346,
        0.023046 0.025779 -0.228346,
        0.023046 -0.000148 -0.228346,
        -0.004801 -0.000148 -0.228346,
        -0.004801 -0.008790 -0.228346,
        0.023046 -0.008790 -0.228346,
        0.023046 -0.035677 -0.228346,
        0.048972 -0.031596 -0.228346,
        0.048972 -0.040238 -0.228346,
        0.057366 -0.043684 -0.228346,
        0.070638 -0.045280 -0.228346,
        0.068485 -0.045243 -0.228346,
        0.107548 -0.006435 -0.228346,
        0.106786 -0.015554 -0.228346,
        0.104417 -0.023888 -0.228346,
        0.100222 -0.031375 -0.228346,
        0.094307 -0.037602 -0.228346,
        0.087974 -0.041646 -0.228346,
        0.080342 -0.044273 -0.228346,
        0.067502 0.035381 -0.228346,
        0.075411 0.034735 -0.228346,
        0.084189 0.032185 -0.228346,
        0.091668 0.027880 -0.228346,
        0.098777 0.021044 -0.228346,
        0.103392 0.013682 -0.228346,
        0.106415 0.004760 -0.228346,
        0.048972 0.032260 -0.228346,
        0.058076 0.034731 -0.228346,
        0.048972 0.021698 -0.228346,
        0.067412 0.026739 -0.228346,
        0.057842 0.025496 -0.228346,
        0.096985 -0.005789 -0.228346,
        0.096609 0.000337 -0.228346,
        0.094510 0.008767 -0.228346,
        0.091264 0.014846 -0.228346,
        0.086509 0.020095 -0.228346,
        0.081059 0.023741 -0.228346,
        0.075166 0.025868 -0.228346,
        0.069183 -0.036637 -0.228346,
        0.076527 -0.035813 -0.228346,
        0.082264 -0.033701 -0.228346,
        0.087097 -0.030444 -0.228346,
        0.090792 -0.026546 -0.228346,
        0.094048 -0.021086 -0.228346,
        0.096187 -0.014313 -0.228346,
        0.050384 -0.032378 -0.228346,
        0.058731 -0.035477 -0.228346,
        0.114269 -0.035677 -0.228346,
        0.114269 -0.044319 -0.228346,
        0.154600 -0.044319 -0.228346,
        0.154600 0.034421 -0.228346,
        0.144037 0.034421 -0.228346,
        0.144037 -0.035677 -0.228346,
      ]
    }
    coordIndex [
      86, 87, 58, -1,
      58, 87, 80, -1,
      87, 88, 80, -1,
      80, 88, 81, -1,
      88, 89, 81, -1,
      81, 89, 83, -1,
      89, 90, 83, -1,
      83, 90, 84, -1,
      90, 91, 84, -1,
      84, 91, 85, -1,
      91, 92, 85, -1,
      85, 92, 54, -1,
      92, 93, 54, -1,
      54, 93, 57, -1,
      93, 86, 57, -1,
      57, 86, 58, -1,
      94, 90, 95, -1,
      95, 90, 89, -1,
      96, 93, 94, -1,
      94, 93, 92, -1,
      94, 92, 90, -1,
      90, 92, 91, -1,
      96, 97, 93, -1,
      93, 97, 98, -1,
      93, 98, 86, -1,
      86, 98, 99, -1,
      86, 99, 100, -1,
      100, 101, 86, -1,
      86, 101, 95, -1,
      86, 95, 87, -1,
      87, 95, 89, -1,
      87, 89, 88, -1,
      94, 95, 102, -1,
      102, 95, 103, -1,
      96, 94, 104, -1,
      104, 94, 102, -1,
      96, 104, 105, -1,
      96, 105, 97, -1,
      97, 105, 106, -1,
      97, 106, 98, -1,
      99, 98, 107, -1,
      107, 98, 106, -1,
      99, 107, 108, -1,
      99, 108, 100, -1,
      100, 108, 109, -1,
      100, 109, 101, -1,
      95, 101, 103, -1,
      103, 101, 109, -1,
      110, 111, 82, -1,
      82, 111, 48, -1,
      111, 112, 48, -1,
      48, 112, 69, -1,
      112, 113, 69, -1,
      69, 113, 73, -1,
      114, 78, 77, -1,
      114, 77, 115, -1,
      115, 77, 76, -1,
      115, 76, 116, -1,
      116, 76, 75, -1,
      116, 75, 117, -1,
      117, 75, 74, -1,
      117, 74, 118, -1,
      118, 74, 72, -1,
      118, 72, 119, -1,
      119, 72, 71, -1,
      119, 71, 120, -1,
      120, 71, 70, -1,
      120, 70, 121, -1,
      121, 70, 73, -1,
      121, 73, 113, -1,
      110, 82, 68, -1,
      110, 68, 122, -1,
      122, 68, 67, -1,
      122, 67, 123, -1,
      123, 67, 66, -1,
      123, 66, 124, -1,
      124, 66, 56, -1,
      124, 56, 125, -1,
      125, 56, 55, -1,
      125, 55, 126, -1,
      126, 55, 79, -1,
      126, 79, 127, -1,
      127, 79, 78, -1,
      127, 78, 114, -1,
      116, 117, 128, -1,
      128, 117, 118, -1,
      128, 118, 129, -1,
      129, 118, 119, -1,
      129, 119, 130, -1,
      130, 119, 120, -1,
      130, 120, 131, -1,
      131, 120, 121, -1,
      131, 121, 132, -1,
      132, 121, 113, -1,
      132, 113, 133, -1,
      133, 113, 112, -1,
      133, 112, 134, -1,
      134, 112, 111, -1,
      134, 111, 135, -1,
      135, 111, 110, -1,
      135, 110, 136, -1,
      136, 110, 122, -1,
      136, 122, 137, -1,
      137, 122, 123, -1,
      137, 123, 138, -1,
      138, 123, 124, -1,
      138, 124, 139, -1,
      139, 124, 125, -1,
      139, 125, 140, -1,
      140, 125, 126, -1,
      140, 126, 141, -1,
      141, 126, 127, -1,
      141, 127, 142, -1,
      142, 127, 114, -1,
      142, 114, 143, -1,
      143, 114, 115, -1,
      143, 115, 144, -1,
      144, 115, 116, -1,
      144, 116, 128, -1,
      132, 133, 145, -1,
      145, 133, 146, -1,
      132, 145, 147, -1,
      132, 147, 131, -1,
      131, 147, 148, -1,
      131, 148, 130, -1,
      130, 148, 149, -1,
      130, 149, 129, -1,
      129, 149, 150, -1,
      129, 150, 128, -1,
      128, 150, 151, -1,
      128, 151, 144, -1,
      144, 151, 152, -1,
      144, 152, 143, -1,
      143, 152, 153, -1,
      143, 153, 142, -1,
      142, 153, 154, -1,
      142, 154, 141, -1,
      141, 154, 155, -1,
      141, 155, 140, -1,
      140, 155, 156, -1,
      140, 156, 139, -1,
      139, 156, 157, -1,
      139, 157, 138, -1,
      138, 157, 158, -1,
      138, 158, 137, -1,
      137, 158, 159, -1,
      137, 159, 136, -1,
      136, 159, 160, -1,
      136, 160, 135, -1,
      134, 135, 161, -1,
      161, 135, 160, -1,
      133, 134, 146, -1,
      146, 134, 161, -1,
      162, 163, 49, -1,
      49, 163, 50, -1,
      163, 164, 50, -1,
      50, 164, 51, -1,
      164, 165, 51, -1,
      51, 165, 52, -1,
      165, 166, 52, -1,
      52, 166, 53, -1,
      166, 167, 53, -1,
      53, 167, 61, -1,
      167, 168, 61, -1,
      61, 168, 59, -1,
      168, 169, 59, -1,
      59, 169, 60, -1,
      169, 170, 60, -1,
      60, 170, 62, -1,
      170, 171, 62, -1,
      62, 171, 63, -1,
      171, 172, 63, -1,
      63, 172, 64, -1,
      172, 173, 64, -1,
      64, 173, 65, -1,
      173, 162, 65, -1,
      65, 162, 49, -1,
      164, 163, 162, -1,
      162, 173, 164, -1,
      164, 173, 172, -1,
      164, 172, 165, -1,
      167, 166, 168, -1,
      168, 166, 165, -1,
      168, 165, 169, -1,
      169, 165, 172, -1,
      169, 172, 170, -1,
      170, 172, 171, -1,
      174, 175, 12, -1,
      12, 175, 42, -1,
      42, 175, 176, -1,
      177, 46, 45, -1,
      177, 45, 178, -1,
      178, 45, 44, -1,
      178, 44, 176, -1,
      176, 44, 43, -1,
      176, 43, 42, -1,
      179, 38, 37, -1,
      179, 37, 180, -1,
      180, 37, 32, -1,
      180, 32, 181, -1,
      181, 32, 30, -1,
      181, 30, 182, -1,
      182, 30, 29, -1,
      182, 29, 183, -1,
      183, 29, 7, -1,
      183, 7, 184, -1,
      184, 7, 6, -1,
      184, 6, 185, -1,
      185, 6, 177, -1,
      177, 6, 4, -1,
      177, 4, 46, -1,
      186, 40, 36, -1,
      186, 36, 187, -1,
      187, 36, 35, -1,
      187, 35, 188, -1,
      188, 35, 34, -1,
      188, 34, 189, -1,
      189, 34, 9, -1,
      189, 9, 190, -1,
      190, 9, 8, -1,
      190, 8, 191, -1,
      191, 8, 39, -1,
      191, 39, 192, -1,
      192, 39, 38, -1,
      192, 38, 179, -1,
      193, 14, 41, -1,
      193, 41, 194, -1,
      194, 41, 40, -1,
      194, 40, 186, -1,
      193, 195, 14, -1,
      14, 195, 13, -1,
      196, 0, 11, -1,
      196, 11, 197, -1,
      197, 11, 13, -1,
      197, 13, 195, -1,
      198, 18, 28, -1,
      198, 28, 199, -1,
      199, 28, 27, -1,
      199, 27, 200, -1,
      200, 27, 17, -1,
      200, 17, 201, -1,
      201, 17, 16, -1,
      201, 16, 202, -1,
      202, 16, 15, -1,
      202, 15, 203, -1,
      203, 15, 1, -1,
      203, 1, 204, -1,
      204, 1, 0, -1,
      204, 0, 196, -1,
      205, 22, 21, -1,
      205, 21, 206, -1,
      206, 21, 23, -1,
      206, 23, 207, -1,
      207, 23, 24, -1,
      207, 24, 208, -1,
      208, 24, 25, -1,
      208, 25, 209, -1,
      209, 25, 20, -1,
      209, 20, 210, -1,
      210, 20, 19, -1,
      210, 19, 211, -1,
      211, 19, 18, -1,
      211, 18, 198, -1,
      174, 12, 2, -1,
      174, 2, 212, -1,
      212, 2, 26, -1,
      212, 26, 213, -1,
      213, 26, 22, -1,
      213, 22, 205, -1,
      206, 177, 205, -1,
      205, 177, 178, -1,
      205, 178, 213, -1,
      213, 178, 176, -1,
      213, 176, 212, -1,
      212, 176, 175, -1,
      212, 175, 174, -1,
      195, 193, 197, -1,
      197, 193, 194, -1,
      197, 194, 196, -1,
      196, 194, 186, -1,
      196, 186, 204, -1,
      204, 186, 187, -1,
      204, 187, 203, -1,
      203, 187, 188, -1,
      203, 188, 202, -1,
      202, 188, 189, -1,
      202, 189, 201, -1,
      201, 189, 190, -1,
      201, 190, 200, -1,
      200, 190, 191, -1,
      200, 191, 199, -1,
      199, 191, 192, -1,
      199, 192, 198, -1,
      198, 192, 179, -1,
      198, 179, 211, -1,
      211, 179, 180, -1,
      211, 180, 210, -1,
      210, 180, 181, -1,
      210, 181, 209, -1,
      209, 181, 182, -1,
      209, 182, 208, -1,
      208, 182, 183, -1,
      208, 183, 207, -1,
      207, 183, 184, -1,
      207, 184, 206, -1,
      206, 184, 185, -1,
      206, 185, 177, -1,
      214, 215, 31, -1,
      31, 215, 5, -1,
      215, 216, 5, -1,
      5, 216, 3, -1,
      216, 217, 3, -1,
      3, 217, 47, -1,
      217, 218, 47, -1,
      47, 218, 10, -1,
      218, 219, 10, -1,
      10, 219, 33, -1,
      219, 214, 33, -1,
      33, 214, 31, -1,
      218, 217, 219, -1,
      219, 217, 216, -1,
      219, 216, 214, -1,
      214, 216, 215, -1,
    ]
  }
}

Shape {
  appearance Appearance {
    material Material {
      diffuseColor 0.2078 0.2078 0.2078
      specularColor 0.0157 0.0157 0.0157
      ambientIntensity 0.2
      transparency 0.0000
      shininess 0.5
    }
  }
  geometry IndexedFaceSet {
    ccw TRUE
    solid FALSE
    coord DEF co Coordinate {
      point [
        -0.114839 -0.013591 -0.236220,
        -0.141171 -0.013591 -0.236220,
        -0.126587 0.019297 -0.236220,
        -0.127345 0.022028 -0.236220,
        -0.127848 0.024819 -0.236220,
        -0.128103 0.024819 -0.236220,
        -0.128617 0.022036 -0.236220,
        -0.129318 0.019297 -0.236220,
        -0.046182 0.025779 -0.236220,
        -0.034569 0.025779 -0.236220,
        -0.055502 0.024788 -0.236220,
        -0.062001 0.022514 -0.236220,
        -0.067752 0.018798 -0.236220,
        -0.071577 0.014737 -0.236220,
        -0.074313 0.009881 -0.236220,
        -0.076151 0.003653 -0.236220,
        -0.076820 -0.004184 -0.236220,
        -0.076097 -0.012454 -0.236220,
        -0.073787 -0.019856 -0.236220,
        -0.070466 -0.025285 -0.236220,
        -0.066050 -0.029647 -0.236220,
        -0.060680 -0.032835 -0.236220,
        -0.054054 -0.034904 -0.236220,
        -0.045747 -0.035677 -0.236220,
        -0.034569 -0.035677 -0.236220,
      ]
    }
    coordIndex [
      0, 1, 2, -1,
      2, 1, 7, -1,
      2, 7, 3, -1,
      3, 7, 6, -1,
      3, 6, 4, -1,
      4, 6, 5, -1,
      9, 24, 8, -1,
      8, 24, 23, -1,
      8, 23, 22, -1,
      16, 15, 8, -1,
      8, 15, 14, -1,
      8, 14, 10, -1,
      22, 21, 8, -1,
      8, 21, 20, -1,
      8, 20, 19, -1,
      19, 18, 8, -1,
      8, 18, 17, -1,
      8, 17, 16, -1,
      13, 12, 14, -1,
      14, 12, 11, -1,
      14, 11, 10, -1,
    ]
  }
}
