#VRML V2.0 utf8

Shape {
  appearance Appearance {
    material Material {
      diffuseColor 0.8549 0.8549 0.8549
      specularColor 0.4275 0.4275 0.4275
      ambientIntensity 0.2
      transparency 0.0000
      shininess 0.5
    }
  }
  geometry IndexedFaceSet {
    ccw TRUE
    solid FALSE
    coord DEF co Coordinate {
      point [
        0.059055 0.059055 0.082677,
        0.059055 0.059055 0.090551,
        0.110236 0.059055 0.082677,
        0.118110 0.059055 0.090551,
        0.110236 0.059055 0.007871,
        0.118110 0.059055 0.000000,
        0.059055 0.059055 0.007871,
        0.059055 0.059055 0.000000,
        -0.059055 0.059055 0.007871,
        -0.059055 0.059055 0.000000,
        -0.110236 0.059055 0.007871,
        -0.118110 0.059055 0.000000,
        -0.110236 0.059055 0.082677,
        -0.118110 0.059055 0.090551,
        -0.059055 0.059055 0.082677,
        -0.059055 0.059055 0.090551,
        -0.059055 0.039370 0.090551,
        0.118110 -0.059055 0.090551,
        0.059055 0.039370 0.090551,
        -0.118110 -0.059055 0.090551,
        -0.059055 -0.059055 0.090551,
        -0.059055 -0.039370 0.090551,
        0.059055 -0.059055 0.090551,
        0.059055 -0.039370 0.090551,
        0.059055 -0.039370 0.017255,
        -0.059055 -0.039370 0.017255,
        0.059055 0.039370 0.017255,
        -0.059055 0.039370 0.017255,
        0.059055 -0.059055 0.000000,
        0.059055 -0.039370 0.007871,
        0.059055 -0.059055 0.007871,
        0.059055 0.039370 0.007871,
        -0.059055 -0.059055 0.000000,
        -0.059055 0.039370 0.007871,
        -0.059055 -0.059055 0.007871,
        -0.059055 -0.039370 0.007871,
        0.110236 -0.059055 0.007871,
        0.118110 -0.059055 0.000000,
        0.110236 -0.059055 0.082677,
        0.059055 -0.059055 0.082677,
      ]
    }
    coordIndex [
      0, 1, 2, -1,
      2, 1, 3, -1,
      2, 3, 4, -1,
      4, 3, 5, -1,
      4, 5, 6, -1,
      6, 5, 7, -1,
      8, 9, 10, -1,
      10, 9, 11, -1,
      10, 11, 12, -1,
      12, 11, 13, -1,
      12, 13, 14, -1,
      14, 13, 15, -1,
      16, 15, 13, -1,
      3, 1, 17, -1,
      17, 1, 18, -1,
      19, 20, 21, -1,
      22, 17, 23, -1,
      23, 17, 18, -1,
      23, 18, 21, -1,
      21, 18, 16, -1,
      21, 16, 19, -1,
      19, 16, 13, -1,
      24, 25, 26, -1,
      26, 25, 27, -1,
      7, 28, 29, -1,
      29, 28, 30, -1,
      6, 7, 31, -1,
      31, 7, 29, -1,
      31, 29, 26, -1,
      26, 29, 24, -1,
      32, 9, 33, -1,
      33, 9, 8, -1,
      34, 32, 35, -1,
      35, 32, 33, -1,
      35, 33, 25, -1,
      25, 33, 27, -1,
      30, 28, 36, -1,
      36, 28, 37, -1,
      36, 37, 38, -1,
      38, 37, 17, -1,
      38, 17, 39, -1,
      39, 17, 22, -1,
      5, 37, 7, -1,
      7, 37, 28, -1,
    ]
  }
}

Shape {
  appearance Appearance {
    material Material {
      diffuseColor 1.0000 1.0000 1.0000
      specularColor 0.5020 0.5020 0.5020
      ambientIntensity 0.2
      transparency 0.0000
      shininess 0.5
    }
  }
  geometry IndexedFaceSet {
    ccw TRUE
    solid FALSE
    coord DEF co Coordinate {
      point [
        0.059055 -0.039370 0.007871,
        0.059055 -0.059055 0.007871,
        0.110236 -0.059055 0.007871,
        0.110236 -0.039370 0.007871,
      ]
    }
    coordIndex [
      1, 2, 0, -1,
      0, 2, 3, -1,
    ]
  }
}

Shape {
  appearance Appearance {
    material Material {
      diffuseColor 0.8549 0.8549 0.8549
      specularColor 0.4275 0.4275 0.4275
      ambientIntensity 0.2
      transparency 0.0000
      shininess 0.5
    }
  }
  geometry IndexedFaceSet {
    ccw TRUE
    solid FALSE
    coord DEF co Coordinate {
      point [
        0.118110 0.059055 0.090551,
        0.118110 0.059055 0.000000,
        -0.059055 0.059055 0.000000,
        -0.118110 0.059055 0.000000,
        -0.118110 0.059055 0.090551,
        0.118110 -0.059055 0.090551,
        -0.118110 -0.059055 0.090551,
        -0.059055 -0.059055 0.090551,
        -0.059055 -0.059055 0.000000,
        -0.059055 -0.059055 0.007871,
        0.118110 -0.059055 0.000000,
        -0.118110 -0.059055 0.000000,
        -0.059055 -0.059055 0.082677,
        -0.110236 -0.059055 0.082677,
        -0.110236 -0.059055 0.007871,
      ]
    }
    coordIndex [
      0, 5, 1, -1,
      1, 5, 10, -1,
      6, 4, 11, -1,
      11, 4, 3, -1,
      12, 7, 13, -1,
      13, 7, 6, -1,
      13, 6, 14, -1,
      14, 6, 11, -1,
      14, 11, 9, -1,
      9, 11, 8, -1,
      11, 3, 8, -1,
      8, 3, 2, -1,
    ]
  }
}

Shape {
  appearance Appearance {
    material Material {
      diffuseColor 1.0000 1.0000 1.0000
      specularColor 0.5020 0.5020 0.5020
      ambientIntensity 0.2
      transparency 0.0000
      shininess 0.5
    }
  }
  geometry IndexedFaceSet {
    ccw TRUE
    solid FALSE
    coord DEF co Coordinate {
      point [
        0.059055 0.059055 0.082677,
        0.059055 0.059055 0.090551,
        0.110236 0.059055 0.082677,
        0.110236 0.059055 0.007871,
        0.059055 0.059055 0.007871,
        -0.059055 0.059055 0.007871,
        -0.110236 0.059055 0.007871,
        -0.110236 0.059055 0.082677,
        -0.059055 0.059055 0.082677,
        -0.059055 0.059055 0.090551,
        -0.059055 0.039370 0.090551,
        0.059055 0.039370 0.090551,
        -0.059055 -0.059055 0.090551,
        -0.059055 -0.039370 0.090551,
        0.059055 -0.059055 0.090551,
        0.059055 -0.039370 0.090551,
        0.059055 -0.039370 0.017255,
        -0.059055 -0.039370 0.017255,
        0.059055 0.039370 0.017255,
        -0.059055 0.039370 0.017255,
        0.059055 -0.039370 0.007871,
        0.059055 0.039370 0.007871,
        -0.059055 0.039370 0.007871,
        -0.059055 -0.059055 0.007871,
        -0.059055 -0.039370 0.007871,
        0.110236 -0.059055 0.007871,
        0.110236 -0.059055 0.082677,
        0.059055 -0.059055 0.082677,
        0.110236 -0.039370 0.007871,
        -0.059055 -0.059055 0.082677,
        -0.110236 -0.059055 0.082677,
        -0.110236 -0.059055 0.007871,
        -0.059055 -0.039370 0.082677,
        0.059055 -0.039370 0.082677,
        0.110236 -0.039370 0.082677,
        -0.110236 -0.039370 0.007871,
        -0.110236 -0.039370 0.082677,
        0.059055 0.039370 0.082677,
        -0.059055 0.039370 0.082677,
        0.110236 0.039370 0.007871,
        -0.110236 0.039370 0.007871,
        -0.110236 0.039370 0.082677,
        0.110236 0.039370 0.082677,
      ]
    }
    coordIndex [
      32, 13, 29, -1,
      29, 13, 12, -1,
      27, 14, 33, -1,
      33, 14, 15, -1,
      20, 28, 16, -1,
      16, 28, 34, -1,
      16, 34, 17, -1,
      17, 34, 33, -1,
      35, 24, 36, -1,
      36, 24, 17, -1,
      36, 17, 32, -1,
      32, 17, 33, -1,
      32, 33, 13, -1,
      13, 33, 15, -1,
      34, 28, 26, -1,
      26, 28, 25, -1,
      24, 35, 23, -1,
      23, 35, 31, -1,
      35, 36, 31, -1,
      31, 36, 30, -1,
      36, 32, 30, -1,
      30, 32, 29, -1,
      33, 34, 27, -1,
      27, 34, 26, -1,
      0, 37, 1, -1,
      1, 37, 11, -1,
      38, 8, 10, -1,
      10, 8, 9, -1,
      39, 3, 21, -1,
      21, 3, 4, -1,
      6, 40, 5, -1,
      5, 40, 22, -1,
      40, 41, 38, -1,
      10, 11, 38, -1,
      38, 11, 37, -1,
      38, 37, 40, -1,
      39, 21, 42, -1,
      42, 21, 18, -1,
      42, 18, 37, -1,
      37, 18, 19, -1,
      37, 19, 40, -1,
      40, 19, 22, -1,
      39, 42, 3, -1,
      3, 42, 2, -1,
      42, 37, 2, -1,
      2, 37, 0, -1,
      38, 41, 8, -1,
      8, 41, 7, -1,
      41, 40, 7, -1,
      7, 40, 6, -1,
    ]
  }
}

Shape {
  appearance Appearance {
    material Material {
      diffuseColor 0.2510 0.2510 0.2510
      specularColor 0.1255 0.1255 0.1255
      ambientIntensity 0.2
      transparency 0.0000
      shininess 0.5
    }
  }
  geometry IndexedFaceSet {
    ccw TRUE
    solid FALSE
    coord DEF co Coordinate {
      point [
        0.059055 0.059055 0.082677,
        -0.059055 0.059055 0.082677,
        0.059055 -0.059055 0.082677,
        -0.059055 -0.059055 0.082677,
        0.059055 -0.059055 0.086614,
        0.059055 0.059055 0.086614,
        -0.059055 -0.059055 0.086614,
        -0.059055 0.059055 0.086614,
        0.055118 -0.055118 0.094488,
        0.055118 0.055118 0.094488,
        -0.055118 -0.055118 0.094488,
        -0.055118 0.055118 0.094488,
      ]
    }
    coordIndex [
      4, 2, 5, -1,
      5, 2, 0, -1,
      6, 3, 4, -1,
      4, 3, 2, -1,
      7, 1, 6, -1,
      6, 1, 3, -1,
      5, 0, 7, -1,
      7, 0, 1, -1,
      3, 1, 2, -1,
      2, 1, 0, -1,
      8, 9, 10, -1,
      10, 9, 11, -1,
      7, 11, 5, -1,
      5, 11, 9, -1,
      6, 10, 7, -1,
      7, 10, 11, -1,
      8, 4, 9, -1,
      9, 4, 5, -1,
      4, 8, 6, -1,
      6, 8, 10, -1,
    ]
  }
}

Shape {
  appearance Appearance {
    material Material {
      diffuseColor 1.0000 1.0000 1.0000
      specularColor 0.5020 0.5020 0.5020
      ambientIntensity 0.2
      transparency 0.0000
      shininess 0.5
    }
  }
  geometry IndexedFaceSet {
    ccw TRUE
    solid FALSE
    coord DEF co Coordinate {
      point [
        0.110236 0.059055 0.082677,
        0.110236 0.059055 0.007871,
        -0.110236 0.059055 0.007871,
        -0.110236 0.059055 0.082677,
        0.110236 -0.059055 0.007871,
        0.110236 -0.059055 0.082677,
        -0.110236 -0.059055 0.082677,
        -0.110236 -0.059055 0.007871,
        0.016205 0.008944 0.007871,
        0.018143 0.008727 0.007871,
        0.011948 -0.005835 0.007871,
        0.038002 -0.008820 0.007871,
        0.018169 -0.008940 0.007871,
        0.027919 -0.008820 0.007871,
        0.019437 -0.008808 0.007871,
        0.021347 -0.008151 0.007871,
        0.025192 0.005697 0.007871,
        0.024035 0.007535 0.007871,
        0.035361 0.010865 0.007871,
        0.013813 0.008634 0.007871,
        0.011595 -0.005639 0.007871,
        0.011595 0.007684 0.007871,
        0.009675 0.059055 0.007871,
        0.011595 0.010325 0.007871,
        0.019617 0.008195 0.007871,
        0.020979 0.007284 0.007871,
        0.022168 0.005971 0.007871,
        0.023598 0.000813 0.007871,
        0.023399 -0.001319 0.007871,
        0.022864 -0.003012 0.007871,
        0.018484 -0.006693 0.007871,
        0.016648 -0.006900 0.007871,
        0.019918 -0.006165 0.007871,
        0.021126 -0.005351 0.007871,
        0.022050 -0.004377 0.007871,
        0.014035 -0.006609 0.007871,
        0.022980 0.004452 0.007871,
        0.023504 0.002344 0.007871,
        0.022931 -0.007139 0.007871,
        0.024409 -0.005582 0.007871,
        0.027919 -0.006659 0.007871,
        0.025457 -0.003710 0.007871,
        0.035361 -0.006659 0.007871,
        0.022253 0.009242 0.007871,
        0.020381 0.010314 0.007871,
        0.018187 0.010947 0.007871,
        0.026049 -0.001626 0.007871,
        0.026239 0.000651 0.007871,
        0.025956 0.003450 0.007871,
        0.016228 0.011105 0.007871,
        0.013871 0.010943 0.007871,
        0.011595 -0.007800 0.007871,
        0.013693 -0.008661 0.007871,
        0.009675 -0.008940 0.007871,
        0.015683 -0.008940 0.007871,
        0.009675 -0.059055 0.007871,
        0.016473 -0.009051 0.007871,
        0.017011 -0.009060 0.007871,
        0.038002 0.010865 0.007871,
        0.110236 -0.008940 0.007871,
        -0.002328 0.010865 0.007871,
        0.007754 0.010865 0.007871,
        -0.031376 0.010865 0.007871,
        -0.034017 0.010865 0.007871,
        -0.023934 -0.008820 0.007871,
        -0.021512 -0.003422 0.007871,
        -0.020384 -0.005183 0.007871,
        -0.110236 -0.008940 0.007871,
        0.005113 0.008705 0.007871,
        0.005113 0.002223 0.007871,
        -0.002328 0.008705 0.007871,
        -0.001848 0.002223 0.007871,
        -0.001848 0.000062 0.007871,
        -0.006650 -0.008820 0.007871,
        -0.006650 0.010865 0.007871,
        -0.018764 -0.006735 0.007871,
        -0.016710 -0.007930 0.007871,
        -0.014442 -0.008607 0.007871,
        -0.015049 0.010561 0.007871,
        -0.017343 0.009757 0.007871,
        -0.019488 0.008322 0.007871,
        -0.019534 0.008282 0.007871,
        -0.020919 0.006737 0.007871,
        -0.021830 0.005042 0.007871,
        -0.022354 0.003102 0.007871,
        -0.022494 0.001270 0.007871,
        -0.022217 -0.001364 0.007871,
        -0.012205 0.010865 0.007871,
        -0.041698 -0.008820 0.007871,
        -0.038818 -0.008820 0.007871,
        -0.012002 -0.008820 0.007871,
        0.005113 0.000062 0.007871,
        0.005113 -0.006659 0.007871,
        -0.002809 -0.006659 0.007871,
        -0.002809 -0.008820 0.007871,
        0.007754 -0.008820 0.007871,
        -0.036826 -0.003298 0.007871,
        -0.028694 -0.003298 0.007871,
        -0.026815 -0.008820 0.007871,
      ]
    }
    coordIndex [
      8, 9, 10, -1,
      11, 12, 13, -1,
      13, 12, 14, -1,
      13, 14, 15, -1,
      16, 17, 18, -1,
      8, 10, 19, -1,
      19, 10, 20, -1,
      19, 20, 21, -1,
      21, 20, 22, -1,
      21, 22, 23, -1,
      9, 24, 10, -1,
      10, 24, 25, -1,
      10, 25, 26, -1,
      27, 28, 10, -1,
      10, 28, 29, -1,
      30, 31, 32, -1,
      32, 31, 33, -1,
      29, 34, 10, -1,
      10, 34, 33, -1,
      10, 33, 35, -1,
      35, 33, 31, -1,
      26, 36, 10, -1,
      10, 36, 37, -1,
      10, 37, 27, -1,
      15, 38, 13, -1,
      13, 38, 39, -1,
      13, 39, 40, -1,
      40, 39, 41, -1,
      40, 41, 42, -1,
      43, 44, 22, -1,
      22, 44, 45, -1,
      41, 46, 42, -1,
      42, 46, 47, -1,
      42, 47, 18, -1,
      18, 47, 48, -1,
      18, 48, 16, -1,
      45, 49, 22, -1,
      22, 49, 50, -1,
      22, 50, 23, -1,
      51, 52, 53, -1,
      53, 52, 54, -1,
      53, 54, 55, -1,
      54, 56, 55, -1,
      55, 56, 57, -1,
      55, 57, 12, -1,
      17, 43, 18, -1,
      18, 43, 22, -1,
      18, 22, 58, -1,
      58, 22, 1, -1,
      58, 1, 11, -1,
      11, 1, 59, -1,
      11, 59, 12, -1,
      12, 59, 4, -1,
      12, 4, 55, -1,
      60, 2, 61, -1,
      61, 2, 22, -1,
      61, 22, 53, -1,
      53, 22, 20, -1,
      53, 20, 51, -1,
      62, 63, 2, -1,
      64, 65, 66, -1,
      2, 63, 67, -1,
      68, 69, 70, -1,
      70, 69, 71, -1,
      72, 73, 71, -1,
      71, 73, 74, -1,
      71, 74, 70, -1,
      66, 75, 64, -1,
      64, 75, 76, -1,
      64, 76, 77, -1,
      78, 79, 62, -1,
      62, 79, 80, -1,
      80, 81, 62, -1,
      62, 81, 82, -1,
      62, 82, 83, -1,
      83, 84, 62, -1,
      62, 84, 85, -1,
      62, 85, 64, -1,
      64, 85, 86, -1,
      64, 86, 65, -1,
      78, 62, 87, -1,
      87, 62, 2, -1,
      87, 2, 74, -1,
      74, 2, 60, -1,
      74, 60, 70, -1,
      88, 89, 53, -1,
      53, 90, 73, -1,
      91, 92, 72, -1,
      72, 92, 93, -1,
      72, 93, 73, -1,
      73, 93, 94, -1,
      73, 94, 53, -1,
      53, 94, 95, -1,
      53, 95, 61, -1,
      96, 97, 89, -1,
      89, 97, 98, -1,
      89, 98, 53, -1,
      53, 98, 64, -1,
      53, 64, 90, -1,
      90, 64, 77, -1,
      63, 88, 67, -1,
      67, 88, 53, -1,
      67, 53, 7, -1,
      7, 53, 55, -1,
      1, 0, 59, -1,
      59, 0, 5, -1,
      59, 5, 4, -1,
      3, 2, 6, -1,
      6, 2, 67, -1,
      6, 67, 7, -1,
      5, 0, 6, -1,
      6, 0, 3, -1,
      2, 3, 22, -1,
      22, 3, 0, -1,
      22, 0, 1, -1,
      6, 7, 5, -1,
      5, 7, 55, -1,
      5, 55, 4, -1,
    ]
  }
}

Shape {
  appearance Appearance {
    material Material {
      diffuseColor 0.2510 0.2510 0.2510
      specularColor 0.1255 0.1255 0.1255
      ambientIntensity 0.2
      transparency 0.0000
      shininess 0.5
    }
  }
  geometry IndexedFaceSet {
    ccw TRUE
    solid FALSE
    coord DEF co Coordinate {
      point [
        0.016205 0.008944 0.007871,
        0.018143 0.008727 0.007871,
        0.011948 -0.005835 0.007871,
        0.038002 -0.008820 0.007871,
        0.018169 -0.008940 0.007871,
        0.027919 -0.008820 0.007871,
        0.019437 -0.008808 0.007871,
        0.021347 -0.008151 0.007871,
        0.025192 0.005697 0.007871,
        0.024035 0.007535 0.007871,
        0.035361 0.010865 0.007871,
        0.013813 0.008634 0.007871,
        0.011595 -0.005639 0.007871,
        0.011595 0.007684 0.007871,
        0.011595 0.010325 0.007871,
        0.019617 0.008195 0.007871,
        0.020979 0.007284 0.007871,
        0.022168 0.005971 0.007871,
        0.023598 0.000813 0.007871,
        0.023399 -0.001319 0.007871,
        0.022864 -0.003012 0.007871,
        0.018484 -0.006693 0.007871,
        0.016648 -0.006900 0.007871,
        0.019918 -0.006165 0.007871,
        0.021126 -0.005351 0.007871,
        0.022050 -0.004377 0.007871,
        0.014035 -0.006609 0.007871,
        0.022980 0.004452 0.007871,
        0.023504 0.002344 0.007871,
        0.022931 -0.007139 0.007871,
        0.024409 -0.005582 0.007871,
        0.027919 -0.006659 0.007871,
        0.025457 -0.003710 0.007871,
        0.035361 -0.006659 0.007871,
        0.022253 0.009242 0.007871,
        0.020381 0.010314 0.007871,
        0.018187 0.010947 0.007871,
        0.026049 -0.001626 0.007871,
        0.026239 0.000651 0.007871,
        0.025956 0.003450 0.007871,
        0.016228 0.011105 0.007871,
        0.013871 0.010943 0.007871,
        0.011595 -0.007800 0.007871,
        0.013693 -0.008661 0.007871,
        0.015683 -0.008940 0.007871,
        0.016473 -0.009051 0.007871,
        0.017011 -0.009060 0.007871,
        0.038002 0.010865 0.007871,
        -0.002328 0.010865 0.007871,
        0.007754 0.010865 0.007871,
        -0.031376 0.010865 0.007871,
        -0.034017 0.010865 0.007871,
        -0.023934 -0.008820 0.007871,
        -0.021512 -0.003422 0.007871,
        -0.020384 -0.005183 0.007871,
        0.005113 0.008705 0.007871,
        0.005113 0.002223 0.007871,
        -0.002328 0.008705 0.007871,
        -0.001848 0.002223 0.007871,
        -0.001848 0.000062 0.007871,
        -0.006650 -0.008820 0.007871,
        -0.006650 0.010865 0.007871,
        -0.018764 -0.006735 0.007871,
        -0.016710 -0.007930 0.007871,
        -0.014442 -0.008607 0.007871,
        -0.015049 0.010561 0.007871,
        -0.017343 0.009757 0.007871,
        -0.019488 0.008322 0.007871,
        -0.019534 0.008282 0.007871,
        -0.020919 0.006737 0.007871,
        -0.021830 0.005042 0.007871,
        -0.022354 0.003102 0.007871,
        -0.022494 0.001270 0.007871,
        -0.022217 -0.001364 0.007871,
        -0.012205 0.010865 0.007871,
        -0.041698 -0.008820 0.007871,
        -0.038818 -0.008820 0.007871,
        -0.012002 -0.008820 0.007871,
        0.005113 0.000062 0.007871,
        0.005113 -0.006659 0.007871,
        -0.002809 -0.006659 0.007871,
        -0.002809 -0.008820 0.007871,
        0.007754 -0.008820 0.007871,
        -0.036826 -0.003298 0.007871,
        -0.028694 -0.003298 0.007871,
        -0.026815 -0.008820 0.007871,
        -0.034017 0.010865 0.009839,
        -0.041698 -0.008820 0.009839,
        -0.038818 -0.008820 0.009839,
        -0.036826 -0.003298 0.009839,
        -0.028694 -0.003298 0.009839,
        -0.026815 -0.008820 0.009839,
        -0.023934 -0.008820 0.009839,
        -0.031376 0.010865 0.009839,
        -0.029358 -0.001138 0.009839,
        -0.035941 -0.001138 0.009839,
        -0.032295 0.007084 0.009839,
        -0.032484 0.007767 0.009839,
        -0.032610 0.008465 0.009839,
        -0.032674 0.008465 0.009839,
        -0.032802 0.007769 0.009839,
        -0.032978 0.007084 0.009839,
        -0.029358 -0.001138 0.007871,
        -0.035941 -0.001138 0.007871,
        -0.032295 0.007084 0.007871,
        -0.032484 0.007767 0.007871,
        -0.032610 0.008465 0.007871,
        -0.032674 0.008465 0.007871,
        -0.032802 0.007769 0.007871,
        -0.032978 0.007084 0.007871,
        -0.012002 -0.008820 0.009839,
        -0.006650 -0.008820 0.009839,
        -0.006650 0.010865 0.009839,
        -0.012205 0.010865 0.009839,
        -0.022494 0.001270 0.009839,
        -0.022354 0.003102 0.009839,
        -0.021830 0.005042 0.009839,
        -0.020919 0.006737 0.009839,
        -0.019534 0.008282 0.009839,
        -0.019488 0.008322 0.009839,
        -0.017343 0.009757 0.009839,
        -0.015049 0.010561 0.009839,
        -0.014442 -0.008607 0.009839,
        -0.016710 -0.007930 0.009839,
        -0.018764 -0.006735 0.009839,
        -0.020384 -0.005183 0.009839,
        -0.021512 -0.003422 0.009839,
        -0.022217 -0.001364 0.009839,
        -0.018541 0.005946 0.009839,
        -0.017585 0.006961 0.009839,
        -0.016146 0.007889 0.009839,
        -0.014521 0.008457 0.009839,
        -0.012193 0.008705 0.009839,
        -0.009290 0.008705 0.009839,
        -0.009290 -0.006659 0.009839,
        -0.012085 -0.006659 0.009839,
        -0.014161 -0.006466 0.009839,
        -0.015818 -0.005949 0.009839,
        -0.017161 -0.005152 0.009839,
        -0.018265 -0.004061 0.009839,
        -0.019095 -0.002704 0.009839,
        -0.019672 -0.000854 0.009839,
        -0.019853 0.001214 0.009839,
        -0.019686 0.003173 0.009839,
        -0.019225 0.004732 0.009839,
        -0.012193 0.008705 0.007871,
        -0.009290 0.008705 0.007871,
        -0.014521 0.008457 0.007871,
        -0.016146 0.007889 0.007871,
        -0.017585 0.006961 0.007871,
        -0.018541 0.005946 0.007871,
        -0.019225 0.004732 0.007871,
        -0.019686 0.003173 0.007871,
        -0.019853 0.001214 0.007871,
        -0.019672 -0.000854 0.007871,
        -0.019095 -0.002704 0.007871,
        -0.018265 -0.004061 0.007871,
        -0.017161 -0.005152 0.007871,
        -0.015818 -0.005949 0.007871,
        -0.014161 -0.006466 0.007871,
        -0.012085 -0.006659 0.007871,
        -0.009290 -0.006659 0.007871,
        -0.002809 -0.006659 0.009839,
        -0.002809 -0.008820 0.009839,
        0.007754 -0.008820 0.009839,
        0.007754 0.010865 0.009839,
        -0.002328 0.010865 0.009839,
        -0.002328 0.008705 0.009839,
        0.005113 0.008705 0.009839,
        0.005113 0.002223 0.009839,
        -0.001848 0.002223 0.009839,
        -0.001848 0.000062 0.009839,
        0.005113 0.000062 0.009839,
        0.005113 -0.006659 0.009839,
        0.011595 -0.005639 0.009839,
        0.011595 -0.007800 0.009839,
        0.013693 -0.008661 0.009839,
        0.017011 -0.009060 0.009839,
        0.016473 -0.009051 0.009839,
        0.026239 0.000651 0.009839,
        0.026049 -0.001626 0.009839,
        0.025457 -0.003710 0.009839,
        0.024409 -0.005582 0.009839,
        0.022931 -0.007139 0.009839,
        0.021347 -0.008151 0.009839,
        0.019437 -0.008808 0.009839,
        0.016228 0.011105 0.009839,
        0.018187 0.010947 0.009839,
        0.020381 0.010314 0.009839,
        0.022253 0.009242 0.009839,
        0.024035 0.007535 0.009839,
        0.025192 0.005697 0.009839,
        0.025956 0.003450 0.009839,
        0.011595 0.010325 0.009839,
        0.013871 0.010943 0.009839,
        0.011595 0.007684 0.009839,
        0.016205 0.008944 0.009839,
        0.013813 0.008634 0.009839,
        0.023598 0.000813 0.009839,
        0.023504 0.002344 0.009839,
        0.022980 0.004452 0.009839,
        0.022168 0.005971 0.009839,
        0.020979 0.007284 0.009839,
        0.019617 0.008195 0.009839,
        0.018143 0.008727 0.009839,
        0.016648 -0.006900 0.009839,
        0.018484 -0.006693 0.009839,
        0.019918 -0.006165 0.009839,
        0.021126 -0.005351 0.009839,
        0.022050 -0.004377 0.009839,
        0.022864 -0.003012 0.009839,
        0.023399 -0.001319 0.009839,
        0.011948 -0.005835 0.009839,
        0.014035 -0.006609 0.009839,
        0.027919 -0.006659 0.009839,
        0.027919 -0.008820 0.009839,
        0.038002 -0.008820 0.009839,
        0.038002 0.010865 0.009839,
        0.035361 0.010865 0.009839,
        0.035361 -0.006659 0.009839,
      ]
    }
    coordIndex [
      86, 87, 51, -1,
      51, 87, 75, -1,
      87, 88, 75, -1,
      75, 88, 76, -1,
      88, 89, 76, -1,
      76, 89, 83, -1,
      89, 90, 83, -1,
      83, 90, 84, -1,
      90, 91, 84, -1,
      84, 91, 85, -1,
      91, 92, 85, -1,
      85, 92, 52, -1,
      92, 93, 52, -1,
      52, 93, 50, -1,
      93, 86, 50, -1,
      50, 86, 51, -1,
      94, 90, 95, -1,
      95, 90, 89, -1,
      96, 93, 94, -1,
      94, 93, 92, -1,
      94, 92, 90, -1,
      90, 92, 91, -1,
      96, 97, 93, -1,
      93, 97, 98, -1,
      93, 98, 86, -1,
      86, 98, 99, -1,
      86, 99, 100, -1,
      100, 101, 86, -1,
      86, 101, 95, -1,
      86, 95, 87, -1,
      87, 95, 89, -1,
      87, 89, 88, -1,
      94, 95, 102, -1,
      102, 95, 103, -1,
      96, 94, 104, -1,
      104, 94, 102, -1,
      96, 104, 105, -1,
      96, 105, 97, -1,
      97, 105, 106, -1,
      97, 106, 98, -1,
      99, 98, 107, -1,
      107, 98, 106, -1,
      99, 107, 108, -1,
      99, 108, 100, -1,
      100, 108, 109, -1,
      100, 109, 101, -1,
      95, 101, 103, -1,
      103, 101, 109, -1,
      110, 111, 77, -1,
      77, 111, 60, -1,
      111, 112, 60, -1,
      60, 112, 61, -1,
      112, 113, 61, -1,
      61, 113, 74, -1,
      114, 72, 71, -1,
      114, 71, 115, -1,
      115, 71, 70, -1,
      115, 70, 116, -1,
      116, 70, 69, -1,
      116, 69, 117, -1,
      117, 69, 68, -1,
      117, 68, 118, -1,
      118, 68, 67, -1,
      118, 67, 119, -1,
      119, 67, 66, -1,
      119, 66, 120, -1,
      120, 66, 65, -1,
      120, 65, 121, -1,
      121, 65, 74, -1,
      121, 74, 113, -1,
      110, 77, 64, -1,
      110, 64, 122, -1,
      122, 64, 63, -1,
      122, 63, 123, -1,
      123, 63, 62, -1,
      123, 62, 124, -1,
      124, 62, 54, -1,
      124, 54, 125, -1,
      125, 54, 53, -1,
      125, 53, 126, -1,
      126, 53, 73, -1,
      126, 73, 127, -1,
      127, 73, 72, -1,
      127, 72, 114, -1,
      116, 117, 128, -1,
      128, 117, 118, -1,
      128, 118, 129, -1,
      129, 118, 119, -1,
      129, 119, 130, -1,
      130, 119, 120, -1,
      130, 120, 131, -1,
      131, 120, 121, -1,
      131, 121, 132, -1,
      132, 121, 113, -1,
      132, 113, 133, -1,
      133, 113, 112, -1,
      133, 112, 134, -1,
      134, 112, 111, -1,
      134, 111, 135, -1,
      135, 111, 110, -1,
      135, 110, 136, -1,
      136, 110, 122, -1,
      136, 122, 137, -1,
      137, 122, 123, -1,
      137, 123, 138, -1,
      138, 123, 124, -1,
      138, 124, 139, -1,
      139, 124, 125, -1,
      139, 125, 140, -1,
      140, 125, 126, -1,
      140, 126, 141, -1,
      141, 126, 127, -1,
      141, 127, 142, -1,
      142, 127, 114, -1,
      142, 114, 143, -1,
      143, 114, 115, -1,
      143, 115, 144, -1,
      144, 115, 116, -1,
      144, 116, 128, -1,
      132, 133, 145, -1,
      145, 133, 146, -1,
      132, 145, 147, -1,
      132, 147, 131, -1,
      131, 147, 148, -1,
      131, 148, 130, -1,
      130, 148, 149, -1,
      130, 149, 129, -1,
      129, 149, 150, -1,
      129, 150, 128, -1,
      128, 150, 151, -1,
      128, 151, 144, -1,
      144, 151, 152, -1,
      144, 152, 143, -1,
      143, 152, 153, -1,
      143, 153, 142, -1,
      142, 153, 154, -1,
      142, 154, 141, -1,
      141, 154, 155, -1,
      141, 155, 140, -1,
      140, 155, 156, -1,
      140, 156, 139, -1,
      139, 156, 157, -1,
      139, 157, 138, -1,
      138, 157, 158, -1,
      138, 158, 137, -1,
      137, 158, 159, -1,
      137, 159, 136, -1,
      136, 159, 160, -1,
      136, 160, 135, -1,
      134, 135, 161, -1,
      161, 135, 160, -1,
      133, 134, 146, -1,
      146, 134, 161, -1,
      162, 163, 80, -1,
      80, 163, 81, -1,
      163, 164, 81, -1,
      81, 164, 82, -1,
      164, 165, 82, -1,
      82, 165, 49, -1,
      165, 166, 49, -1,
      49, 166, 48, -1,
      166, 167, 48, -1,
      48, 167, 57, -1,
      167, 168, 57, -1,
      57, 168, 55, -1,
      168, 169, 55, -1,
      55, 169, 56, -1,
      169, 170, 56, -1,
      56, 170, 58, -1,
      170, 171, 58, -1,
      58, 171, 59, -1,
      171, 172, 59, -1,
      59, 172, 78, -1,
      172, 173, 78, -1,
      78, 173, 79, -1,
      173, 162, 79, -1,
      79, 162, 80, -1,
      164, 163, 162, -1,
      162, 173, 164, -1,
      164, 173, 172, -1,
      164, 172, 165, -1,
      167, 166, 168, -1,
      168, 166, 165, -1,
      168, 165, 169, -1,
      169, 165, 172, -1,
      169, 172, 170, -1,
      170, 172, 171, -1,
      174, 175, 12, -1,
      12, 175, 42, -1,
      42, 175, 176, -1,
      177, 46, 45, -1,
      177, 45, 178, -1,
      178, 45, 44, -1,
      178, 44, 176, -1,
      176, 44, 43, -1,
      176, 43, 42, -1,
      179, 38, 37, -1,
      179, 37, 180, -1,
      180, 37, 32, -1,
      180, 32, 181, -1,
      181, 32, 30, -1,
      181, 30, 182, -1,
      182, 30, 29, -1,
      182, 29, 183, -1,
      183, 29, 7, -1,
      183, 7, 184, -1,
      184, 7, 6, -1,
      184, 6, 185, -1,
      185, 6, 177, -1,
      177, 6, 4, -1,
      177, 4, 46, -1,
      186, 40, 36, -1,
      186, 36, 187, -1,
      187, 36, 35, -1,
      187, 35, 188, -1,
      188, 35, 34, -1,
      188, 34, 189, -1,
      189, 34, 9, -1,
      189, 9, 190, -1,
      190, 9, 8, -1,
      190, 8, 191, -1,
      191, 8, 39, -1,
      191, 39, 192, -1,
      192, 39, 38, -1,
      192, 38, 179, -1,
      193, 14, 41, -1,
      193, 41, 194, -1,
      194, 41, 40, -1,
      194, 40, 186, -1,
      193, 195, 14, -1,
      14, 195, 13, -1,
      196, 0, 11, -1,
      196, 11, 197, -1,
      197, 11, 13, -1,
      197, 13, 195, -1,
      198, 18, 28, -1,
      198, 28, 199, -1,
      199, 28, 27, -1,
      199, 27, 200, -1,
      200, 27, 17, -1,
      200, 17, 201, -1,
      201, 17, 16, -1,
      201, 16, 202, -1,
      202, 16, 15, -1,
      202, 15, 203, -1,
      203, 15, 1, -1,
      203, 1, 204, -1,
      204, 1, 0, -1,
      204, 0, 196, -1,
      205, 22, 21, -1,
      205, 21, 206, -1,
      206, 21, 23, -1,
      206, 23, 207, -1,
      207, 23, 24, -1,
      207, 24, 208, -1,
      208, 24, 25, -1,
      208, 25, 209, -1,
      209, 25, 20, -1,
      209, 20, 210, -1,
      210, 20, 19, -1,
      210, 19, 211, -1,
      211, 19, 18, -1,
      211, 18, 198, -1,
      174, 12, 2, -1,
      174, 2, 212, -1,
      212, 2, 26, -1,
      212, 26, 213, -1,
      213, 26, 22, -1,
      213, 22, 205, -1,
      206, 177, 205, -1,
      205, 177, 178, -1,
      205, 178, 213, -1,
      213, 178, 176, -1,
      213, 176, 212, -1,
      212, 176, 175, -1,
      212, 175, 174, -1,
      195, 193, 197, -1,
      197, 193, 194, -1,
      197, 194, 196, -1,
      196, 194, 186, -1,
      196, 186, 204, -1,
      204, 186, 187, -1,
      204, 187, 203, -1,
      203, 187, 188, -1,
      203, 188, 202, -1,
      202, 188, 189, -1,
      202, 189, 201, -1,
      201, 189, 190, -1,
      201, 190, 200, -1,
      200, 190, 191, -1,
      200, 191, 199, -1,
      199, 191, 192, -1,
      199, 192, 198, -1,
      198, 192, 179, -1,
      198, 179, 211, -1,
      211, 179, 180, -1,
      211, 180, 210, -1,
      210, 180, 181, -1,
      210, 181, 209, -1,
      209, 181, 182, -1,
      209, 182, 208, -1,
      208, 182, 183, -1,
      208, 183, 207, -1,
      207, 183, 184, -1,
      207, 184, 206, -1,
      206, 184, 185, -1,
      206, 185, 177, -1,
      214, 215, 31, -1,
      31, 215, 5, -1,
      215, 216, 5, -1,
      5, 216, 3, -1,
      216, 217, 3, -1,
      3, 217, 47, -1,
      217, 218, 47, -1,
      47, 218, 10, -1,
      218, 219, 10, -1,
      10, 219, 33, -1,
      219, 214, 33, -1,
      33, 214, 31, -1,
      218, 217, 219, -1,
      219, 217, 216, -1,
      219, 216, 214, -1,
      214, 216, 215, -1,
    ]
  }
}

Shape {
  appearance Appearance {
    material Material {
      diffuseColor 1.0000 1.0000 1.0000
      specularColor 0.5020 0.5020 0.5020
      ambientIntensity 0.2
      transparency 0.0000
      shininess 0.5
    }
  }
  geometry IndexedFaceSet {
    ccw TRUE
    solid FALSE
    coord DEF co Coordinate {
      point [
        -0.029358 -0.001138 0.007871,
        -0.035941 -0.001138 0.007871,
        -0.032295 0.007084 0.007871,
        -0.032484 0.007767 0.007871,
        -0.032610 0.008465 0.007871,
        -0.032674 0.008465 0.007871,
        -0.032802 0.007769 0.007871,
        -0.032978 0.007084 0.007871,
        -0.012193 0.008705 0.007871,
        -0.009290 0.008705 0.007871,
        -0.014521 0.008457 0.007871,
        -0.016146 0.007889 0.007871,
        -0.017585 0.006961 0.007871,
        -0.018541 0.005946 0.007871,
        -0.019225 0.004732 0.007871,
        -0.019686 0.003173 0.007871,
        -0.019853 0.001214 0.007871,
        -0.019672 -0.000854 0.007871,
        -0.019095 -0.002704 0.007871,
        -0.018265 -0.004061 0.007871,
        -0.017161 -0.005152 0.007871,
        -0.015818 -0.005949 0.007871,
        -0.014161 -0.006466 0.007871,
        -0.012085 -0.006659 0.007871,
        -0.009290 -0.006659 0.007871,
      ]
    }
    coordIndex [
      0, 1, 2, -1,
      2, 1, 7, -1,
      2, 7, 3, -1,
      3, 7, 6, -1,
      3, 6, 4, -1,
      4, 6, 5, -1,
      9, 24, 8, -1,
      8, 24, 23, -1,
      8, 23, 22, -1,
      16, 15, 8, -1,
      8, 15, 14, -1,
      8, 14, 10, -1,
      22, 21, 8, -1,
      8, 21, 20, -1,
      8, 20, 19, -1,
      19, 18, 8, -1,
      8, 18, 17, -1,
      8, 17, 16, -1,
      13, 12, 14, -1,
      14, 12, 11, -1,
      14, 11, 10, -1,
    ]
  }
}
