#VRML V2.0 utf8

Shape {
  appearance Appearance {
    material Material {
      diffuseColor 0.2510 0.2510 0.2510
      specularColor 0.1255 0.1255 0.1255
      ambientIntensity 0.2
      transparency 0.0000
      shininess 0.5
    }
  }
  geometry IndexedFaceSet {
    ccw TRUE
    solid FALSE
    coord DEF co Coordinate {
      point [
        -0.037517 0.675571 -0.423228,
        -0.029835 -0.033156 -0.423228,
        -0.037517 -0.042279 -0.423228,
        -0.029835 -0.041798 -0.423228,
        0.012416 -0.041798 -0.423228,
        -0.027914 0.028299 -0.423228,
        0.001854 0.028299 -0.423228,
        0.001854 0.002373 -0.423228,
        0.027780 -0.037718 -0.423228,
        0.027780 -0.029075 -0.423228,
        0.012416 0.036942 -0.423228,
        0.001854 -0.006270 -0.423228,
        0.001854 -0.033156 -0.423228,
        -0.025994 -0.006270 -0.423228,
        -0.025994 0.002373 -0.423228,
        0.066781 -0.039126 -0.423228,
        0.093077 -0.041798 -0.423228,
        0.059149 -0.041753 -0.423228,
        0.054076 -0.042279 -0.423228,
        -0.027914 0.036942 -0.423228,
        0.082200 0.016202 -0.423228,
        0.077584 0.023564 -0.423228,
        0.122844 0.036942 -0.423228,
        0.053973 0.028389 -0.423228,
        0.059867 0.026262 -0.423228,
        0.029191 -0.029857 -0.423228,
        0.065317 0.022616 -0.423228,
        0.070072 0.017367 -0.423228,
        0.075793 -0.003269 -0.423228,
        0.074995 -0.011793 -0.423228,
        0.072856 -0.018566 -0.423228,
        0.055335 -0.033293 -0.423228,
        0.047990 -0.034117 -0.423228,
        0.061072 -0.031181 -0.423228,
        0.065904 -0.027924 -0.423228,
        0.069599 -0.024026 -0.423228,
        0.037538 -0.032957 -0.423228,
        0.073318 0.011287 -0.423228,
        0.075417 0.002857 -0.423228,
        0.070476 0.030401 -0.423228,
        0.133407 0.036942 -0.423228,
        0.385827 0.675571 -0.423228,
        0.133407 -0.041798 -0.423228,
        0.385827 -0.042279 -0.423228,
        0.073115 -0.035081 -0.423228,
        0.079029 -0.028855 -0.423228,
        0.093077 -0.033156 -0.423228,
        0.083224 -0.021368 -0.423228,
        0.122844 -0.033156 -0.423228,
        0.085594 -0.013033 -0.423228,
        0.086355 -0.003914 -0.423228,
        0.085222 0.007281 -0.423228,
        0.062996 0.034706 -0.423228,
        0.054219 0.037256 -0.423228,
        0.046310 0.037902 -0.423228,
        0.036884 0.037251 -0.423228,
        0.027780 0.034781 -0.423228,
        0.027780 0.024218 -0.423228,
        0.036649 0.028016 -0.423228,
        0.046220 0.029259 -0.423228,
        0.049446 -0.042759 -0.423228,
        0.385827 -0.675571 -0.423228,
        0.047293 -0.042722 -0.423228,
        -0.037517 -0.675571 -0.423228,
        0.044130 -0.042279 -0.423228,
        -0.385827 -0.675571 -0.423228,
        -0.385827 -0.042279 -0.423228,
        0.036173 -0.041164 -0.423228,
        -0.114336 -0.041798 -0.423228,
        -0.104643 -0.020218 -0.423228,
        -0.100128 -0.027261 -0.423228,
        -0.173872 -0.041798 -0.423228,
        -0.185394 -0.041798 -0.423228,
        -0.154667 0.036942 -0.423228,
        -0.385827 0.675571 -0.423228,
        -0.144104 0.036942 -0.423228,
        -0.093646 -0.033466 -0.423228,
        -0.085425 -0.038244 -0.423228,
        -0.076352 -0.040948 -0.423228,
        -0.066609 -0.041798 -0.423228,
        -0.045198 -0.041798 -0.423228,
        -0.045198 0.036942 -0.423228,
        -0.067419 0.036942 -0.423228,
        -0.096660 0.026675 -0.423228,
        -0.102228 0.020500 -0.423228,
        -0.105888 0.013729 -0.423228,
        -0.078795 0.035726 -0.423228,
        -0.088008 0.032491 -0.423228,
        -0.096578 0.026747 -0.423228,
        -0.125859 -0.041798 -0.423228,
        -0.133376 -0.019713 -0.423228,
        -0.165904 -0.019713 -0.423228,
        -0.108003 0.005971 -0.423228,
        -0.108575 -0.001438 -0.423228,
        -0.107470 -0.011976 -0.423228,
        0.025013 0.064904 0.423228,
        0.018341 0.058500 0.423228,
        0.104763 0.049385 0.423228,
        0.025691 -0.039934 0.423228,
        0.041815 -0.023876 0.423228,
        0.062452 -0.008270 0.423228,
        -0.048768 0.015975 0.423228,
        -0.061404 0.010038 0.423228,
        -0.061404 0.009513 0.423228,
        0.392762 0.102530 0.423228,
        0.404371 0.098475 0.423228,
        0.809429 0.675571 0.423228,
        0.294411 -0.049603 0.423228,
        0.265604 -0.049603 0.423228,
        0.809429 -0.675571 0.423228,
        0.265604 -0.095214 0.423228,
        0.133570 -0.095214 0.423228,
        0.241598 -0.095214 0.423228,
        0.133570 -0.073609 0.423228,
        0.241598 -0.049603 0.423228,
        0.150375 -0.049603 0.423228,
        0.349492 0.097346 0.423228,
        0.361683 0.102055 0.423228,
        -0.048485 0.006608 0.423228,
        -0.038263 0.001630 0.423228,
        -0.039639 0.023696 0.423228,
        -0.029716 -0.005550 0.423228,
        -0.023101 -0.014771 0.423228,
        0.011139 -0.085462 0.423228,
        0.012831 -0.066894 0.423228,
        -0.017668 -0.038387 0.423228,
        0.017711 -0.052359 0.423228,
        -0.019204 -0.025083 0.423228,
        0.431909 -0.054536 0.423228,
        0.423976 -0.070381 0.423228,
        0.414593 0.091696 0.423228,
        0.422528 0.083077 0.423228,
        0.430771 0.068271 0.423228,
        0.360006 -0.096101 0.423228,
        0.348620 -0.092029 0.423228,
        0.338755 -0.085484 0.423228,
        0.313307 0.032180 0.423228,
        0.320213 0.060820 0.423228,
        0.265604 0.101636 0.423228,
        0.329909 0.079659 0.423228,
        0.338964 0.089929 0.423228,
        0.064590 -0.006767 0.423228,
        0.089076 0.013106 0.423228,
        0.097705 0.023756 0.423228,
        0.414419 -0.082113 0.423228,
        0.403593 -0.090308 0.423228,
        0.391163 -0.095413 0.423228,
        -0.023476 -0.064141 0.423228,
        -0.030545 -0.074470 0.423228,
        0.011139 -0.095214 0.423228,
        0.113411 0.006289 0.423228,
        0.094625 -0.011544 0.423228,
        0.150375 -0.029122 0.423228,
        0.265604 -0.027997 0.423228,
        0.294411 -0.027997 0.423228,
        0.311216 -0.000615 0.423228,
        0.377609 0.104014 0.423228,
        0.378433 0.104037 0.423228,
        0.102376 0.033733 0.423228,
        0.104589 0.045183 0.423228,
        -0.035923 0.082660 0.423228,
        -0.031145 0.074958 0.423228,
        -0.028171 0.065972 0.423228,
        0.437835 0.043190 0.423228,
        0.440849 0.004036 0.423228,
        0.438699 -0.027634 0.423228,
        0.329048 -0.074867 0.423228,
        0.320434 -0.058957 0.423228,
        0.313500 -0.032725 0.423228,
        0.239948 0.101636 0.423228,
        -0.438340 0.675571 0.423228,
        0.038634 0.074498 0.423228,
        0.103880 0.057916 0.423228,
        0.101631 0.064445 0.423228,
        0.087505 0.078254 0.423228,
        0.078248 0.081352 0.423228,
        0.066878 0.082431 0.423228,
        0.052115 0.080250 0.423228,
        -0.027271 0.056400 0.423228,
        -0.028735 0.043961 0.423228,
        -0.032680 0.033637 0.423228,
        0.378170 -0.097464 0.423228,
        0.374007 -0.097615 0.423228,
        -0.019343 -0.053024 0.423228,
        -0.041204 -0.083854 0.423228,
        -0.054124 -0.090568 0.423228,
        -0.438340 -0.675571 0.423228,
        -0.071285 -0.094643 0.423228,
        0.098149 0.069956 0.423228,
        0.093591 0.074416 0.423228,
        0.084770 -0.018770 0.423228,
        0.054045 -0.041260 0.423228,
        0.044559 -0.050628 0.423228,
        -0.083235 0.101636 0.423228,
        -0.066710 0.100138 0.423228,
        0.045100 0.100362 0.423228,
        0.060635 0.103644 0.423228,
        0.040220 -0.057308 0.423228,
        0.037842 -0.064343 0.423228,
        0.036946 -0.073609 0.423228,
        -0.081622 -0.095214 0.423228,
        -0.140100 -0.095214 0.423228,
        -0.140100 0.101636 0.423228,
        0.031781 0.093854 0.423228,
        0.018341 0.082581 0.423228,
        -0.054002 0.096203 0.423228,
        -0.043002 0.089630 0.423228,
        0.069279 0.104037 0.423228,
        0.085999 0.102462 0.423228,
        0.099254 0.098231 0.423228,
        0.111178 0.090833 0.423228,
        0.119130 0.082655 0.423228,
        0.124479 0.073521 0.423228,
        0.226303 0.076606 0.423228,
        0.127714 0.063037 0.423228,
        0.128769 0.051298 0.423228,
        0.196518 0.030165 0.423228,
        0.126833 0.033206 0.423228,
        0.121324 0.018163 0.423228,
        0.838879 -0.285433 -0.086614,
        0.846457 -0.285433 0.000000,
        0.846457 -0.712598 0.000000,
        0.846457 0.712598 0.000000,
        0.846457 0.285433 0.000000,
        0.813562 0.679704 -0.375984,
        0.838879 0.285433 -0.086614,
        0.813562 -0.679704 -0.375984,
        0.813562 -0.285433 -0.375984,
        0.813562 0.285433 -0.375984,
        0.610236 -0.285433 -0.375984,
        0.433071 -0.679704 -0.375984,
        0.610236 0.285433 -0.375984,
        0.433071 0.679704 -0.375984,
        -0.838879 0.285433 -0.086614,
        -0.846457 0.285433 0.000000,
        -0.846457 0.712598 0.000000,
        -0.846457 -0.712598 0.000000,
        -0.846457 -0.285433 0.000000,
        -0.813562 -0.679704 -0.375984,
        -0.838879 -0.285433 -0.086614,
        -0.813562 0.679704 -0.375984,
        -0.813562 0.285433 -0.375984,
        -0.813562 -0.285433 -0.375984,
        -0.610236 0.285433 -0.375984,
        -0.433071 0.679704 -0.375984,
        -0.610236 -0.285433 -0.375984,
        -0.433071 -0.679704 -0.375984,
        -0.438340 0.675605 0.422835,
        -0.512189 0.675605 0.422835,
        -0.512189 0.675571 0.423228,
        -0.809429 0.675571 0.423228,
        -0.809429 -0.675571 0.423228,
        -0.512189 -0.675571 0.423228,
        -0.512189 -0.675605 0.422835,
        -0.438340 -0.675605 0.422835,
      ]
    }
    coordIndex [
      0, 1, 2, -1,
      2, 1, 3, -1,
      2, 3, 4, -1,
      5, 6, 7, -1,
      8, 4, 9, -1,
      9, 4, 10, -1,
      11, 12, 13, -1,
      13, 12, 1, -1,
      13, 1, 14, -1,
      15, 16, 17, -1,
      17, 16, 18, -1,
      7, 14, 5, -1,
      5, 14, 1, -1,
      5, 1, 19, -1,
      19, 1, 0, -1,
      19, 0, 10, -1,
      20, 21, 22, -1,
      23, 24, 25, -1,
      25, 24, 26, -1,
      25, 26, 27, -1,
      28, 29, 25, -1,
      25, 29, 30, -1,
      31, 32, 33, -1,
      33, 32, 34, -1,
      30, 35, 25, -1,
      25, 35, 34, -1,
      25, 34, 36, -1,
      36, 34, 32, -1,
      27, 37, 25, -1,
      25, 37, 38, -1,
      25, 38, 28, -1,
      21, 39, 22, -1,
      22, 39, 0, -1,
      22, 0, 40, -1,
      40, 0, 41, -1,
      40, 41, 42, -1,
      42, 41, 43, -1,
      15, 44, 16, -1,
      16, 44, 45, -1,
      16, 45, 46, -1,
      46, 45, 47, -1,
      46, 47, 48, -1,
      47, 49, 48, -1,
      48, 49, 50, -1,
      48, 50, 22, -1,
      22, 50, 51, -1,
      22, 51, 20, -1,
      39, 52, 0, -1,
      0, 52, 53, -1,
      0, 53, 54, -1,
      54, 55, 0, -1,
      0, 55, 56, -1,
      0, 56, 10, -1,
      10, 56, 57, -1,
      10, 57, 9, -1,
      9, 57, 58, -1,
      9, 58, 25, -1,
      25, 58, 59, -1,
      25, 59, 23, -1,
      16, 42, 18, -1,
      18, 42, 43, -1,
      18, 43, 60, -1,
      60, 43, 61, -1,
      60, 61, 62, -1,
      62, 61, 63, -1,
      62, 63, 64, -1,
      65, 66, 63, -1,
      63, 66, 2, -1,
      63, 2, 64, -1,
      64, 2, 4, -1,
      64, 4, 67, -1,
      67, 4, 8, -1,
      68, 69, 70, -1,
      71, 2, 72, -1,
      72, 2, 66, -1,
      72, 66, 73, -1,
      73, 66, 74, -1,
      73, 74, 75, -1,
      75, 74, 0, -1,
      70, 76, 68, -1,
      68, 76, 77, -1,
      68, 77, 78, -1,
      79, 80, 2, -1,
      2, 80, 81, -1,
      2, 81, 0, -1,
      0, 81, 82, -1,
      83, 84, 75, -1,
      75, 84, 85, -1,
      82, 86, 0, -1,
      0, 86, 87, -1,
      0, 87, 75, -1,
      75, 87, 88, -1,
      75, 88, 83, -1,
      78, 79, 68, -1,
      68, 79, 2, -1,
      68, 2, 89, -1,
      89, 2, 71, -1,
      89, 71, 90, -1,
      90, 71, 91, -1,
      85, 92, 75, -1,
      75, 92, 93, -1,
      75, 93, 68, -1,
      68, 93, 94, -1,
      68, 94, 69, -1,
      95, 96, 97, -1,
      98, 99, 96, -1,
      96, 99, 100, -1,
      101, 102, 103, -1,
      104, 105, 106, -1,
      107, 108, 109, -1,
      109, 108, 110, -1,
      111, 112, 113, -1,
      113, 112, 114, -1,
      113, 114, 115, -1,
      116, 117, 106, -1,
      103, 118, 101, -1,
      101, 118, 119, -1,
      101, 119, 120, -1,
      120, 119, 121, -1,
      120, 121, 122, -1,
      123, 124, 125, -1,
      125, 124, 126, -1,
      125, 126, 127, -1,
      127, 126, 98, -1,
      127, 98, 122, -1,
      122, 98, 96, -1,
      128, 129, 109, -1,
      105, 130, 106, -1,
      106, 130, 131, -1,
      106, 131, 132, -1,
      133, 134, 109, -1,
      109, 134, 135, -1,
      109, 135, 107, -1,
      136, 137, 138, -1,
      138, 137, 139, -1,
      138, 139, 140, -1,
      100, 141, 96, -1,
      96, 141, 142, -1,
      96, 142, 143, -1,
      129, 144, 109, -1,
      109, 144, 145, -1,
      109, 145, 146, -1,
      147, 148, 149, -1,
      150, 151, 152, -1,
      153, 154, 138, -1,
      138, 154, 155, -1,
      138, 155, 136, -1,
      117, 156, 106, -1,
      106, 156, 157, -1,
      106, 157, 104, -1,
      143, 158, 96, -1,
      96, 158, 159, -1,
      96, 159, 97, -1,
      160, 161, 96, -1,
      96, 161, 162, -1,
      132, 163, 106, -1,
      106, 163, 164, -1,
      106, 164, 109, -1,
      109, 164, 165, -1,
      109, 165, 128, -1,
      135, 166, 107, -1,
      107, 166, 167, -1,
      107, 167, 154, -1,
      154, 167, 168, -1,
      154, 168, 155, -1,
      140, 116, 138, -1,
      138, 116, 106, -1,
      138, 106, 169, -1,
      169, 106, 170, -1,
      95, 97, 171, -1,
      171, 97, 172, -1,
      171, 172, 173, -1,
      174, 175, 171, -1,
      171, 175, 176, -1,
      171, 176, 177, -1,
      162, 178, 96, -1,
      96, 178, 179, -1,
      96, 179, 122, -1,
      122, 179, 180, -1,
      122, 180, 120, -1,
      146, 181, 109, -1,
      109, 181, 182, -1,
      109, 182, 133, -1,
      123, 125, 149, -1,
      149, 125, 183, -1,
      149, 183, 147, -1,
      184, 185, 186, -1,
      186, 185, 187, -1,
      173, 188, 171, -1,
      171, 188, 189, -1,
      171, 189, 174, -1,
      148, 184, 149, -1,
      149, 184, 186, -1,
      149, 186, 111, -1,
      111, 186, 109, -1,
      111, 109, 112, -1,
      112, 109, 110, -1,
      152, 151, 115, -1,
      115, 151, 190, -1,
      115, 190, 113, -1,
      113, 190, 191, -1,
      113, 191, 192, -1,
      193, 194, 170, -1,
      170, 195, 196, -1,
      192, 197, 113, -1,
      113, 197, 198, -1,
      113, 198, 199, -1,
      187, 200, 186, -1,
      186, 200, 201, -1,
      186, 201, 170, -1,
      170, 201, 202, -1,
      170, 202, 193, -1,
      195, 170, 203, -1,
      203, 170, 194, -1,
      203, 194, 204, -1,
      204, 194, 205, -1,
      204, 205, 96, -1,
      96, 205, 206, -1,
      96, 206, 160, -1,
      196, 207, 170, -1,
      170, 207, 208, -1,
      170, 208, 169, -1,
      169, 208, 209, -1,
      169, 209, 210, -1,
      210, 211, 169, -1,
      169, 211, 212, -1,
      169, 212, 213, -1,
      212, 214, 213, -1,
      213, 214, 215, -1,
      213, 215, 216, -1,
      216, 215, 217, -1,
      216, 217, 152, -1,
      152, 217, 218, -1,
      152, 218, 150, -1,
      219, 220, 221, -1,
      222, 223, 224, -1,
      224, 223, 225, -1,
      221, 226, 219, -1,
      219, 226, 227, -1,
      219, 227, 225, -1,
      225, 227, 228, -1,
      225, 228, 224, -1,
      227, 226, 229, -1,
      229, 226, 230, -1,
      229, 230, 231, -1,
      231, 230, 232, -1,
      231, 232, 228, -1,
      228, 232, 224, -1,
      233, 234, 235, -1,
      236, 237, 238, -1,
      238, 237, 239, -1,
      235, 240, 233, -1,
      233, 240, 241, -1,
      233, 241, 239, -1,
      239, 241, 242, -1,
      239, 242, 238, -1,
      241, 240, 243, -1,
      243, 240, 244, -1,
      243, 244, 245, -1,
      245, 244, 246, -1,
      245, 246, 242, -1,
      242, 246, 238, -1,
      230, 226, 221, -1,
      221, 236, 246, -1,
      246, 236, 238, -1,
      246, 65, 63, -1,
      221, 246, 230, -1,
      230, 246, 63, -1,
      230, 63, 61, -1,
      235, 222, 232, -1,
      232, 222, 224, -1,
      0, 74, 244, -1,
      240, 235, 244, -1,
      244, 235, 232, -1,
      244, 232, 0, -1,
      0, 232, 41, -1,
      109, 221, 220, -1,
      109, 220, 106, -1,
      106, 220, 223, -1,
      106, 223, 222, -1,
      170, 106, 247, -1,
      247, 106, 222, -1,
      247, 222, 248, -1,
      248, 222, 235, -1,
      248, 235, 249, -1,
      249, 235, 250, -1,
      250, 235, 234, -1,
      250, 234, 251, -1,
      251, 234, 237, -1,
      251, 237, 236, -1,
      252, 251, 253, -1,
      253, 251, 236, -1,
      253, 236, 254, -1,
      254, 236, 221, -1,
      254, 221, 186, -1,
      186, 221, 109, -1,
      250, 251, 249, -1,
      249, 251, 252, -1,
      41, 232, 43, -1,
      43, 232, 230, -1,
      43, 230, 61, -1,
      65, 246, 66, -1,
      66, 246, 244, -1,
      66, 244, 74, -1,
    ]
  }
}

Shape {
  appearance Appearance {
    material Material {
      diffuseColor 1.0000 1.0000 1.0000
      specularColor 0.5020 0.5020 0.5020
      ambientIntensity 0.2
      transparency 0.0000
      shininess 0.5
    }
  }
  geometry IndexedFaceSet {
    ccw TRUE
    solid FALSE
    coord DEF co Coordinate {
      point [
        0.838879 -0.285433 -0.086614,
        0.846457 -0.285433 0.000000,
        0.846457 0.285433 0.000000,
        0.838879 0.285433 -0.086614,
        0.813562 -0.285433 -0.375984,
        0.813562 0.285433 -0.375984,
        0.610236 -0.285433 -0.375984,
        0.610236 0.285433 -0.375984,
        -0.838879 0.285433 -0.086614,
        -0.846457 0.285433 0.000000,
        -0.846457 -0.285433 0.000000,
        -0.838879 -0.285433 -0.086614,
        -0.813562 0.285433 -0.375984,
        -0.813562 -0.285433 -0.375984,
        -0.610236 0.285433 -0.375984,
        -0.610236 -0.285433 -0.375984,
        -0.944882 0.285433 0.000000,
        -0.944882 -0.285433 0.000000,
        -0.944882 0.285433 -0.375984,
        -0.944882 -0.285433 -0.375984,
        -0.610236 0.285433 -0.462598,
        -0.610236 -0.285433 -0.462598,
        -0.944882 0.285433 -0.462598,
        -0.944882 -0.285433 -0.462598,
        -0.970356 -0.285433 -0.459244,
        -0.970356 0.285433 -0.459244,
        -0.994094 -0.285433 -0.449412,
        -0.994094 0.285433 -0.449412,
        -1.014479 -0.285433 -0.433770,
        -1.014479 0.285433 -0.433770,
        -1.030120 -0.285433 -0.413386,
        -1.030120 0.285433 -0.413386,
        -1.039953 -0.285433 -0.389648,
        -1.039953 0.285433 -0.389648,
        -1.043307 -0.285433 -0.364173,
        -1.043307 0.285433 -0.364173,
        -1.043307 0.285433 -0.098425,
        -1.043307 -0.285433 -0.098425,
        -1.039953 -0.285433 -0.072951,
        -1.039953 0.285433 -0.072951,
        -1.030120 -0.285433 -0.049213,
        -1.030120 0.285433 -0.049213,
        -1.014479 -0.285433 -0.028828,
        -1.014479 0.285433 -0.028828,
        -0.994094 -0.285433 -0.013187,
        -0.994094 0.285433 -0.013187,
        -0.970356 -0.285433 -0.003354,
        -0.970356 0.285433 -0.003354,
        -0.944882 -0.285433 -0.086614,
        -0.944882 0.285433 -0.086614,
        -0.947939 0.285433 -0.087017,
        -0.947939 -0.285433 -0.087017,
        -0.950787 0.285433 -0.088196,
        -0.950787 -0.285433 -0.088196,
        -0.953233 0.285433 -0.090074,
        -0.953233 -0.285433 -0.090074,
        -0.955111 0.285433 -0.092520,
        -0.955111 -0.285433 -0.092520,
        -0.956291 0.285433 -0.095368,
        -0.956291 -0.285433 -0.095368,
        -0.956693 0.285433 -0.098425,
        -0.956693 -0.285433 -0.098425,
        -0.956693 0.285433 -0.364173,
        -0.956693 -0.285433 -0.364173,
        -0.956291 0.285433 -0.367230,
        -0.956291 -0.285433 -0.367230,
        -0.955111 0.285433 -0.370079,
        -0.955111 -0.285433 -0.370079,
        -0.953233 0.285433 -0.372525,
        -0.953233 -0.285433 -0.372525,
        -0.950787 0.285433 -0.374402,
        -0.950787 -0.285433 -0.374402,
        -0.947939 0.285433 -0.375582,
        -0.947939 -0.285433 -0.375582,
        0.944882 -0.285433 0.000000,
        0.944882 0.285433 0.000000,
        0.944882 -0.285433 -0.375984,
        0.944882 0.285433 -0.375984,
        0.947939 0.285433 -0.375582,
        0.947939 -0.285433 -0.375582,
        0.950787 0.285433 -0.374402,
        0.950787 -0.285433 -0.374402,
        0.953233 0.285433 -0.372525,
        0.953233 -0.285433 -0.372525,
        0.955111 0.285433 -0.370079,
        0.955111 -0.285433 -0.370079,
        0.956291 0.285433 -0.367230,
        0.956291 -0.285433 -0.367230,
        0.956693 0.285433 -0.364173,
        0.956693 -0.285433 -0.364173,
        0.956693 0.285433 -0.098425,
        0.956693 -0.285433 -0.098425,
        0.956291 0.285433 -0.095368,
        0.956291 -0.285433 -0.095368,
        0.955111 0.285433 -0.092520,
        0.955111 -0.285433 -0.092520,
        0.953233 0.285433 -0.090074,
        0.953233 -0.285433 -0.090074,
        0.950787 0.285433 -0.088196,
        0.950787 -0.285433 -0.088196,
        0.947939 0.285433 -0.087017,
        0.947939 -0.285433 -0.087017,
        0.944882 0.285433 -0.086614,
        0.944882 -0.285433 -0.086614,
        0.970356 -0.285433 -0.003354,
        0.970356 0.285433 -0.003354,
        0.994094 -0.285433 -0.013187,
        0.994094 0.285433 -0.013187,
        1.014479 -0.285433 -0.028828,
        1.014479 0.285433 -0.028828,
        1.030120 -0.285433 -0.049213,
        1.030120 0.285433 -0.049213,
        1.039953 -0.285433 -0.072951,
        1.039953 0.285433 -0.072951,
        1.043307 -0.285433 -0.098425,
        1.043307 0.285433 -0.098425,
        1.043307 0.285433 -0.364173,
        1.043307 -0.285433 -0.364173,
        1.039953 -0.285433 -0.389648,
        1.039953 0.285433 -0.389648,
        1.030120 -0.285433 -0.413386,
        1.030120 0.285433 -0.413386,
        1.014479 -0.285433 -0.433770,
        1.014479 0.285433 -0.433770,
        0.994094 -0.285433 -0.449412,
        0.994094 0.285433 -0.449412,
        0.970356 -0.285433 -0.459244,
        0.970356 0.285433 -0.459244,
        0.944882 -0.285433 -0.462598,
        0.944882 0.285433 -0.462598,
        0.610236 0.285433 -0.462598,
        0.610236 -0.285433 -0.462598,
      ]
    }
    coordIndex [
      16, 17, 9, -1,
      9, 17, 10, -1,
      18, 19, 12, -1,
      12, 19, 13, -1,
      20, 14, 21, -1,
      21, 14, 15, -1,
      22, 20, 23, -1,
      23, 20, 21, -1,
      22, 23, 24, -1,
      22, 24, 25, -1,
      25, 24, 26, -1,
      25, 26, 27, -1,
      27, 26, 28, -1,
      27, 28, 29, -1,
      29, 28, 30, -1,
      29, 30, 31, -1,
      31, 30, 32, -1,
      31, 32, 33, -1,
      33, 32, 34, -1,
      33, 34, 35, -1,
      36, 35, 37, -1,
      37, 35, 34, -1,
      36, 37, 38, -1,
      36, 38, 39, -1,
      39, 38, 40, -1,
      39, 40, 41, -1,
      41, 40, 42, -1,
      41, 42, 43, -1,
      43, 42, 44, -1,
      43, 44, 45, -1,
      45, 44, 46, -1,
      45, 46, 47, -1,
      47, 46, 17, -1,
      47, 17, 16, -1,
      48, 49, 11, -1,
      11, 49, 8, -1,
      49, 48, 50, -1,
      50, 48, 51, -1,
      50, 51, 52, -1,
      52, 51, 53, -1,
      52, 53, 54, -1,
      54, 53, 55, -1,
      54, 55, 56, -1,
      56, 55, 57, -1,
      56, 57, 58, -1,
      58, 57, 59, -1,
      58, 59, 60, -1,
      60, 59, 61, -1,
      62, 60, 63, -1,
      63, 60, 61, -1,
      62, 63, 64, -1,
      64, 63, 65, -1,
      64, 65, 66, -1,
      66, 65, 67, -1,
      66, 67, 68, -1,
      68, 67, 69, -1,
      68, 69, 70, -1,
      70, 69, 71, -1,
      70, 71, 72, -1,
      72, 71, 73, -1,
      72, 73, 18, -1,
      18, 73, 19, -1,
      9, 8, 16, -1,
      16, 8, 49, -1,
      16, 49, 47, -1,
      47, 49, 50, -1,
      47, 50, 45, -1,
      45, 50, 52, -1,
      45, 52, 43, -1,
      43, 52, 54, -1,
      43, 54, 41, -1,
      41, 54, 56, -1,
      41, 56, 39, -1,
      39, 56, 58, -1,
      39, 58, 36, -1,
      36, 58, 60, -1,
      36, 60, 35, -1,
      35, 60, 62, -1,
      35, 62, 33, -1,
      33, 62, 64, -1,
      33, 64, 31, -1,
      31, 64, 66, -1,
      31, 66, 29, -1,
      29, 66, 68, -1,
      29, 68, 27, -1,
      27, 68, 70, -1,
      27, 70, 25, -1,
      25, 70, 72, -1,
      25, 72, 22, -1,
      14, 20, 12, -1,
      12, 20, 22, -1,
      12, 22, 18, -1,
      18, 22, 72, -1,
      23, 21, 15, -1,
      11, 10, 48, -1,
      48, 10, 17, -1,
      48, 17, 51, -1,
      51, 17, 46, -1,
      51, 46, 53, -1,
      53, 46, 44, -1,
      53, 44, 55, -1,
      55, 44, 42, -1,
      55, 42, 57, -1,
      57, 42, 40, -1,
      57, 40, 59, -1,
      59, 40, 38, -1,
      59, 38, 61, -1,
      61, 38, 37, -1,
      61, 37, 63, -1,
      63, 37, 34, -1,
      63, 34, 65, -1,
      65, 34, 32, -1,
      65, 32, 67, -1,
      67, 32, 30, -1,
      67, 30, 69, -1,
      69, 30, 28, -1,
      69, 28, 71, -1,
      71, 28, 26, -1,
      71, 26, 73, -1,
      73, 26, 24, -1,
      73, 24, 19, -1,
      19, 24, 23, -1,
      19, 23, 13, -1,
      13, 23, 15, -1,
      1, 74, 2, -1,
      2, 74, 75, -1,
      4, 76, 5, -1,
      5, 76, 77, -1,
      77, 76, 78, -1,
      78, 76, 79, -1,
      78, 79, 80, -1,
      80, 79, 81, -1,
      80, 81, 82, -1,
      82, 81, 83, -1,
      82, 83, 84, -1,
      84, 83, 85, -1,
      84, 85, 86, -1,
      86, 85, 87, -1,
      86, 87, 88, -1,
      88, 87, 89, -1,
      90, 88, 91, -1,
      91, 88, 89, -1,
      90, 91, 92, -1,
      92, 91, 93, -1,
      92, 93, 94, -1,
      94, 93, 95, -1,
      94, 95, 96, -1,
      96, 95, 97, -1,
      96, 97, 98, -1,
      98, 97, 99, -1,
      98, 99, 100, -1,
      100, 99, 101, -1,
      100, 101, 102, -1,
      102, 101, 103, -1,
      3, 102, 0, -1,
      0, 102, 103, -1,
      75, 74, 104, -1,
      75, 104, 105, -1,
      105, 104, 106, -1,
      105, 106, 107, -1,
      107, 106, 108, -1,
      107, 108, 109, -1,
      109, 108, 110, -1,
      109, 110, 111, -1,
      111, 110, 112, -1,
      111, 112, 113, -1,
      113, 112, 114, -1,
      113, 114, 115, -1,
      116, 115, 117, -1,
      117, 115, 114, -1,
      116, 117, 118, -1,
      116, 118, 119, -1,
      119, 118, 120, -1,
      119, 120, 121, -1,
      121, 120, 122, -1,
      121, 122, 123, -1,
      123, 122, 124, -1,
      123, 124, 125, -1,
      125, 124, 126, -1,
      125, 126, 127, -1,
      127, 126, 128, -1,
      127, 128, 129, -1,
      130, 129, 131, -1,
      131, 129, 128, -1,
      7, 130, 6, -1,
      6, 130, 131, -1,
      129, 130, 7, -1,
      3, 2, 102, -1,
      102, 2, 75, -1,
      102, 75, 100, -1,
      100, 75, 105, -1,
      100, 105, 98, -1,
      98, 105, 107, -1,
      98, 107, 96, -1,
      96, 107, 109, -1,
      96, 109, 94, -1,
      94, 109, 111, -1,
      94, 111, 92, -1,
      92, 111, 113, -1,
      92, 113, 90, -1,
      90, 113, 115, -1,
      90, 115, 88, -1,
      88, 115, 116, -1,
      88, 116, 86, -1,
      86, 116, 119, -1,
      86, 119, 84, -1,
      84, 119, 121, -1,
      84, 121, 82, -1,
      82, 121, 123, -1,
      82, 123, 80, -1,
      80, 123, 125, -1,
      80, 125, 78, -1,
      78, 125, 127, -1,
      78, 127, 77, -1,
      77, 127, 129, -1,
      77, 129, 5, -1,
      5, 129, 7, -1,
      1, 0, 74, -1,
      74, 0, 103, -1,
      74, 103, 104, -1,
      104, 103, 101, -1,
      104, 101, 106, -1,
      106, 101, 99, -1,
      106, 99, 108, -1,
      108, 99, 97, -1,
      108, 97, 110, -1,
      110, 97, 95, -1,
      110, 95, 112, -1,
      112, 95, 93, -1,
      112, 93, 114, -1,
      114, 93, 91, -1,
      114, 91, 117, -1,
      117, 91, 89, -1,
      117, 89, 118, -1,
      118, 89, 87, -1,
      118, 87, 120, -1,
      120, 87, 85, -1,
      120, 85, 122, -1,
      122, 85, 83, -1,
      122, 83, 124, -1,
      124, 83, 81, -1,
      124, 81, 126, -1,
      126, 81, 79, -1,
      126, 79, 128, -1,
      6, 131, 4, -1,
      4, 131, 128, -1,
      4, 128, 76, -1,
      76, 128, 79, -1,
    ]
  }
}

Shape {
  appearance Appearance {
    material Material {
      diffuseColor 0.5020 0.5020 0.5020
      specularColor 0.2510 0.2510 0.2510
      ambientIntensity 0.2
      transparency 0.0000
      shininess 0.5
    }
  }
  geometry IndexedFaceSet {
    ccw TRUE
    solid FALSE
    coord DEF co Coordinate {
      point [
        0.025013 0.064904 0.423228,
        0.018341 0.058500 0.423228,
        0.104763 0.049385 0.423228,
        0.025691 -0.039934 0.423228,
        0.041815 -0.023876 0.423228,
        0.062452 -0.008270 0.423228,
        -0.048768 0.015975 0.423228,
        -0.061404 0.010038 0.423228,
        -0.061404 0.009513 0.423228,
        0.392762 0.102530 0.423228,
        0.404371 0.098475 0.423228,
        0.294411 -0.049603 0.423228,
        0.265604 -0.049603 0.423228,
        0.265604 -0.095214 0.423228,
        0.133570 -0.095214 0.423228,
        0.241598 -0.095214 0.423228,
        0.133570 -0.073609 0.423228,
        0.241598 -0.049603 0.423228,
        0.150375 -0.049603 0.423228,
        0.349492 0.097346 0.423228,
        0.361683 0.102055 0.423228,
        -0.048485 0.006608 0.423228,
        -0.038263 0.001630 0.423228,
        -0.039639 0.023696 0.423228,
        -0.029716 -0.005550 0.423228,
        -0.023101 -0.014771 0.423228,
        0.011139 -0.085462 0.423228,
        0.012831 -0.066894 0.423228,
        -0.017668 -0.038387 0.423228,
        0.017711 -0.052359 0.423228,
        -0.019204 -0.025083 0.423228,
        0.431909 -0.054536 0.423228,
        0.423976 -0.070381 0.423228,
        0.414593 0.091696 0.423228,
        0.422528 0.083077 0.423228,
        0.430771 0.068271 0.423228,
        0.360006 -0.096101 0.423228,
        0.348620 -0.092029 0.423228,
        0.338755 -0.085484 0.423228,
        0.313307 0.032180 0.423228,
        0.320213 0.060820 0.423228,
        0.265604 0.101636 0.423228,
        0.329909 0.079659 0.423228,
        0.338964 0.089929 0.423228,
        0.064590 -0.006767 0.423228,
        0.089076 0.013106 0.423228,
        0.097705 0.023756 0.423228,
        0.414419 -0.082113 0.423228,
        0.403593 -0.090308 0.423228,
        0.391163 -0.095413 0.423228,
        -0.023476 -0.064141 0.423228,
        -0.030545 -0.074470 0.423228,
        0.011139 -0.095214 0.423228,
        0.113411 0.006289 0.423228,
        0.094625 -0.011544 0.423228,
        0.150375 -0.029122 0.423228,
        0.265604 -0.027997 0.423228,
        0.294411 -0.027997 0.423228,
        0.311216 -0.000615 0.423228,
        0.377609 0.104014 0.423228,
        0.378433 0.104037 0.423228,
        0.102376 0.033733 0.423228,
        0.104589 0.045183 0.423228,
        -0.035923 0.082660 0.423228,
        -0.031145 0.074958 0.423228,
        -0.028171 0.065972 0.423228,
        0.437835 0.043190 0.423228,
        0.440849 0.004036 0.423228,
        0.438699 -0.027634 0.423228,
        0.329048 -0.074867 0.423228,
        0.320434 -0.058957 0.423228,
        0.313500 -0.032725 0.423228,
        0.239948 0.101636 0.423228,
        -0.438340 0.675571 0.423228,
        0.038634 0.074498 0.423228,
        0.103880 0.057916 0.423228,
        0.101631 0.064445 0.423228,
        0.087505 0.078254 0.423228,
        0.078248 0.081352 0.423228,
        0.066878 0.082431 0.423228,
        0.052115 0.080250 0.423228,
        -0.027271 0.056400 0.423228,
        -0.028735 0.043961 0.423228,
        -0.032680 0.033637 0.423228,
        0.378170 -0.097464 0.423228,
        0.374007 -0.097615 0.423228,
        -0.019343 -0.053024 0.423228,
        -0.041204 -0.083854 0.423228,
        -0.054124 -0.090568 0.423228,
        -0.438340 -0.675571 0.423228,
        -0.071285 -0.094643 0.423228,
        0.098149 0.069956 0.423228,
        0.093591 0.074416 0.423228,
        0.084770 -0.018770 0.423228,
        0.054045 -0.041260 0.423228,
        0.044559 -0.050628 0.423228,
        -0.083235 0.101636 0.423228,
        -0.066710 0.100138 0.423228,
        0.045100 0.100362 0.423228,
        0.060635 0.103644 0.423228,
        0.040220 -0.057308 0.423228,
        0.037842 -0.064343 0.423228,
        0.036946 -0.073609 0.423228,
        -0.081622 -0.095214 0.423228,
        -0.140100 -0.095214 0.423228,
        -0.140100 0.101636 0.423228,
        0.031781 0.093854 0.423228,
        0.018341 0.082581 0.423228,
        -0.054002 0.096203 0.423228,
        -0.043002 0.089630 0.423228,
        0.069279 0.104037 0.423228,
        0.085999 0.102462 0.423228,
        0.099254 0.098231 0.423228,
        0.111178 0.090833 0.423228,
        0.119130 0.082655 0.423228,
        0.124479 0.073521 0.423228,
        0.226303 0.076606 0.423228,
        0.127714 0.063037 0.423228,
        0.128769 0.051298 0.423228,
        0.196518 0.030165 0.423228,
        0.126833 0.033206 0.423228,
        0.121324 0.018163 0.423228,
        -0.438340 0.675605 0.422835,
        -0.512189 0.675605 0.422835,
        -0.512189 0.675571 0.423228,
        -0.512189 -0.675571 0.423228,
        -0.512189 -0.675605 0.422835,
        -0.438340 -0.675605 0.422835,
        0.311216 -0.000615 0.422835,
        0.313500 -0.032725 0.422835,
        0.320434 -0.058957 0.422835,
        0.329048 -0.074867 0.422835,
        0.338755 -0.085484 0.422835,
        0.348620 -0.092029 0.422835,
        0.360006 -0.096101 0.422835,
        0.374007 -0.097615 0.422835,
        0.378433 0.104037 0.422835,
        0.377609 0.104014 0.422835,
        0.361683 0.102055 0.422835,
        0.349492 0.097346 0.422835,
        0.338964 0.089929 0.422835,
        0.329909 0.079659 0.422835,
        0.320213 0.060820 0.422835,
        0.313307 0.032180 0.422835,
        0.440849 0.004036 0.422835,
        0.437835 0.043190 0.422835,
        0.430771 0.068271 0.422835,
        0.422528 0.083077 0.422835,
        0.414593 0.091696 0.422835,
        0.404371 0.098475 0.422835,
        0.392762 0.102530 0.422835,
        0.378170 -0.097464 0.422835,
        0.391163 -0.095413 0.422835,
        0.403593 -0.090308 0.422835,
        0.414419 -0.082113 0.422835,
        0.423976 -0.070381 0.422835,
        0.431909 -0.054536 0.422835,
        0.438699 -0.027634 0.422835,
        0.414443 0.001861 0.422835,
        0.412224 0.036410 0.422835,
        0.407195 0.057154 0.422835,
        0.402312 0.067536 0.422835,
        0.396559 0.074765 0.422835,
        0.391566 0.078616 0.422835,
        0.385617 0.081221 0.422835,
        0.379036 0.082359 0.422835,
        0.377083 0.082431 0.422835,
        0.368860 0.081443 0.422835,
        0.362614 0.079017 0.422835,
        0.356915 0.075039 0.422835,
        0.351360 0.068654 0.422835,
        0.345473 0.057365 0.422835,
        0.339947 0.035452 0.422835,
        0.337623 0.000585 0.422835,
        0.339830 -0.031518 0.422835,
        0.344803 -0.051143 0.422835,
        0.349616 -0.060918 0.422835,
        0.354713 -0.067403 0.422835,
        0.360299 -0.071769 0.422835,
        0.366276 -0.074513 0.422835,
        0.372980 -0.075843 0.422835,
        0.376333 -0.076009 0.422835,
        0.384245 -0.075088 0.422835,
        0.390393 -0.072712 0.422835,
        0.396060 -0.068742 0.422835,
        0.401600 -0.062336 0.422835,
        0.407104 -0.051526 0.422835,
        0.412335 -0.030542 0.422835,
        0.337623 0.000585 0.423228,
        0.339947 0.035452 0.423228,
        0.345473 0.057365 0.423228,
        0.351360 0.068654 0.423228,
        0.356915 0.075039 0.423228,
        0.362614 0.079017 0.423228,
        0.368860 0.081443 0.423228,
        0.377083 0.082431 0.423228,
        0.379036 0.082359 0.423228,
        0.385617 0.081221 0.423228,
        0.391566 0.078616 0.423228,
        0.396559 0.074765 0.423228,
        0.402312 0.067536 0.423228,
        0.407195 0.057154 0.423228,
        0.412224 0.036410 0.423228,
        0.414443 0.001861 0.423228,
        0.412335 -0.030542 0.423228,
        0.407104 -0.051526 0.423228,
        0.401600 -0.062336 0.423228,
        0.396060 -0.068742 0.423228,
        0.390393 -0.072712 0.423228,
        0.384245 -0.075088 0.423228,
        0.376333 -0.076009 0.423228,
        0.372980 -0.075843 0.423228,
        0.366276 -0.074513 0.423228,
        0.360299 -0.071769 0.423228,
        0.354713 -0.067403 0.423228,
        0.349616 -0.060918 0.423228,
        0.344803 -0.051143 0.423228,
        0.339830 -0.031518 0.423228,
        0.239948 0.101636 0.422835,
        0.265604 0.101636 0.422835,
        0.265604 -0.027997 0.422835,
        0.294411 -0.027997 0.422835,
        0.294411 -0.049603 0.422835,
        0.265604 -0.049603 0.422835,
        0.265604 -0.095214 0.422835,
        0.241598 -0.095214 0.422835,
        0.241598 -0.049603 0.422835,
        0.150375 -0.049603 0.422835,
        0.150375 -0.029122 0.422835,
        0.226303 0.076606 0.422835,
        0.196518 0.030165 0.422835,
        0.241598 0.065514 0.422835,
        0.241598 -0.027997 0.422835,
        0.212002 0.017352 0.422835,
        0.178244 -0.027997 0.422835,
        0.178244 -0.027997 0.423228,
        0.212002 0.017352 0.423228,
        0.241598 0.065514 0.423228,
        0.241598 -0.027997 0.423228,
        0.104763 0.049385 0.422835,
        0.104589 0.045183 0.422835,
        0.102376 0.033733 0.422835,
        0.097705 0.023756 0.422835,
        0.089076 0.013106 0.422835,
        0.064590 -0.006767 0.422835,
        0.066878 0.082431 0.422835,
        0.078248 0.081352 0.422835,
        0.087505 0.078254 0.422835,
        0.093591 0.074416 0.422835,
        0.098149 0.069956 0.422835,
        0.101631 0.064445 0.422835,
        0.103880 0.057916 0.422835,
        0.018341 0.058500 0.422835,
        0.025013 0.064904 0.422835,
        0.038634 0.074498 0.422835,
        0.052115 0.080250 0.422835,
        0.018341 0.082581 0.422835,
        0.069279 0.104037 0.422835,
        0.060635 0.103644 0.422835,
        0.045100 0.100362 0.422835,
        0.031781 0.093854 0.422835,
        0.128769 0.051298 0.422835,
        0.127714 0.063037 0.422835,
        0.124479 0.073521 0.422835,
        0.119130 0.082655 0.422835,
        0.111178 0.090833 0.422835,
        0.099254 0.098231 0.422835,
        0.085999 0.102462 0.422835,
        0.084770 -0.018770 0.422835,
        0.094625 -0.011544 0.422835,
        0.113411 0.006289 0.422835,
        0.121324 0.018163 0.422835,
        0.126833 0.033206 0.422835,
        0.036946 -0.073609 0.422835,
        0.037842 -0.064343 0.422835,
        0.040220 -0.057308 0.422835,
        0.044559 -0.050628 0.422835,
        0.054045 -0.041260 0.422835,
        0.133570 -0.073609 0.422835,
        0.133570 -0.095214 0.422835,
        0.011139 -0.095214 0.422835,
        0.011139 -0.085462 0.422835,
        0.062452 -0.008270 0.422835,
        0.041815 -0.023876 0.422835,
        0.025691 -0.039934 0.422835,
        0.017711 -0.052359 0.422835,
        0.012831 -0.066894 0.422835,
        -0.081622 -0.095214 0.422835,
        -0.140100 -0.095214 0.422835,
        -0.140100 0.101636 0.422835,
        -0.083235 0.101636 0.422835,
        -0.027271 0.056400 0.422835,
        -0.028171 0.065972 0.422835,
        -0.031145 0.074958 0.422835,
        -0.035923 0.082660 0.422835,
        -0.043002 0.089630 0.422835,
        -0.054002 0.096203 0.422835,
        -0.066710 0.100138 0.422835,
        -0.061404 0.010038 0.422835,
        -0.048768 0.015975 0.422835,
        -0.039639 0.023696 0.422835,
        -0.032680 0.033637 0.422835,
        -0.028735 0.043961 0.422835,
        -0.061404 0.009513 0.422835,
        -0.017668 -0.038387 0.422835,
        -0.019204 -0.025083 0.422835,
        -0.023101 -0.014771 0.422835,
        -0.029716 -0.005550 0.422835,
        -0.038263 0.001630 0.422835,
        -0.048485 0.006608 0.422835,
        -0.071285 -0.094643 0.422835,
        -0.054124 -0.090568 0.422835,
        -0.041204 -0.083854 0.422835,
        -0.030545 -0.074470 0.422835,
        -0.023476 -0.064141 0.422835,
        -0.019343 -0.053024 0.422835,
        -0.113693 -0.003991 0.422835,
        -0.113693 -0.073609 0.422835,
        -0.084285 -0.073609 0.422835,
        -0.072856 -0.072641 0.422835,
        -0.064109 -0.070161 0.422835,
        -0.057150 -0.066326 0.422835,
        -0.051711 -0.061385 0.422835,
        -0.047908 -0.055757 0.422835,
        -0.045344 -0.049052 0.422835,
        -0.044144 -0.040919 0.422835,
        -0.044075 -0.038275 0.422835,
        -0.080924 0.018543 0.422835,
        -0.072563 0.021106 0.422835,
        -0.066096 0.024772 0.422835,
        -0.044914 -0.029389 0.422835,
        -0.047057 -0.022804 0.422835,
        -0.050289 -0.017398 0.422835,
        -0.054895 -0.012736 0.422835,
        -0.060341 -0.009323 0.422835,
        -0.070192 -0.005833 0.422835,
        -0.088336 -0.003991 0.422835,
        -0.060900 0.029638 0.422835,
        -0.057161 0.035370 0.422835,
        -0.054752 0.042159 0.422835,
        -0.053680 0.051760 0.422835,
        -0.053678 0.051861 0.422835,
        -0.054364 0.059121 0.422835,
        -0.056094 0.064660 0.422835,
        -0.058814 0.069183 0.422835,
        -0.062830 0.073184 0.422835,
        -0.068297 0.076385 0.422835,
        -0.076874 0.078995 0.422835,
        -0.089312 0.080031 0.422835,
        -0.113693 0.080031 0.422835,
        -0.113693 0.017615 0.422835,
        -0.091487 0.017615 0.422835,
        -0.089312 0.080031 0.423228,
        -0.113693 0.080031 0.423228,
        -0.076874 0.078995 0.423228,
        -0.068297 0.076385 0.423228,
        -0.062830 0.073184 0.423228,
        -0.058814 0.069183 0.423228,
        -0.056094 0.064660 0.423228,
        -0.054364 0.059121 0.423228,
        -0.053678 0.051861 0.423228,
        -0.053680 0.051760 0.423228,
        -0.054752 0.042159 0.423228,
        -0.057161 0.035370 0.423228,
        -0.060900 0.029638 0.423228,
        -0.066096 0.024772 0.423228,
        -0.072563 0.021106 0.423228,
        -0.080924 0.018543 0.423228,
        -0.091487 0.017615 0.423228,
        -0.113693 0.017615 0.423228,
        -0.088336 -0.003991 0.423228,
        -0.113693 -0.003991 0.423228,
        -0.070192 -0.005833 0.423228,
        -0.060341 -0.009323 0.423228,
        -0.054895 -0.012736 0.423228,
        -0.050289 -0.017398 0.423228,
        -0.047057 -0.022804 0.423228,
        -0.044914 -0.029389 0.423228,
        -0.044075 -0.038275 0.423228,
        -0.044144 -0.040919 0.423228,
        -0.045344 -0.049052 0.423228,
        -0.047908 -0.055757 0.423228,
        -0.051711 -0.061385 0.423228,
        -0.057150 -0.066326 0.423228,
        -0.064109 -0.070161 0.423228,
        -0.072856 -0.072641 0.423228,
        -0.084285 -0.073609 0.423228,
        -0.113693 -0.073609 0.423228,
      ]
    }
    coordIndex [
      126, 127, 123, -1,
      123, 127, 122, -1,
      89, 73, 127, -1,
      127, 73, 122, -1,
      126, 123, 125, -1,
      125, 123, 124, -1,
      128, 58, 71, -1,
      128, 71, 129, -1,
      129, 71, 70, -1,
      129, 70, 130, -1,
      130, 70, 69, -1,
      130, 69, 131, -1,
      131, 69, 38, -1,
      131, 38, 132, -1,
      132, 38, 37, -1,
      132, 37, 133, -1,
      133, 37, 36, -1,
      133, 36, 134, -1,
      134, 36, 85, -1,
      134, 85, 135, -1,
      136, 60, 59, -1,
      136, 59, 137, -1,
      137, 59, 20, -1,
      137, 20, 138, -1,
      138, 20, 19, -1,
      138, 19, 139, -1,
      139, 19, 43, -1,
      139, 43, 140, -1,
      140, 43, 42, -1,
      140, 42, 141, -1,
      141, 42, 40, -1,
      141, 40, 142, -1,
      142, 40, 39, -1,
      142, 39, 143, -1,
      143, 39, 58, -1,
      143, 58, 128, -1,
      144, 67, 66, -1,
      144, 66, 145, -1,
      145, 66, 35, -1,
      145, 35, 146, -1,
      146, 35, 34, -1,
      146, 34, 147, -1,
      147, 34, 33, -1,
      147, 33, 148, -1,
      148, 33, 10, -1,
      148, 10, 149, -1,
      149, 10, 9, -1,
      149, 9, 150, -1,
      150, 9, 60, -1,
      150, 60, 136, -1,
      135, 85, 84, -1,
      135, 84, 151, -1,
      151, 84, 49, -1,
      151, 49, 152, -1,
      152, 49, 48, -1,
      152, 48, 153, -1,
      153, 48, 47, -1,
      153, 47, 154, -1,
      154, 47, 32, -1,
      154, 32, 155, -1,
      155, 32, 31, -1,
      155, 31, 156, -1,
      156, 31, 68, -1,
      156, 68, 157, -1,
      157, 68, 67, -1,
      157, 67, 144, -1,
      158, 144, 159, -1,
      159, 144, 145, -1,
      159, 145, 160, -1,
      160, 145, 146, -1,
      160, 146, 161, -1,
      161, 146, 147, -1,
      161, 147, 162, -1,
      162, 147, 148, -1,
      162, 148, 163, -1,
      163, 148, 149, -1,
      163, 149, 164, -1,
      164, 149, 150, -1,
      164, 150, 165, -1,
      165, 150, 136, -1,
      165, 136, 166, -1,
      166, 136, 137, -1,
      166, 137, 167, -1,
      167, 137, 138, -1,
      167, 138, 168, -1,
      168, 138, 139, -1,
      168, 139, 169, -1,
      169, 139, 140, -1,
      169, 140, 170, -1,
      170, 140, 141, -1,
      170, 141, 171, -1,
      171, 141, 142, -1,
      171, 142, 172, -1,
      172, 142, 143, -1,
      172, 143, 173, -1,
      173, 143, 128, -1,
      173, 128, 174, -1,
      174, 128, 129, -1,
      174, 129, 175, -1,
      175, 129, 130, -1,
      175, 130, 176, -1,
      176, 130, 131, -1,
      176, 131, 177, -1,
      177, 131, 132, -1,
      177, 132, 178, -1,
      178, 132, 133, -1,
      178, 133, 179, -1,
      179, 133, 134, -1,
      179, 134, 180, -1,
      180, 134, 135, -1,
      180, 135, 181, -1,
      181, 135, 151, -1,
      181, 151, 182, -1,
      182, 151, 152, -1,
      182, 152, 183, -1,
      183, 152, 153, -1,
      183, 153, 184, -1,
      184, 153, 154, -1,
      184, 154, 185, -1,
      185, 154, 155, -1,
      185, 155, 186, -1,
      186, 155, 156, -1,
      186, 156, 187, -1,
      187, 156, 157, -1,
      187, 157, 158, -1,
      158, 157, 144, -1,
      173, 188, 189, -1,
      173, 189, 172, -1,
      172, 189, 190, -1,
      172, 190, 171, -1,
      171, 190, 191, -1,
      171, 191, 170, -1,
      170, 191, 192, -1,
      170, 192, 169, -1,
      169, 192, 193, -1,
      169, 193, 168, -1,
      168, 193, 194, -1,
      168, 194, 167, -1,
      167, 194, 195, -1,
      167, 195, 166, -1,
      166, 195, 196, -1,
      166, 196, 165, -1,
      165, 196, 197, -1,
      165, 197, 164, -1,
      164, 197, 198, -1,
      164, 198, 163, -1,
      163, 198, 199, -1,
      163, 199, 162, -1,
      162, 199, 200, -1,
      162, 200, 161, -1,
      161, 200, 201, -1,
      161, 201, 160, -1,
      160, 201, 202, -1,
      160, 202, 159, -1,
      159, 202, 203, -1,
      159, 203, 158, -1,
      158, 203, 204, -1,
      158, 204, 187, -1,
      187, 204, 205, -1,
      187, 205, 186, -1,
      186, 205, 206, -1,
      186, 206, 185, -1,
      185, 206, 207, -1,
      185, 207, 184, -1,
      184, 207, 208, -1,
      184, 208, 183, -1,
      183, 208, 209, -1,
      183, 209, 182, -1,
      182, 209, 210, -1,
      182, 210, 181, -1,
      181, 210, 211, -1,
      181, 211, 180, -1,
      180, 211, 212, -1,
      180, 212, 179, -1,
      179, 212, 213, -1,
      179, 213, 178, -1,
      178, 213, 214, -1,
      178, 214, 177, -1,
      177, 214, 215, -1,
      177, 215, 176, -1,
      176, 215, 216, -1,
      176, 216, 175, -1,
      175, 216, 217, -1,
      175, 217, 174, -1,
      174, 217, 188, -1,
      174, 188, 173, -1,
      218, 219, 72, -1,
      72, 219, 41, -1,
      219, 220, 41, -1,
      41, 220, 56, -1,
      220, 221, 56, -1,
      56, 221, 57, -1,
      221, 222, 57, -1,
      57, 222, 11, -1,
      222, 223, 11, -1,
      11, 223, 12, -1,
      223, 224, 12, -1,
      12, 224, 13, -1,
      224, 225, 13, -1,
      13, 225, 15, -1,
      225, 226, 15, -1,
      15, 226, 17, -1,
      226, 227, 17, -1,
      17, 227, 18, -1,
      227, 228, 18, -1,
      18, 228, 55, -1,
      218, 72, 116, -1,
      218, 116, 229, -1,
      229, 116, 119, -1,
      229, 119, 230, -1,
      230, 119, 55, -1,
      230, 55, 228, -1,
      219, 231, 220, -1,
      220, 231, 232, -1,
      225, 224, 226, -1,
      226, 224, 223, -1,
      219, 218, 231, -1,
      231, 218, 229, -1,
      231, 229, 233, -1,
      233, 229, 230, -1,
      233, 230, 234, -1,
      222, 221, 223, -1,
      223, 221, 220, -1,
      223, 220, 226, -1,
      226, 220, 232, -1,
      226, 232, 227, -1,
      227, 232, 234, -1,
      227, 234, 228, -1,
      228, 234, 230, -1,
      234, 235, 236, -1,
      234, 236, 233, -1,
      233, 236, 237, -1,
      233, 237, 231, -1,
      232, 231, 238, -1,
      238, 231, 237, -1,
      234, 232, 235, -1,
      235, 232, 238, -1,
      239, 2, 62, -1,
      239, 62, 240, -1,
      240, 62, 61, -1,
      240, 61, 241, -1,
      241, 61, 46, -1,
      241, 46, 242, -1,
      242, 46, 45, -1,
      242, 45, 243, -1,
      243, 45, 44, -1,
      243, 44, 244, -1,
      245, 79, 78, -1,
      245, 78, 246, -1,
      246, 78, 77, -1,
      246, 77, 247, -1,
      247, 77, 92, -1,
      247, 92, 248, -1,
      248, 92, 91, -1,
      248, 91, 249, -1,
      249, 91, 76, -1,
      249, 76, 250, -1,
      250, 76, 75, -1,
      250, 75, 251, -1,
      251, 75, 2, -1,
      251, 2, 239, -1,
      252, 1, 0, -1,
      252, 0, 253, -1,
      253, 0, 74, -1,
      253, 74, 254, -1,
      254, 74, 80, -1,
      254, 80, 255, -1,
      255, 80, 79, -1,
      255, 79, 245, -1,
      252, 256, 1, -1,
      1, 256, 107, -1,
      257, 110, 99, -1,
      257, 99, 258, -1,
      258, 99, 98, -1,
      258, 98, 259, -1,
      259, 98, 106, -1,
      259, 106, 260, -1,
      260, 106, 107, -1,
      260, 107, 256, -1,
      261, 118, 117, -1,
      261, 117, 262, -1,
      262, 117, 115, -1,
      262, 115, 263, -1,
      263, 115, 114, -1,
      263, 114, 264, -1,
      264, 114, 113, -1,
      264, 113, 265, -1,
      265, 113, 112, -1,
      265, 112, 266, -1,
      266, 112, 111, -1,
      266, 111, 267, -1,
      267, 111, 110, -1,
      267, 110, 257, -1,
      268, 93, 54, -1,
      268, 54, 269, -1,
      269, 54, 53, -1,
      269, 53, 270, -1,
      270, 53, 121, -1,
      270, 121, 271, -1,
      271, 121, 120, -1,
      271, 120, 272, -1,
      272, 120, 118, -1,
      272, 118, 261, -1,
      273, 102, 101, -1,
      273, 101, 274, -1,
      274, 101, 100, -1,
      274, 100, 275, -1,
      275, 100, 95, -1,
      275, 95, 276, -1,
      276, 95, 94, -1,
      276, 94, 277, -1,
      277, 94, 93, -1,
      277, 93, 268, -1,
      273, 278, 102, -1,
      102, 278, 16, -1,
      278, 279, 16, -1,
      16, 279, 14, -1,
      279, 280, 14, -1,
      14, 280, 52, -1,
      280, 281, 52, -1,
      52, 281, 26, -1,
      244, 44, 5, -1,
      244, 5, 282, -1,
      282, 5, 4, -1,
      282, 4, 283, -1,
      283, 4, 3, -1,
      283, 3, 284, -1,
      284, 3, 29, -1,
      284, 29, 285, -1,
      285, 29, 27, -1,
      285, 27, 286, -1,
      286, 27, 26, -1,
      286, 26, 281, -1,
      279, 278, 280, -1,
      280, 278, 273, -1,
      256, 252, 253, -1,
      256, 253, 260, -1,
      260, 253, 254, -1,
      260, 254, 259, -1,
      259, 254, 255, -1,
      259, 255, 258, -1,
      258, 255, 245, -1,
      258, 245, 257, -1,
      257, 245, 267, -1,
      267, 245, 246, -1,
      267, 246, 266, -1,
      266, 246, 247, -1,
      266, 247, 265, -1,
      265, 247, 248, -1,
      265, 248, 264, -1,
      264, 248, 249, -1,
      264, 249, 263, -1,
      263, 249, 250, -1,
      263, 250, 262, -1,
      262, 250, 251, -1,
      262, 251, 261, -1,
      251, 239, 261, -1,
      261, 239, 240, -1,
      261, 240, 272, -1,
      272, 240, 241, -1,
      272, 241, 271, -1,
      271, 241, 242, -1,
      271, 242, 270, -1,
      270, 242, 243, -1,
      270, 243, 269, -1,
      269, 243, 244, -1,
      269, 244, 268, -1,
      268, 244, 282, -1,
      268, 282, 277, -1,
      277, 282, 283, -1,
      277, 283, 276, -1,
      276, 283, 284, -1,
      276, 284, 275, -1,
      275, 284, 285, -1,
      275, 285, 274, -1,
      274, 285, 286, -1,
      274, 286, 273, -1,
      273, 286, 281, -1,
      273, 281, 280, -1,
      287, 288, 103, -1,
      103, 288, 104, -1,
      288, 289, 104, -1,
      104, 289, 105, -1,
      289, 290, 105, -1,
      105, 290, 96, -1,
      291, 81, 65, -1,
      291, 65, 292, -1,
      292, 65, 64, -1,
      292, 64, 293, -1,
      293, 64, 63, -1,
      293, 63, 294, -1,
      294, 63, 109, -1,
      294, 109, 295, -1,
      295, 109, 108, -1,
      295, 108, 296, -1,
      296, 108, 97, -1,
      296, 97, 297, -1,
      297, 97, 96, -1,
      297, 96, 290, -1,
      298, 7, 6, -1,
      298, 6, 299, -1,
      299, 6, 23, -1,
      299, 23, 300, -1,
      300, 23, 83, -1,
      300, 83, 301, -1,
      301, 83, 82, -1,
      301, 82, 302, -1,
      302, 82, 81, -1,
      302, 81, 291, -1,
      298, 303, 7, -1,
      7, 303, 8, -1,
      304, 28, 30, -1,
      304, 30, 305, -1,
      305, 30, 25, -1,
      305, 25, 306, -1,
      306, 25, 24, -1,
      306, 24, 307, -1,
      307, 24, 22, -1,
      307, 22, 308, -1,
      308, 22, 21, -1,
      308, 21, 309, -1,
      309, 21, 8, -1,
      309, 8, 303, -1,
      287, 103, 90, -1,
      287, 90, 310, -1,
      310, 90, 88, -1,
      310, 88, 311, -1,
      311, 88, 87, -1,
      311, 87, 312, -1,
      312, 87, 51, -1,
      312, 51, 313, -1,
      313, 51, 50, -1,
      313, 50, 314, -1,
      314, 50, 86, -1,
      314, 86, 315, -1,
      315, 86, 28, -1,
      315, 28, 304, -1,
      289, 288, 316, -1,
      316, 288, 317, -1,
      317, 288, 318, -1,
      318, 288, 287, -1,
      318, 287, 319, -1,
      319, 287, 310, -1,
      319, 310, 320, -1,
      320, 310, 311, -1,
      320, 311, 321, -1,
      321, 311, 312, -1,
      321, 312, 322, -1,
      322, 312, 313, -1,
      322, 313, 323, -1,
      323, 313, 314, -1,
      323, 314, 324, -1,
      324, 314, 315, -1,
      324, 315, 325, -1,
      325, 315, 304, -1,
      325, 304, 326, -1,
      327, 298, 328, -1,
      328, 298, 329, -1,
      326, 304, 330, -1,
      330, 304, 305, -1,
      330, 305, 331, -1,
      331, 305, 306, -1,
      331, 306, 332, -1,
      332, 306, 307, -1,
      332, 307, 333, -1,
      333, 307, 308, -1,
      333, 308, 334, -1,
      334, 308, 309, -1,
      334, 309, 335, -1,
      335, 309, 303, -1,
      335, 303, 336, -1,
      329, 298, 337, -1,
      337, 298, 299, -1,
      337, 299, 338, -1,
      338, 299, 300, -1,
      338, 300, 339, -1,
      339, 300, 301, -1,
      339, 301, 340, -1,
      340, 301, 302, -1,
      340, 302, 341, -1,
      341, 302, 291, -1,
      341, 291, 342, -1,
      342, 291, 292, -1,
      342, 292, 343, -1,
      343, 292, 293, -1,
      343, 293, 344, -1,
      344, 293, 294, -1,
      344, 294, 345, -1,
      345, 294, 295, -1,
      345, 295, 346, -1,
      346, 295, 296, -1,
      346, 296, 347, -1,
      347, 296, 297, -1,
      347, 297, 348, -1,
      348, 297, 290, -1,
      348, 290, 349, -1,
      349, 290, 289, -1,
      349, 289, 350, -1,
      350, 289, 316, -1,
      350, 316, 351, -1,
      351, 316, 336, -1,
      351, 336, 327, -1,
      327, 336, 303, -1,
      327, 303, 298, -1,
      348, 349, 352, -1,
      352, 349, 353, -1,
      348, 352, 354, -1,
      348, 354, 347, -1,
      347, 354, 355, -1,
      347, 355, 346, -1,
      346, 355, 356, -1,
      346, 356, 345, -1,
      345, 356, 357, -1,
      345, 357, 344, -1,
      344, 357, 358, -1,
      344, 358, 343, -1,
      343, 358, 359, -1,
      343, 359, 342, -1,
      342, 359, 360, -1,
      342, 360, 341, -1,
      341, 360, 361, -1,
      341, 361, 340, -1,
      340, 361, 362, -1,
      340, 362, 339, -1,
      339, 362, 363, -1,
      339, 363, 338, -1,
      338, 363, 364, -1,
      338, 364, 337, -1,
      337, 364, 365, -1,
      337, 365, 329, -1,
      329, 365, 366, -1,
      329, 366, 328, -1,
      328, 366, 367, -1,
      328, 367, 327, -1,
      327, 367, 368, -1,
      327, 368, 351, -1,
      350, 351, 369, -1,
      369, 351, 368, -1,
      349, 350, 353, -1,
      353, 350, 369, -1,
      336, 316, 370, -1,
      370, 316, 371, -1,
      336, 370, 372, -1,
      336, 372, 335, -1,
      335, 372, 373, -1,
      335, 373, 334, -1,
      334, 373, 374, -1,
      334, 374, 333, -1,
      333, 374, 375, -1,
      333, 375, 332, -1,
      332, 375, 376, -1,
      332, 376, 331, -1,
      331, 376, 377, -1,
      331, 377, 330, -1,
      330, 377, 378, -1,
      330, 378, 326, -1,
      326, 378, 379, -1,
      326, 379, 325, -1,
      325, 379, 380, -1,
      325, 380, 324, -1,
      324, 380, 381, -1,
      324, 381, 323, -1,
      323, 381, 382, -1,
      323, 382, 322, -1,
      322, 382, 383, -1,
      322, 383, 321, -1,
      321, 383, 384, -1,
      321, 384, 320, -1,
      320, 384, 385, -1,
      320, 385, 319, -1,
      319, 385, 386, -1,
      319, 386, 318, -1,
      317, 318, 387, -1,
      387, 318, 386, -1,
      316, 317, 371, -1,
      371, 317, 387, -1,
    ]
  }
}

Shape {
  appearance Appearance {
    material Material {
      diffuseColor 0.2510 0.2510 0.2510
      specularColor 0.1255 0.1255 0.1255
      ambientIntensity 0.2
      transparency 0.0000
      shininess 0.5
    }
  }
  geometry IndexedFaceSet {
    ccw TRUE
    solid FALSE
    coord DEF co Coordinate {
      point [
        0.337623 0.000585 0.423228,
        0.339947 0.035452 0.423228,
        0.345473 0.057365 0.423228,
        0.351360 0.068654 0.423228,
        0.356915 0.075039 0.423228,
        0.362614 0.079017 0.423228,
        0.368860 0.081443 0.423228,
        0.377083 0.082431 0.423228,
        0.379036 0.082359 0.423228,
        0.385617 0.081221 0.423228,
        0.391566 0.078616 0.423228,
        0.396559 0.074765 0.423228,
        0.402312 0.067536 0.423228,
        0.407195 0.057154 0.423228,
        0.412224 0.036410 0.423228,
        0.414443 0.001861 0.423228,
        0.412335 -0.030542 0.423228,
        0.407104 -0.051526 0.423228,
        0.401600 -0.062336 0.423228,
        0.396060 -0.068742 0.423228,
        0.390393 -0.072712 0.423228,
        0.384245 -0.075088 0.423228,
        0.376333 -0.076009 0.423228,
        0.372980 -0.075843 0.423228,
        0.366276 -0.074513 0.423228,
        0.360299 -0.071769 0.423228,
        0.354713 -0.067403 0.423228,
        0.349616 -0.060918 0.423228,
        0.344803 -0.051143 0.423228,
        0.339830 -0.031518 0.423228,
        0.178244 -0.027997 0.423228,
        0.212002 0.017352 0.423228,
        0.241598 0.065514 0.423228,
        0.241598 -0.027997 0.423228,
        -0.089312 0.080031 0.423228,
        -0.113693 0.080031 0.423228,
        -0.076874 0.078995 0.423228,
        -0.068297 0.076385 0.423228,
        -0.062830 0.073184 0.423228,
        -0.058814 0.069183 0.423228,
        -0.056094 0.064660 0.423228,
        -0.054364 0.059121 0.423228,
        -0.053678 0.051861 0.423228,
        -0.053680 0.051760 0.423228,
        -0.054752 0.042159 0.423228,
        -0.057161 0.035370 0.423228,
        -0.060900 0.029638 0.423228,
        -0.066096 0.024772 0.423228,
        -0.072563 0.021106 0.423228,
        -0.080924 0.018543 0.423228,
        -0.091487 0.017615 0.423228,
        -0.113693 0.017615 0.423228,
        -0.088336 -0.003991 0.423228,
        -0.113693 -0.003991 0.423228,
        -0.070192 -0.005833 0.423228,
        -0.060341 -0.009323 0.423228,
        -0.054895 -0.012736 0.423228,
        -0.050289 -0.017398 0.423228,
        -0.047057 -0.022804 0.423228,
        -0.044914 -0.029389 0.423228,
        -0.044075 -0.038275 0.423228,
        -0.044144 -0.040919 0.423228,
        -0.045344 -0.049052 0.423228,
        -0.047908 -0.055757 0.423228,
        -0.051711 -0.061385 0.423228,
        -0.057150 -0.066326 0.423228,
        -0.064109 -0.070161 0.423228,
        -0.072856 -0.072641 0.423228,
        -0.084285 -0.073609 0.423228,
        -0.113693 -0.073609 0.423228,
      ]
    }
    coordIndex [
      44, 43, 34, -1,
      35, 51, 34, -1,
      34, 51, 50, -1,
      43, 42, 34, -1,
      34, 42, 41, -1,
      34, 41, 36, -1,
      50, 49, 34, -1,
      34, 49, 48, -1,
      34, 48, 47, -1,
      39, 38, 37, -1,
      47, 46, 34, -1,
      34, 46, 45, -1,
      34, 45, 44, -1,
      36, 41, 37, -1,
      37, 41, 40, -1,
      37, 40, 39, -1,
      16, 15, 22, -1,
      16, 22, 17, -1,
      2, 1, 7, -1,
      7, 1, 0, -1,
      7, 0, 8, -1,
      14, 0, 15, -1,
      15, 0, 29, -1,
      15, 29, 28, -1,
      28, 27, 15, -1,
      15, 27, 26, -1,
      15, 26, 25, -1,
      25, 24, 15, -1,
      15, 24, 23, -1,
      15, 23, 22, -1,
      22, 21, 20, -1,
      14, 13, 0, -1,
      0, 13, 12, -1,
      0, 12, 11, -1,
      7, 6, 5, -1,
      20, 19, 22, -1,
      22, 19, 18, -1,
      22, 18, 17, -1,
      11, 10, 0, -1,
      0, 10, 9, -1,
      0, 9, 8, -1,
      5, 4, 7, -1,
      7, 4, 3, -1,
      7, 3, 2, -1,
      30, 33, 31, -1,
      31, 33, 32, -1,
      53, 69, 52, -1,
      52, 69, 68, -1,
      52, 68, 54, -1,
      54, 68, 55, -1,
      60, 59, 68, -1,
      68, 59, 58, -1,
      58, 57, 68, -1,
      68, 57, 56, -1,
      68, 56, 55, -1,
      60, 68, 61, -1,
      61, 68, 67, -1,
      61, 67, 62, -1,
      62, 67, 66, -1,
      62, 66, 63, -1,
      63, 66, 65, -1,
      63, 65, 64, -1,
    ]
  }
}

Shape {
  appearance Appearance {
    material Material {
      diffuseColor 0.0000 0.0000 0.0000
      specularColor 0.0000 0.0000 0.0000
      ambientIntensity 0.2
      transparency 0.0000
      shininess 0.5
    }
  }
  geometry IndexedFaceSet {
    ccw TRUE
    solid FALSE
    coord DEF co Coordinate {
      point [
        -0.029835 -0.033156 -0.423228,
        -0.029835 -0.041798 -0.423228,
        0.012416 -0.041798 -0.423228,
        -0.027914 0.028299 -0.423228,
        0.001854 0.028299 -0.423228,
        0.001854 0.002373 -0.423228,
        0.027780 -0.037718 -0.423228,
        0.027780 -0.029075 -0.423228,
        0.012416 0.036942 -0.423228,
        0.001854 -0.006270 -0.423228,
        0.001854 -0.033156 -0.423228,
        -0.025994 -0.006270 -0.423228,
        -0.025994 0.002373 -0.423228,
        0.066781 -0.039126 -0.423228,
        0.093077 -0.041798 -0.423228,
        0.059149 -0.041753 -0.423228,
        0.054076 -0.042279 -0.423228,
        -0.027914 0.036942 -0.423228,
        0.082200 0.016202 -0.423228,
        0.077584 0.023564 -0.423228,
        0.122844 0.036942 -0.423228,
        0.053973 0.028389 -0.423228,
        0.059867 0.026262 -0.423228,
        0.029191 -0.029857 -0.423228,
        0.065317 0.022616 -0.423228,
        0.070072 0.017367 -0.423228,
        0.075793 -0.003269 -0.423228,
        0.074995 -0.011793 -0.423228,
        0.072856 -0.018566 -0.423228,
        0.055335 -0.033293 -0.423228,
        0.047990 -0.034117 -0.423228,
        0.061072 -0.031181 -0.423228,
        0.065904 -0.027924 -0.423228,
        0.069599 -0.024026 -0.423228,
        0.037538 -0.032957 -0.423228,
        0.073318 0.011287 -0.423228,
        0.075417 0.002857 -0.423228,
        0.070476 0.030401 -0.423228,
        0.133407 0.036942 -0.423228,
        0.133407 -0.041798 -0.423228,
        0.073115 -0.035081 -0.423228,
        0.079029 -0.028855 -0.423228,
        0.093077 -0.033156 -0.423228,
        0.083224 -0.021368 -0.423228,
        0.122844 -0.033156 -0.423228,
        0.085594 -0.013033 -0.423228,
        0.086355 -0.003914 -0.423228,
        0.085222 0.007281 -0.423228,
        0.062996 0.034706 -0.423228,
        0.054219 0.037256 -0.423228,
        0.046310 0.037902 -0.423228,
        0.036884 0.037251 -0.423228,
        0.027780 0.034781 -0.423228,
        0.027780 0.024218 -0.423228,
        0.036649 0.028016 -0.423228,
        0.046220 0.029259 -0.423228,
        0.049446 -0.042759 -0.423228,
        0.047293 -0.042722 -0.423228,
        0.044130 -0.042279 -0.423228,
        0.036173 -0.041164 -0.423228,
        -0.114336 -0.041798 -0.423228,
        -0.104643 -0.020218 -0.423228,
        -0.100128 -0.027261 -0.423228,
        -0.173872 -0.041798 -0.423228,
        -0.185394 -0.041798 -0.423228,
        -0.154667 0.036942 -0.423228,
        -0.144104 0.036942 -0.423228,
        -0.093646 -0.033466 -0.423228,
        -0.085425 -0.038244 -0.423228,
        -0.076352 -0.040948 -0.423228,
        -0.066609 -0.041798 -0.423228,
        -0.045198 -0.041798 -0.423228,
        -0.045198 0.036942 -0.423228,
        -0.067419 0.036942 -0.423228,
        -0.096660 0.026675 -0.423228,
        -0.102228 0.020500 -0.423228,
        -0.105888 0.013729 -0.423228,
        -0.078795 0.035726 -0.423228,
        -0.088008 0.032491 -0.423228,
        -0.096578 0.026747 -0.423228,
        -0.125859 -0.041798 -0.423228,
        -0.133376 -0.019713 -0.423228,
        -0.165904 -0.019713 -0.423228,
        -0.108003 0.005971 -0.423228,
        -0.108575 -0.001438 -0.423228,
        -0.107470 -0.011976 -0.423228,
        -0.154667 0.036942 -0.422835,
        -0.185394 -0.041798 -0.422835,
        -0.173872 -0.041798 -0.422835,
        -0.165904 -0.019713 -0.422835,
        -0.133376 -0.019713 -0.422835,
        -0.125859 -0.041798 -0.422835,
        -0.114336 -0.041798 -0.422835,
        -0.144104 0.036942 -0.422835,
        -0.136032 -0.011071 -0.422835,
        -0.162363 -0.011071 -0.422835,
        -0.147780 0.021818 -0.422835,
        -0.148538 0.024548 -0.422835,
        -0.149040 0.027339 -0.422835,
        -0.149295 0.027339 -0.422835,
        -0.149809 0.024557 -0.422835,
        -0.150511 0.021818 -0.422835,
        -0.136032 -0.011071 -0.423228,
        -0.162363 -0.011071 -0.423228,
        -0.147780 0.021818 -0.423228,
        -0.148538 0.024548 -0.423228,
        -0.149040 0.027339 -0.423228,
        -0.149295 0.027339 -0.423228,
        -0.149809 0.024557 -0.423228,
        -0.150511 0.021818 -0.423228,
        -0.066609 -0.041798 -0.422835,
        -0.045198 -0.041798 -0.422835,
        -0.045198 0.036942 -0.422835,
        -0.067419 0.036942 -0.422835,
        -0.108575 -0.001438 -0.422835,
        -0.108003 0.005971 -0.422835,
        -0.105888 0.013729 -0.422835,
        -0.102228 0.020500 -0.422835,
        -0.096660 0.026675 -0.422835,
        -0.096578 0.026747 -0.422835,
        -0.088008 0.032491 -0.422835,
        -0.078795 0.035726 -0.422835,
        -0.076352 -0.040948 -0.422835,
        -0.085425 -0.038244 -0.422835,
        -0.093646 -0.033466 -0.422835,
        -0.100128 -0.027261 -0.422835,
        -0.104643 -0.020218 -0.422835,
        -0.107470 -0.011976 -0.422835,
        -0.092770 0.017257 -0.422835,
        -0.088945 0.021319 -0.422835,
        -0.083193 0.025034 -0.422835,
        -0.076694 0.027309 -0.422835,
        -0.067374 0.028299 -0.422835,
        -0.055761 0.028299 -0.422835,
        -0.055761 -0.033156 -0.422835,
        -0.066939 -0.033156 -0.422835,
        -0.075246 -0.032383 -0.422835,
        -0.081872 -0.030315 -0.422835,
        -0.087243 -0.027126 -0.422835,
        -0.091659 -0.022764 -0.422835,
        -0.094980 -0.017335 -0.422835,
        -0.097289 -0.009933 -0.422835,
        -0.098012 -0.001663 -0.422835,
        -0.097343 0.006173 -0.422835,
        -0.095505 0.012401 -0.422835,
        -0.067374 0.028299 -0.423228,
        -0.055761 0.028299 -0.423228,
        -0.076694 0.027309 -0.423228,
        -0.083193 0.025034 -0.423228,
        -0.088945 0.021319 -0.423228,
        -0.092770 0.017257 -0.423228,
        -0.095505 0.012401 -0.423228,
        -0.097343 0.006173 -0.423228,
        -0.098012 -0.001663 -0.423228,
        -0.097289 -0.009933 -0.423228,
        -0.094980 -0.017335 -0.423228,
        -0.091659 -0.022764 -0.423228,
        -0.087243 -0.027126 -0.423228,
        -0.081872 -0.030315 -0.423228,
        -0.075246 -0.032383 -0.423228,
        -0.066939 -0.033156 -0.423228,
        -0.055761 -0.033156 -0.423228,
        -0.029835 -0.033156 -0.422835,
        -0.029835 -0.041798 -0.422835,
        0.012416 -0.041798 -0.422835,
        0.012416 0.036942 -0.422835,
        -0.027914 0.036942 -0.422835,
        -0.027914 0.028299 -0.422835,
        0.001854 0.028299 -0.422835,
        0.001854 0.002373 -0.422835,
        -0.025994 0.002373 -0.422835,
        -0.025994 -0.006270 -0.422835,
        0.001854 -0.006270 -0.422835,
        0.001854 -0.033156 -0.422835,
        0.027780 -0.029075 -0.422835,
        0.027780 -0.037718 -0.422835,
        0.036173 -0.041164 -0.422835,
        0.049446 -0.042759 -0.422835,
        0.047293 -0.042722 -0.422835,
        0.059149 -0.041753 -0.422835,
        0.066781 -0.039126 -0.422835,
        0.073115 -0.035081 -0.422835,
        0.079029 -0.028855 -0.422835,
        0.083224 -0.021368 -0.422835,
        0.085594 -0.013033 -0.422835,
        0.086355 -0.003914 -0.422835,
        0.046310 0.037902 -0.422835,
        0.054219 0.037256 -0.422835,
        0.062996 0.034706 -0.422835,
        0.070476 0.030401 -0.422835,
        0.077584 0.023564 -0.422835,
        0.082200 0.016202 -0.422835,
        0.085222 0.007281 -0.422835,
        0.027780 0.034781 -0.422835,
        0.036884 0.037251 -0.422835,
        0.027780 0.024218 -0.422835,
        0.046220 0.029259 -0.422835,
        0.036649 0.028016 -0.422835,
        0.075793 -0.003269 -0.422835,
        0.075417 0.002857 -0.422835,
        0.073318 0.011287 -0.422835,
        0.070072 0.017367 -0.422835,
        0.065317 0.022616 -0.422835,
        0.059867 0.026262 -0.422835,
        0.053973 0.028389 -0.422835,
        0.047990 -0.034117 -0.422835,
        0.055335 -0.033293 -0.422835,
        0.061072 -0.031181 -0.422835,
        0.065904 -0.027924 -0.422835,
        0.069599 -0.024026 -0.422835,
        0.072856 -0.018566 -0.422835,
        0.074995 -0.011793 -0.422835,
        0.029191 -0.029857 -0.422835,
        0.037538 -0.032957 -0.422835,
        0.093077 -0.033156 -0.422835,
        0.093077 -0.041798 -0.422835,
        0.133407 -0.041798 -0.422835,
        0.133407 0.036942 -0.422835,
        0.122844 0.036942 -0.422835,
        0.122844 -0.033156 -0.422835,
      ]
    }
    coordIndex [
      86, 87, 65, -1,
      65, 87, 64, -1,
      87, 88, 64, -1,
      64, 88, 63, -1,
      88, 89, 63, -1,
      63, 89, 82, -1,
      89, 90, 82, -1,
      82, 90, 81, -1,
      90, 91, 81, -1,
      81, 91, 80, -1,
      91, 92, 80, -1,
      80, 92, 60, -1,
      92, 93, 60, -1,
      60, 93, 66, -1,
      93, 86, 66, -1,
      66, 86, 65, -1,
      94, 90, 95, -1,
      95, 90, 89, -1,
      96, 93, 94, -1,
      94, 93, 92, -1,
      94, 92, 90, -1,
      90, 92, 91, -1,
      96, 97, 93, -1,
      93, 97, 98, -1,
      93, 98, 86, -1,
      86, 98, 99, -1,
      86, 99, 100, -1,
      100, 101, 86, -1,
      86, 101, 95, -1,
      86, 95, 87, -1,
      87, 95, 89, -1,
      87, 89, 88, -1,
      94, 95, 102, -1,
      102, 95, 103, -1,
      96, 94, 104, -1,
      104, 94, 102, -1,
      96, 104, 105, -1,
      96, 105, 97, -1,
      97, 105, 106, -1,
      97, 106, 98, -1,
      99, 98, 107, -1,
      107, 98, 106, -1,
      99, 107, 108, -1,
      99, 108, 100, -1,
      100, 108, 109, -1,
      100, 109, 101, -1,
      95, 101, 103, -1,
      103, 101, 109, -1,
      110, 111, 70, -1,
      70, 111, 71, -1,
      111, 112, 71, -1,
      71, 112, 72, -1,
      112, 113, 72, -1,
      72, 113, 73, -1,
      114, 84, 83, -1,
      114, 83, 115, -1,
      115, 83, 76, -1,
      115, 76, 116, -1,
      116, 76, 75, -1,
      116, 75, 117, -1,
      117, 75, 74, -1,
      117, 74, 118, -1,
      118, 74, 79, -1,
      118, 79, 119, -1,
      119, 79, 78, -1,
      119, 78, 120, -1,
      120, 78, 77, -1,
      120, 77, 121, -1,
      121, 77, 73, -1,
      121, 73, 113, -1,
      110, 70, 69, -1,
      110, 69, 122, -1,
      122, 69, 68, -1,
      122, 68, 123, -1,
      123, 68, 67, -1,
      123, 67, 124, -1,
      124, 67, 62, -1,
      124, 62, 125, -1,
      125, 62, 61, -1,
      125, 61, 126, -1,
      126, 61, 85, -1,
      126, 85, 127, -1,
      127, 85, 84, -1,
      127, 84, 114, -1,
      116, 117, 128, -1,
      128, 117, 118, -1,
      128, 118, 129, -1,
      129, 118, 119, -1,
      129, 119, 130, -1,
      130, 119, 120, -1,
      130, 120, 131, -1,
      131, 120, 121, -1,
      131, 121, 132, -1,
      132, 121, 113, -1,
      132, 113, 133, -1,
      133, 113, 112, -1,
      133, 112, 134, -1,
      134, 112, 111, -1,
      134, 111, 135, -1,
      135, 111, 110, -1,
      135, 110, 136, -1,
      136, 110, 122, -1,
      136, 122, 137, -1,
      137, 122, 123, -1,
      137, 123, 138, -1,
      138, 123, 124, -1,
      138, 124, 139, -1,
      139, 124, 125, -1,
      139, 125, 140, -1,
      140, 125, 126, -1,
      140, 126, 141, -1,
      141, 126, 127, -1,
      141, 127, 142, -1,
      142, 127, 114, -1,
      142, 114, 143, -1,
      143, 114, 115, -1,
      143, 115, 144, -1,
      144, 115, 116, -1,
      144, 116, 128, -1,
      132, 133, 145, -1,
      145, 133, 146, -1,
      132, 145, 147, -1,
      132, 147, 131, -1,
      131, 147, 148, -1,
      131, 148, 130, -1,
      130, 148, 149, -1,
      130, 149, 129, -1,
      129, 149, 150, -1,
      129, 150, 128, -1,
      128, 150, 151, -1,
      128, 151, 144, -1,
      144, 151, 152, -1,
      144, 152, 143, -1,
      143, 152, 153, -1,
      143, 153, 142, -1,
      142, 153, 154, -1,
      142, 154, 141, -1,
      141, 154, 155, -1,
      141, 155, 140, -1,
      140, 155, 156, -1,
      140, 156, 139, -1,
      139, 156, 157, -1,
      139, 157, 138, -1,
      138, 157, 158, -1,
      138, 158, 137, -1,
      137, 158, 159, -1,
      137, 159, 136, -1,
      136, 159, 160, -1,
      136, 160, 135, -1,
      134, 135, 161, -1,
      161, 135, 160, -1,
      133, 134, 146, -1,
      146, 134, 161, -1,
      162, 163, 0, -1,
      0, 163, 1, -1,
      163, 164, 1, -1,
      1, 164, 2, -1,
      164, 165, 2, -1,
      2, 165, 8, -1,
      165, 166, 8, -1,
      8, 166, 17, -1,
      166, 167, 17, -1,
      17, 167, 3, -1,
      167, 168, 3, -1,
      3, 168, 4, -1,
      168, 169, 4, -1,
      4, 169, 5, -1,
      169, 170, 5, -1,
      5, 170, 12, -1,
      170, 171, 12, -1,
      12, 171, 11, -1,
      171, 172, 11, -1,
      11, 172, 9, -1,
      172, 173, 9, -1,
      9, 173, 10, -1,
      173, 162, 10, -1,
      10, 162, 0, -1,
      164, 163, 162, -1,
      162, 173, 164, -1,
      164, 173, 172, -1,
      164, 172, 165, -1,
      167, 166, 168, -1,
      168, 166, 165, -1,
      168, 165, 169, -1,
      169, 165, 172, -1,
      169, 172, 170, -1,
      170, 172, 171, -1,
      174, 175, 7, -1,
      7, 175, 6, -1,
      6, 175, 176, -1,
      177, 56, 57, -1,
      177, 57, 178, -1,
      178, 57, 58, -1,
      178, 58, 176, -1,
      176, 58, 59, -1,
      176, 59, 6, -1,
      56, 177, 16, -1,
      16, 177, 179, -1,
      16, 179, 15, -1,
      15, 179, 180, -1,
      15, 180, 13, -1,
      13, 180, 181, -1,
      13, 181, 40, -1,
      40, 181, 182, -1,
      40, 182, 41, -1,
      41, 182, 183, -1,
      41, 183, 43, -1,
      43, 183, 184, -1,
      43, 184, 45, -1,
      45, 184, 185, -1,
      45, 185, 46, -1,
      186, 50, 49, -1,
      186, 49, 187, -1,
      187, 49, 48, -1,
      187, 48, 188, -1,
      188, 48, 37, -1,
      188, 37, 189, -1,
      189, 37, 19, -1,
      189, 19, 190, -1,
      190, 19, 18, -1,
      190, 18, 191, -1,
      191, 18, 47, -1,
      191, 47, 192, -1,
      192, 47, 46, -1,
      192, 46, 185, -1,
      193, 52, 51, -1,
      193, 51, 194, -1,
      194, 51, 50, -1,
      194, 50, 186, -1,
      193, 195, 52, -1,
      52, 195, 53, -1,
      196, 55, 54, -1,
      196, 54, 197, -1,
      197, 54, 53, -1,
      197, 53, 195, -1,
      198, 26, 36, -1,
      198, 36, 199, -1,
      199, 36, 35, -1,
      199, 35, 200, -1,
      200, 35, 25, -1,
      200, 25, 201, -1,
      201, 25, 24, -1,
      201, 24, 202, -1,
      202, 24, 22, -1,
      202, 22, 203, -1,
      203, 22, 21, -1,
      203, 21, 204, -1,
      204, 21, 55, -1,
      204, 55, 196, -1,
      205, 30, 29, -1,
      205, 29, 206, -1,
      206, 29, 31, -1,
      206, 31, 207, -1,
      207, 31, 32, -1,
      207, 32, 208, -1,
      208, 32, 33, -1,
      208, 33, 209, -1,
      209, 33, 28, -1,
      209, 28, 210, -1,
      210, 28, 27, -1,
      210, 27, 211, -1,
      211, 27, 26, -1,
      211, 26, 198, -1,
      174, 7, 23, -1,
      174, 23, 212, -1,
      212, 23, 34, -1,
      212, 34, 213, -1,
      213, 34, 30, -1,
      213, 30, 205, -1,
      206, 177, 205, -1,
      205, 177, 178, -1,
      205, 178, 213, -1,
      213, 178, 176, -1,
      213, 176, 212, -1,
      212, 176, 175, -1,
      212, 175, 174, -1,
      195, 193, 197, -1,
      197, 193, 194, -1,
      197, 194, 196, -1,
      196, 194, 186, -1,
      196, 186, 204, -1,
      204, 186, 187, -1,
      204, 187, 203, -1,
      203, 187, 188, -1,
      203, 188, 202, -1,
      202, 188, 189, -1,
      202, 189, 201, -1,
      201, 189, 190, -1,
      201, 190, 200, -1,
      200, 190, 191, -1,
      200, 191, 199, -1,
      199, 191, 192, -1,
      199, 192, 198, -1,
      198, 192, 185, -1,
      198, 185, 211, -1,
      211, 185, 184, -1,
      211, 184, 210, -1,
      210, 184, 183, -1,
      210, 183, 209, -1,
      209, 183, 182, -1,
      209, 182, 208, -1,
      208, 182, 181, -1,
      208, 181, 207, -1,
      207, 181, 180, -1,
      207, 180, 206, -1,
      206, 180, 179, -1,
      206, 179, 177, -1,
      214, 215, 42, -1,
      42, 215, 14, -1,
      215, 216, 14, -1,
      14, 216, 39, -1,
      216, 217, 39, -1,
      39, 217, 38, -1,
      217, 218, 38, -1,
      38, 218, 20, -1,
      218, 219, 20, -1,
      20, 219, 44, -1,
      219, 214, 44, -1,
      44, 214, 42, -1,
      218, 217, 219, -1,
      219, 217, 216, -1,
      219, 216, 214, -1,
      214, 216, 215, -1,
    ]
  }
}

Shape {
  appearance Appearance {
    material Material {
      diffuseColor 0.2510 0.2510 0.2510
      specularColor 0.1255 0.1255 0.1255
      ambientIntensity 0.2
      transparency 0.0000
      shininess 0.5
    }
  }
  geometry IndexedFaceSet {
    ccw TRUE
    solid FALSE
    coord DEF co Coordinate {
      point [
        -0.136032 -0.011071 -0.423228,
        -0.162363 -0.011071 -0.423228,
        -0.147780 0.021818 -0.423228,
        -0.148538 0.024548 -0.423228,
        -0.149040 0.027339 -0.423228,
        -0.149295 0.027339 -0.423228,
        -0.149809 0.024557 -0.423228,
        -0.150511 0.021818 -0.423228,
        -0.067374 0.028299 -0.423228,
        -0.055761 0.028299 -0.423228,
        -0.076694 0.027309 -0.423228,
        -0.083193 0.025034 -0.423228,
        -0.088945 0.021319 -0.423228,
        -0.092770 0.017257 -0.423228,
        -0.095505 0.012401 -0.423228,
        -0.097343 0.006173 -0.423228,
        -0.098012 -0.001663 -0.423228,
        -0.097289 -0.009933 -0.423228,
        -0.094980 -0.017335 -0.423228,
        -0.091659 -0.022764 -0.423228,
        -0.087243 -0.027126 -0.423228,
        -0.081872 -0.030315 -0.423228,
        -0.075246 -0.032383 -0.423228,
        -0.066939 -0.033156 -0.423228,
        -0.055761 -0.033156 -0.423228,
      ]
    }
    coordIndex [
      0, 1, 2, -1,
      2, 1, 7, -1,
      2, 7, 3, -1,
      3, 7, 6, -1,
      3, 6, 4, -1,
      4, 6, 5, -1,
      9, 24, 8, -1,
      8, 24, 23, -1,
      8, 23, 22, -1,
      16, 15, 8, -1,
      8, 15, 14, -1,
      8, 14, 10, -1,
      22, 21, 8, -1,
      8, 21, 20, -1,
      8, 20, 19, -1,
      19, 18, 8, -1,
      8, 18, 17, -1,
      8, 17, 16, -1,
      13, 12, 14, -1,
      14, 12, 11, -1,
      14, 11, 10, -1,
    ]
  }
}
